SplineFontDB: 3.0
FontName: ArchivoNarrowDeva-Regular
FullName: Archivo Narrow Devanagari-Regular
FamilyName: Archivo Narrow Devanagari
Weight: Regular
Copyright: Copyright (c) 2012-2014, Omnibus-Type (www.omnibus-type.com omnibus.type@gmail.com) with Reserved Font Name 'Archivo'
Version: 001.004
ItalicAngle: 0
UnderlinePosition: -50
UnderlineWidth: 50
Ascent: 800
Descent: 200
sfntRevision: 0x00010106
LayerCount: 2
Layer: 0 0 "Back"  1
Layer: 1 0 "Fore"  0
XUID: [1021 191 1600663927 2102813]
FSType: 8
OS2Version: 3
OS2_WeightWidthSlopeOnly: 0
OS2_UseTypoMetrics: 1
CreationTime: 1405248882
ModificationTime: 1405356058
PfmFamily: 81
TTFWeight: 400
TTFWidth: 5
LineGap: 0
VLineGap: 0
Panose: 0 0 5 0 0 0 0 0 0 0
OS2TypoAscent: 827
OS2TypoAOffset: 0
OS2TypoDescent: -404
OS2TypoDOffset: 0
OS2TypoLinegap: 0
OS2WinAscent: 827
OS2WinAOffset: 0
OS2WinDescent: 404
OS2WinDOffset: 0
HheadAscent: 827
HheadAOffset: 0
HheadDescent: -404
HheadDOffset: 0
OS2SubXSize: 650
OS2SubYSize: 600
OS2SubXOff: 0
OS2SubYOff: 75
OS2SupXSize: 650
OS2SupYSize: 600
OS2SupXOff: 0
OS2SupYOff: 350
OS2StrikeYSize: 50
OS2StrikeYPos: 279
OS2Vendor: 'Omni'
OS2CodePages: 20000093.00000000
OS2UnicodeRanges: 00008007.00000000.00000000.00000000
Lookup: 1 0 0 "'aalt' Access All Alternates lookup 0"  {"'aalt' Access All Alternates lookup 0 subtable"  } ['aalt' ('DFLT' <'dflt' > 'dev2' <'dflt' > 'grek' <'dflt' > 'latn' <'CAT ' 'MOL ' 'ROM ' 'dflt' > ) ]
Lookup: 1 0 0 "'locl' Localized Forms in Latin lookup 1"  {"'locl' Localized Forms in Latin lookup 1 subtable"  } ['locl' ('latn' <'ROM ' > ) ]
Lookup: 1 0 0 "'locl' Localized Forms in Latin lookup 2"  {"'locl' Localized Forms in Latin lookup 2 subtable"  } ['locl' ('latn' <'MOL ' > ) ]
Lookup: 6 0 0 "'locl' Localized Forms in Latin lookup 3"  {"'locl' Localized Forms in Latin lookup 3 contextual 0"  "'locl' Localized Forms in Latin lookup 3 contextual 1"  } ['locl' ('latn' <'CAT ' > ) ]

StartChar: .notdef
Encoding: 65536 -1 0
Width: 442
Flags: MW
HStem: 0 44<71 371 71 442> 575 44<71 371 71 71>
VStem: 0 44<84 535 84 619> 398 44<84 535 535 535>
LayerCount: 2
Fore
SplineSet
0 619 m 1
 442 619 l 1
 442 0 l 1
 0 0 l 1
 0 619 l 1
371 575 m 1
 71 575 l 1
 221 349 l 1
 371 575 l 1
44 535 m 1
 44 84 l 1
 194 309 l 1
 44 535 l 1
398 535 m 1
 248 309 l 1
 398 84 l 1
 398 535 l 1
221 270 m 1
 71 44 l 1
 371 44 l 1
 221 270 l 1
EndSplineSet
EndChar

StartChar: A
Encoding: 65 65 1
Width: 484
Flags: MW
HStem: 135 71<140 337 140 359 118 337> 543 63<237 237 237 240>
VStem: -1 485<0 0>
LayerCount: 2
Fore
SplineSet
400 0 m 1
 359 135 l 1
 118 135 l 1
 77 0 l 1
 -1 0 l 1
 192 606 l 1
 292 606 l 1
 484 0 l 1
 400 0 l 1
237 543 m 1
 237 543 229 495 223 476 c 2
 140 206 l 1
 337 206 l 1
 255 476 l 2
 248 496 240 543 240 543 c 1
 237 543 l 1
EndSplineSet
Substitution2: "Single Substitution lookup 14 subtable" ordfeminine
Substitution2: "'aalt' Access All Alternates lookup 0 subtable" ordfeminine
Position2: "'cpsp' Capital Spacing lookup 0 subtable" dx=5 dy=0 dh=10 dv=0
EndChar

StartChar: Aacute
Encoding: 193 193 2
Width: 484
Flags: MW
HStem: 135 71<140 337 140 359 118 337> 543 63<237 237 237 240> 664 117<189 345 189 345>
VStem: -1 485<0 0>
LayerCount: 2
Fore
SplineSet
250 664 m 1
 189 664 l 1
 265 781 l 1
 345 781 l 1
 346 778 l 1
 250 664 l 1
400 0 m 1
 359 135 l 1
 118 135 l 1
 77 0 l 1
 -1 0 l 1
 192 606 l 1
 292 606 l 1
 484 0 l 1
 400 0 l 1
237 543 m 1
 237 543 229 495 223 476 c 2
 140 206 l 1
 337 206 l 1
 255 476 l 2
 248 496 240 543 240 543 c 1
 237 543 l 1
EndSplineSet
Position2: "'cpsp' Capital Spacing lookup 0 subtable" dx=5 dy=0 dh=10 dv=0
EndChar

StartChar: Abreve
Encoding: 258 258 3
Width: 484
Flags: MW
HStem: 135 71<140 337 140 359 118 337> 543 63<237 237 237 240> 695 56<226.5 256 226.5 275>
VStem: -1 485<0 0>
LayerCount: 2
Fore
SplineSet
351 781 m 1
 351 741 309 695 241 695 c 0
 174 695 133 741 133 781 c 1
 189 781 l 1
 192 768 212 751 241 751 c 0
 271 751 293 768 294 781 c 1
 351 781 l 1
400 0 m 1
 359 135 l 1
 118 135 l 1
 77 0 l 1
 -1 0 l 1
 192 606 l 1
 292 606 l 1
 484 0 l 1
 400 0 l 1
237 543 m 1
 237 543 229 495 223 476 c 2
 140 206 l 1
 337 206 l 1
 255 476 l 2
 248 496 240 543 240 543 c 1
 237 543 l 1
EndSplineSet
Position2: "'cpsp' Capital Spacing lookup 0 subtable" dx=5 dy=0 dh=10 dv=0
EndChar

StartChar: Acircumflex
Encoding: 194 194 4
Width: 484
Flags: MW
HStem: 135 71<140 337 140 359 118 337> 543 63<237 237 237 240> 660 120<132 277 132 277 208 352 208 281>
VStem: -1 485<0 0>
LayerCount: 2
Fore
SplineSet
281 660 m 1
 242 730 l 1
 202 660 l 1
 132 660 l 1
 208 780 l 1
 277 780 l 1
 352 660 l 1
 281 660 l 1
400 0 m 1
 359 135 l 1
 118 135 l 1
 77 0 l 1
 -1 0 l 1
 192 606 l 1
 292 606 l 1
 484 0 l 1
 400 0 l 1
237 543 m 1
 237 543 229 495 223 476 c 2
 140 206 l 1
 337 206 l 1
 255 476 l 2
 248 496 240 543 240 543 c 1
 237 543 l 1
EndSplineSet
Position2: "'cpsp' Capital Spacing lookup 0 subtable" dx=5 dy=0 dh=10 dv=0
EndChar

StartChar: Adieresis
Encoding: 196 196 5
Width: 484
Flags: MW
HStem: 135 71<140 337 140 359 118 337> 543 63<237 237 237 240> 697 84<137 214 137 214 270 347 137 270>
VStem: 137 77<697 781 697 781> 270 77<697 781 697 781>
LayerCount: 2
Fore
SplineSet
137 697 m 1
 137 781 l 1
 214 781 l 1
 214 697 l 1
 137 697 l 1
270 697 m 1
 270 781 l 1
 347 781 l 1
 347 697 l 1
 270 697 l 1
400 0 m 1
 359 135 l 1
 118 135 l 1
 77 0 l 1
 -1 0 l 1
 192 606 l 1
 292 606 l 1
 484 0 l 1
 400 0 l 1
237 543 m 1
 237 543 229 495 223 476 c 2
 140 206 l 1
 337 206 l 1
 255 476 l 2
 248 496 240 543 240 543 c 1
 237 543 l 1
EndSplineSet
Position2: "'cpsp' Capital Spacing lookup 0 subtable" dx=5 dy=0 dh=10 dv=0
EndChar

StartChar: Agrave
Encoding: 192 192 6
Width: 484
Flags: MW
HStem: 135 71<140 337 140 359 118 337> 543 63<237 237 237 240> 664 117<139 233 139 294>
VStem: -1 485<0 0>
LayerCount: 2
Fore
SplineSet
233 664 m 1
 138 778 l 1
 139 781 l 1
 218 781 l 1
 294 664 l 1
 233 664 l 1
400 0 m 1
 359 135 l 1
 118 135 l 1
 77 0 l 1
 -1 0 l 1
 192 606 l 1
 292 606 l 1
 484 0 l 1
 400 0 l 1
237 543 m 1
 237 543 229 495 223 476 c 2
 140 206 l 1
 337 206 l 1
 255 476 l 2
 248 496 240 543 240 543 c 1
 237 543 l 1
EndSplineSet
Position2: "'cpsp' Capital Spacing lookup 0 subtable" dx=5 dy=0 dh=10 dv=0
EndChar

StartChar: Amacron
Encoding: 256 256 7
Width: 484
Flags: MW
HStem: 135 71<140 337 140 359 118 337> 543 63<237 237 237 240> 671 64<131 353 131 353>
VStem: 131 222<671 735 671 735>
LayerCount: 2
Fore
SplineSet
131 671 m 1
 131 735 l 1
 353 735 l 1
 353 671 l 1
 131 671 l 1
400 0 m 1
 359 135 l 1
 118 135 l 1
 77 0 l 1
 -1 0 l 1
 192 606 l 1
 292 606 l 1
 484 0 l 1
 400 0 l 1
237 543 m 1
 237 543 229 495 223 476 c 2
 140 206 l 1
 337 206 l 1
 255 476 l 2
 248 496 240 543 240 543 c 1
 237 543 l 1
EndSplineSet
Position2: "'cpsp' Capital Spacing lookup 0 subtable" dx=5 dy=0 dh=10 dv=0
EndChar

StartChar: Aogonek
Encoding: 260 260 8
Width: 484
Flags: MW
HStem: -161 58<458 531> 135 71<140 337 140 359 118 337> 543 63<237 240 237 237>
VStem: 394 69<-67.5 -61>
LayerCount: 2
Fore
SplineSet
531 -103 m 1
 531 -149 l 1
 513 -156 495 -161 477 -161 c 0
 439 -161 394 -142 394 -81 c 0
 394 -41 412 -21 429 0 c 1
 400 0 l 1
 359 135 l 1
 118 135 l 1
 77 0 l 1
 -1 0 l 1
 192 606 l 1
 292 606 l 1
 484 0 l 1
 475 -13 463 -30 463 -55 c 0
 463 -80 474 -103 504 -103 c 2
 531 -103 l 1
337 206 m 1
 255 476 l 2
 248 496 240 543 240 543 c 1
 237 543 l 1
 237 543 229 495 223 476 c 2
 140 206 l 1
 337 206 l 1
EndSplineSet
Position2: "'cpsp' Capital Spacing lookup 0 subtable" dx=5 dy=0 dh=10 dv=0
EndChar

StartChar: Aring
Encoding: 197 197 9
Width: 484
Flags: MW
HStem: 135 71<140 337 140 359 118 337> 543 63<237 237 237 240> 639 40<229 253 229 265> 769 40<229 253>
VStem: 156 40<711.5 736.5 711.5 747.5> 286 40<711.5 736.5>
LayerCount: 2
Fore
SplineSet
241 809 m 0
 290 809 326 770 326 724 c 0
 326 677 289 639 241 639 c 0
 195 639 156 676 156 724 c 0
 156 771 194 809 241 809 c 0
241 769 m 0
 217 769 196 749 196 724 c 0
 196 699 217 679 241 679 c 0
 265 679 286 699 286 724 c 0
 286 749 265 769 241 769 c 0
400 0 m 1
 359 135 l 1
 118 135 l 1
 77 0 l 1
 -1 0 l 1
 192 606 l 1
 292 606 l 1
 484 0 l 1
 400 0 l 1
237 543 m 1
 237 543 229 495 223 476 c 2
 140 206 l 1
 337 206 l 1
 255 476 l 2
 248 496 240 543 240 543 c 1
 237 543 l 1
EndSplineSet
Position2: "'cpsp' Capital Spacing lookup 0 subtable" dx=5 dy=0 dh=10 dv=0
EndChar

StartChar: Aringacute
Encoding: 506 506 10
Width: 484
Flags: MW
HStem: 135 71<140 337 140 359 118 337> 543 58<237 237 237 240> 688 38<229.5 254> 750 96<215 357 215 357>
VStem: 157 40<632.5 656 632.5 667> 287 40<632.5 656>
LayerCount: 2
Fore
SplineSet
215 750 m 1
 278 846 l 1
 357 846 l 1
 358 842 l 1
 276 750 l 1
 215 750 l 1
185 584 m 1
 168 598 157 620 157 644 c 0
 157 690 195 726 242 726 c 0
 290 726 327 689 327 644 c 0xac
 327 620 316 598 299 583 c 1
 484 0 l 1
 400 0 l 1
 359 135 l 1
 118 135 l 1
 77 0 l 1
 -1 0 l 1
 185 584 l 1
242 688 m 0xec
 217 688 197 668 197 644 c 0
 197 621 217 601 242 601 c 0
 266 601 287 621 287 644 c 0
 287 668 266 688 242 688 c 0xec
237 543 m 1
 237 543 229 495 223 476 c 2
 140 206 l 1
 337 206 l 1
 255 476 l 2
 248 496 240 543 240 543 c 1
 237 543 l 1
EndSplineSet
Position2: "'cpsp' Capital Spacing lookup 0 subtable" dx=5 dy=0 dh=10 dv=0
EndChar

StartChar: Atilde
Encoding: 195 195 11
Width: 484
Flags: MW
HStem: 135 71<140 337 140 359 118 337> 543 63<237 237 237 240> 689 65<276 297 272 322> 716 65<186 206 160.5 211>
VStem: -1 485<0 0>
LayerCount: 2
Fore
SplineSet
370 781 m 1xd8
 370 740 349 689 295 689 c 0xe8
 257 689 228 716 194 716 c 0xd8
 178 716 166 709 164 689 c 1
 112 689 l 1xe8
 112 729 134 781 187 781 c 0xd8
 225 781 255 754 289 754 c 0xe8
 305 754 316 760 319 781 c 1
 370 781 l 1xd8
400 0 m 1
 359 135 l 1
 118 135 l 1
 77 0 l 1
 -1 0 l 1
 192 606 l 1
 292 606 l 1xe8
 484 0 l 1
 400 0 l 1
237 543 m 1
 237 543 229 495 223 476 c 2
 140 206 l 1
 337 206 l 1
 255 476 l 2
 248 496 240 543 240 543 c 1
 237 543 l 1
EndSplineSet
Position2: "'cpsp' Capital Spacing lookup 0 subtable" dx=5 dy=0 dh=10 dv=0
EndChar

StartChar: AE
Encoding: 198 198 12
Width: 725
Flags: MW
HStem: 0 71<468 692 468 692 400 692> 135 71<156 355 156 370 129 355> 275 71<422 648 422 422> 536 70<362 362 362 687>
VStem: -1 693<0 71>
LayerCount: 2
Fore
SplineSet
362 536 m 1
 406 346 l 1
 648 346 l 1
 648 275 l 1
 422 275 l 1
 468 71 l 1
 692 71 l 1
 692 0 l 1
 400 0 l 1
 370 135 l 1
 129 135 l 1
 77 0 l 1
 -1 0 l 1
 247 606 l 1
 687 606 l 1
 687 536 l 1
 362 536 l 1
282 535 m 1
 276 516 271 499 263 480 c 2
 156 206 l 1
 355 206 l 1
 295 480 l 2
 291 499 289 516 286 535 c 1
 282 535 l 1
EndSplineSet
Position2: "'cpsp' Capital Spacing lookup 0 subtable" dx=5 dy=0 dh=10 dv=0
EndChar

StartChar: AEacute
Encoding: 508 508 13
Width: 725
Flags: MW
HStem: 0 71<468 692 468 692 400 692> 135 71<156 355 156 370 129 355> 275 71<422 648 422 422> 536 70<362 362 362 687> 664 117<396 552 396 552>
VStem: -1 693<0 71>
LayerCount: 2
Fore
SplineSet
457 664 m 1
 396 664 l 1
 472 781 l 1
 552 781 l 1
 552 778 l 1
 457 664 l 1
362 536 m 1
 406 346 l 1
 648 346 l 1
 648 275 l 1
 422 275 l 1
 468 71 l 1
 692 71 l 1
 692 0 l 1
 400 0 l 1
 370 135 l 1
 129 135 l 1
 77 0 l 1
 -1 0 l 1
 247 606 l 1
 687 606 l 1
 687 536 l 1
 362 536 l 1
282 535 m 1
 276 516 271 499 263 480 c 2
 156 206 l 1
 355 206 l 1
 295 480 l 2
 291 499 289 516 286 535 c 1
 282 535 l 1
EndSplineSet
Position2: "'cpsp' Capital Spacing lookup 0 subtable" dx=5 dy=0 dh=10 dv=0
EndChar

StartChar: B
Encoding: 66 66 14
Width: 484
Flags: MW
HStem: 0 71<135 277 277 287> 275 71<135 264 264 271 135 264> 536 70<135 270 135 135>
VStem: 57 78<71 275 346 536> 362 82<423 473> 377 81<138.5 198.5>
LayerCount: 2
Fore
SplineSet
287 606 m 2xf8
 377 606 444 547 444 458 c 0xf8
 444 388 403 337 351 318 c 1
 351 315 l 1
 411 296 458 239 458 161 c 0xf4
 458 59 380 0 287 0 c 2
 57 0 l 1
 57 606 l 1
 287 606 l 2xf8
264 346 m 2
 324 346 362 390 362 441 c 0
 362 505 325 536 270 536 c 2
 135 536 l 1
 135 346 l 1
 264 346 l 2
277 71 m 2xf4
 334 71 377 106 377 171 c 0
 377 226 336 275 271 275 c 2
 135 275 l 1
 135 71 l 1
 277 71 l 2xf4
EndSplineSet
Position2: "'cpsp' Capital Spacing lookup 0 subtable" dx=5 dy=0 dh=10 dv=0
EndChar

StartChar: C
Encoding: 67 67 15
Width: 523
Flags: MW
HStem: -11 72<223 316.5 223 338> 545 72<223 315.5>
VStem: 37 81<207 281 281 325 207 408.5> 410 77<164.5 217>
LayerCount: 2
Fore
SplineSet
487 217 m 1
 487 61 400 -11 276 -11 c 0
 118 -11 37 93 37 303 c 0
 37 514 118 617 276 617 c 0
 400 617 487 542 487 387 c 1
 408 387 l 1
 408 493 355 545 276 545 c 0
 170 545 118 473 118 325 c 2
 118 281 l 2
 118 133 170 61 276 61 c 0
 357 61 410 112 410 217 c 1
 487 217 l 1
EndSplineSet
Position2: "'cpsp' Capital Spacing lookup 0 subtable" dx=5 dy=0 dh=10 dv=0
EndChar

StartChar: Cacute
Encoding: 262 262 16
Width: 523
Flags: MW
HStem: -11 72<223 316.5 223 338> 545 72<223 315.5> 664 117<222 377 222 377>
VStem: 37 81<207 281 281 325 207 408.5> 410 77<164.5 217>
LayerCount: 2
Fore
SplineSet
283 664 m 1
 222 664 l 1
 298 781 l 1
 377 781 l 1
 378 778 l 1
 283 664 l 1
487 217 m 1
 487 61 400 -11 276 -11 c 0
 118 -11 37 93 37 303 c 0
 37 514 118 617 276 617 c 0
 400 617 487 542 487 387 c 1
 408 387 l 1
 408 493 355 545 276 545 c 0
 170 545 118 473 118 325 c 2
 118 281 l 2
 118 133 170 61 276 61 c 0
 357 61 410 112 410 217 c 1
 487 217 l 1
EndSplineSet
Position2: "'cpsp' Capital Spacing lookup 0 subtable" dx=5 dy=0 dh=10 dv=0
EndChar

StartChar: Ccaron
Encoding: 268 268 17
Width: 523
Flags: MW
HStem: -11 72<223 316.5 223 338> 545 72<223 315.5> 661 120<151 295 151 226>
VStem: 37 81<207 281 281 325 207 408.5> 410 77<164.5 217>
LayerCount: 2
Fore
SplineSet
151 781 m 1
 222 781 l 1
 262 711 l 1
 301 781 l 1
 372 781 l 1
 295 661 l 1
 226 661 l 1
 151 781 l 1
487 217 m 1
 487 61 400 -11 276 -11 c 0
 118 -11 37 93 37 303 c 0
 37 514 118 617 276 617 c 0
 400 617 487 542 487 387 c 1
 408 387 l 1
 408 493 355 545 276 545 c 0
 170 545 118 473 118 325 c 2
 118 281 l 2
 118 133 170 61 276 61 c 0
 357 61 410 112 410 217 c 1
 487 217 l 1
EndSplineSet
Position2: "'cpsp' Capital Spacing lookup 0 subtable" dx=5 dy=0 dh=10 dv=0
EndChar

StartChar: Ccedilla
Encoding: 199 199 18
Width: 523
Flags: MW
HStem: -161 50<240.5 246 246 255.5 179 271> -68 36<218 273> -11 72<276 316.5 223 338> 545 72<223 315.5>
VStem: 37 81<209 281 281 325 207 408.5> 278 67<-97.5 -82> 410 77<164.5 217>
LayerCount: 2
Fore
SplineSet
228 -7 m 1
 102 12 37 115 37 303 c 0
 37 514 118 617 276 617 c 0
 400 617 487 542 487 387 c 1
 408 387 l 1
 408 493 355 545 276 545 c 0
 170 545 118 473 118 325 c 2
 118 281 l 2
 118 133 170 61 276 61 c 0
 357 61 410 112 410 217 c 1
 487 217 l 1
 487 61 400 -11 276 -11 c 1xbe
 273 -32 l 1
 311 -34 345 -49 345 -89 c 0
 345 -149 289 -161 253 -161 c 0
 228 -161 200 -158 179 -154 c 1
 179 -111 l 1
 246 -111 l 2
 265 -111 278 -106 278 -89 c 0
 278 -75 271 -68 248 -68 c 2
 218 -68 l 1
 228 -7 l 1
EndSplineSet
Position2: "'cpsp' Capital Spacing lookup 0 subtable" dx=5 dy=0 dh=10 dv=0
EndChar

StartChar: Ccircumflex
Encoding: 264 264 19
Width: 523
Flags: MW
HStem: -11 72<223 316.5 223 338> 545 72<223 315.5> 660 120<151 296 151 296 227 301 227 372>
VStem: 37 81<207 281 281 325 207 408.5> 410 77<164.5 217>
LayerCount: 2
Fore
SplineSet
263 730 m 1
 222 660 l 1
 151 660 l 1
 227 780 l 1
 296 780 l 1
 372 660 l 1
 301 660 l 1
 263 730 l 1
487 217 m 1
 487 61 400 -11 276 -11 c 0
 118 -11 37 93 37 303 c 0
 37 514 118 617 276 617 c 0
 400 617 487 542 487 387 c 1
 408 387 l 1
 408 493 355 545 276 545 c 0
 170 545 118 473 118 325 c 2
 118 281 l 2
 118 133 170 61 276 61 c 0
 357 61 410 112 410 217 c 1
 487 217 l 1
EndSplineSet
Position2: "'cpsp' Capital Spacing lookup 0 subtable" dx=5 dy=0 dh=10 dv=0
EndChar

StartChar: Cdotaccent
Encoding: 266 266 20
Width: 523
Flags: MW
HStem: -11 72<223 316.5 223 338> 545 72<223 315.5> 697 84<223 301 223 301>
VStem: 37 81<207 281 281 325 207 408.5> 223 78<697 781 697 781> 410 77<164.5 217>
LayerCount: 2
Fore
SplineSet
223 781 m 1
 301 781 l 1
 301 697 l 1
 223 697 l 1
 223 781 l 1
487 217 m 1
 487 61 400 -11 276 -11 c 0
 118 -11 37 93 37 303 c 0
 37 514 118 617 276 617 c 0
 400 617 487 542 487 387 c 1
 408 387 l 1
 408 493 355 545 276 545 c 0
 170 545 118 473 118 325 c 2
 118 281 l 2
 118 133 170 61 276 61 c 0
 357 61 410 112 410 217 c 1
 487 217 l 1
EndSplineSet
Position2: "'cpsp' Capital Spacing lookup 0 subtable" dx=5 dy=0 dh=10 dv=0
EndChar

StartChar: D
Encoding: 68 68 21
Width: 523
Flags: MW
HStem: 0 71<140 243 243 250> 536 70<140 243 140 140>
VStem: 62 78<71 536 71 606 71 606> 399 81<290 334 334 401.5>
LayerCount: 2
Fore
SplineSet
250 606 m 2
 393 606 480 507 480 312 c 0
 480 104 393 0 250 0 c 2
 62 0 l 1
 62 606 l 1
 250 606 l 2
243 71 m 2
 339 71 399 142 399 290 c 2
 399 334 l 2
 399 469 339 536 243 536 c 2
 140 536 l 1
 140 71 l 1
 243 71 l 2
EndSplineSet
Position2: "'cpsp' Capital Spacing lookup 0 subtable" dx=5 dy=0 dh=10 dv=0
EndChar

StartChar: Eth
Encoding: 208 208 22
Width: 523
Flags: MW
HStem: 0 71<140 243 243 250> 286 56<4 62 4 62 140 278> 536 70<140 243 140 140>
VStem: 62 78<71 286 71 286 71 286 342 536> 399 81<290 334 334 401.5>
LayerCount: 2
Fore
SplineSet
62 606 m 1
 250 606 l 2
 393 606 480 507 480 312 c 0
 480 104 393 0 250 0 c 2
 62 0 l 1
 62 286 l 1
 4 286 l 1
 4 342 l 1
 62 342 l 1
 62 606 l 1
278 342 m 1
 278 286 l 1
 140 286 l 1
 140 71 l 1
 243 71 l 2
 339 71 399 142 399 290 c 2
 399 334 l 2
 399 469 339 536 243 536 c 2
 140 536 l 1
 140 342 l 1
 278 342 l 1
EndSplineSet
Position2: "'cpsp' Capital Spacing lookup 0 subtable" dx=5 dy=0 dh=10 dv=0
EndChar

StartChar: Dcaron
Encoding: 270 270 23
Width: 523
Flags: MW
HStem: 0 71<140 243 243 250> 536 70<140 243 140 140> 661 120<151 295 151 226>
VStem: 62 78<71 536 71 606 71 606> 399 81<290 334 334 401.5>
LayerCount: 2
Fore
SplineSet
151 781 m 1
 222 781 l 1
 262 711 l 1
 301 781 l 1
 372 781 l 1
 295 661 l 1
 226 661 l 1
 151 781 l 1
250 606 m 2
 393 606 480 507 480 312 c 0
 480 104 393 0 250 0 c 2
 62 0 l 1
 62 606 l 1
 250 606 l 2
243 71 m 2
 339 71 399 142 399 290 c 2
 399 334 l 2
 399 469 339 536 243 536 c 2
 140 536 l 1
 140 71 l 1
 243 71 l 2
EndSplineSet
Position2: "'cpsp' Capital Spacing lookup 0 subtable" dx=5 dy=0 dh=10 dv=0
EndChar

StartChar: Dcroat
Encoding: 272 272 24
Width: 523
Flags: MW
HStem: 0 71<140 243 243 250> 286 56<4 62 4 62 140 278> 536 70<140 243 140 140>
VStem: 62 78<71 286 71 286 71 286 342 536> 399 81<290 334 334 401.5>
LayerCount: 2
Fore
SplineSet
62 606 m 1
 250 606 l 2
 393 606 480 507 480 312 c 0
 480 104 393 0 250 0 c 2
 62 0 l 1
 62 286 l 1
 4 286 l 1
 4 342 l 1
 62 342 l 1
 62 606 l 1
278 342 m 1
 278 286 l 1
 140 286 l 1
 140 71 l 1
 243 71 l 2
 339 71 399 142 399 290 c 2
 399 334 l 2
 399 469 339 536 243 536 c 2
 140 536 l 1
 140 342 l 1
 278 342 l 1
EndSplineSet
Position2: "'cpsp' Capital Spacing lookup 0 subtable" dx=5 dy=0 dh=10 dv=0
EndChar

StartChar: E
Encoding: 69 69 25
Width: 484
Flags: MW
HStem: 0 71<140 441 140 441> 275 71<140 397 140 397> 536 70<140 436 140 140>
VStem: 62 78<71 275 346 536>
LayerCount: 2
Fore
SplineSet
436 606 m 1
 436 536 l 1
 140 536 l 1
 140 346 l 1
 397 346 l 1
 397 275 l 1
 140 275 l 1
 140 71 l 1
 441 71 l 1
 441 0 l 1
 62 0 l 1
 62 606 l 1
 436 606 l 1
EndSplineSet
Position2: "'cpsp' Capital Spacing lookup 0 subtable" dx=5 dy=0 dh=10 dv=0
EndChar

StartChar: Eacute
Encoding: 201 201 26
Width: 484
Flags: MW
HStem: 0 71<140 441 140 441> 275 71<140 397 140 397> 536 70<140 140 140 436> 664 117<189 345 189 345>
VStem: 62 78<71 275 346 536>
LayerCount: 2
Fore
SplineSet
250 664 m 1
 189 664 l 1
 265 781 l 1
 345 781 l 1
 346 778 l 1
 250 664 l 1
140 536 m 1
 140 346 l 1
 397 346 l 1
 397 275 l 1
 140 275 l 1
 140 71 l 1
 441 71 l 1
 441 0 l 1
 62 0 l 1
 62 606 l 1
 436 606 l 1
 436 536 l 1
 140 536 l 1
EndSplineSet
Position2: "'cpsp' Capital Spacing lookup 0 subtable" dx=5 dy=0 dh=10 dv=0
EndChar

StartChar: Ebreve
Encoding: 276 276 27
Width: 484
Flags: MW
HStem: 0 71<140 441 140 441> 275 71<140 397 140 397> 536 70<140 436 140 140> 695 56<226.5 256 226.5 275>
VStem: 62 78<71 275 346 536>
LayerCount: 2
Fore
SplineSet
351 781 m 1
 351 741 309 695 241 695 c 0
 174 695 133 741 133 781 c 1
 189 781 l 1
 192 768 212 751 241 751 c 0
 271 751 293 768 294 781 c 1
 351 781 l 1
436 606 m 1
 436 536 l 1
 140 536 l 1
 140 346 l 1
 397 346 l 1
 397 275 l 1
 140 275 l 1
 140 71 l 1
 441 71 l 1
 441 0 l 1
 62 0 l 1
 62 606 l 1
 436 606 l 1
EndSplineSet
Position2: "'cpsp' Capital Spacing lookup 0 subtable" dx=5 dy=0 dh=10 dv=0
EndChar

StartChar: Ecaron
Encoding: 282 282 28
Width: 484
Flags: MW
HStem: 0 71<140 441 140 441> 275 71<140 397 140 397> 536 70<140 436 140 140> 661 120<132 276 132 207>
VStem: 62 78<71 275 346 536>
LayerCount: 2
Fore
SplineSet
132 781 m 1
 202 781 l 1
 241 711 l 1
 281 781 l 1
 352 781 l 1
 276 661 l 1
 207 661 l 1
 132 781 l 1
436 606 m 1
 436 536 l 1
 140 536 l 1
 140 346 l 1
 397 346 l 1
 397 275 l 1
 140 275 l 1
 140 71 l 1
 441 71 l 1
 441 0 l 1
 62 0 l 1
 62 606 l 1
 436 606 l 1
EndSplineSet
Position2: "'cpsp' Capital Spacing lookup 0 subtable" dx=5 dy=0 dh=10 dv=0
EndChar

StartChar: Ecircumflex
Encoding: 202 202 29
Width: 484
Flags: MW
HStem: 0 71<140 441 140 441> 275 71<140 397 140 397> 536 70<140 436 140 140> 660 120<132 277 132 277 208 281 208 352>
VStem: 62 78<71 275 346 536>
LayerCount: 2
Fore
SplineSet
242 730 m 1
 202 660 l 1
 132 660 l 1
 208 780 l 1
 277 780 l 1
 352 660 l 1
 281 660 l 1
 242 730 l 1
436 606 m 1
 436 536 l 1
 140 536 l 1
 140 346 l 1
 397 346 l 1
 397 275 l 1
 140 275 l 1
 140 71 l 1
 441 71 l 1
 441 0 l 1
 62 0 l 1
 62 606 l 1
 436 606 l 1
EndSplineSet
Position2: "'cpsp' Capital Spacing lookup 0 subtable" dx=5 dy=0 dh=10 dv=0
EndChar

StartChar: Edieresis
Encoding: 203 203 30
Width: 484
Flags: MW
HStem: 0 71<140 441 140 441> 275 71<140 397 140 397> 536 70<140 140 140 436> 697 84<137 214 137 214 270 347 137 270>
VStem: 62 78<71 275 346 536> 137 77<697 781 697 781> 270 77<697 781 697 781>
LayerCount: 2
Fore
SplineSet
137 697 m 1xf6
 137 781 l 1
 214 781 l 1
 214 697 l 1
 137 697 l 1xf6
270 697 m 1
 270 781 l 1
 347 781 l 1
 347 697 l 1
 270 697 l 1
140 536 m 1xfa
 140 346 l 1
 397 346 l 1
 397 275 l 1
 140 275 l 1
 140 71 l 1
 441 71 l 1
 441 0 l 1
 62 0 l 1
 62 606 l 1
 436 606 l 1
 436 536 l 1
 140 536 l 1xfa
EndSplineSet
Position2: "'cpsp' Capital Spacing lookup 0 subtable" dx=5 dy=0 dh=10 dv=0
EndChar

StartChar: Edotaccent
Encoding: 278 278 31
Width: 484
Flags: MW
HStem: 0 71<140 441 140 441> 275 71<140 397 140 397> 536 70<140 436 140 140> 697 84<203 280 203 280>
VStem: 62 78<71 275 346 536> 203 77<697 781 697 781>
LayerCount: 2
Fore
SplineSet
203 781 m 1
 280 781 l 1
 280 697 l 1
 203 697 l 1
 203 781 l 1
436 606 m 1
 436 536 l 1
 140 536 l 1
 140 346 l 1
 397 346 l 1
 397 275 l 1
 140 275 l 1
 140 71 l 1
 441 71 l 1
 441 0 l 1
 62 0 l 1
 62 606 l 1
 436 606 l 1
EndSplineSet
Position2: "'cpsp' Capital Spacing lookup 0 subtable" dx=5 dy=0 dh=10 dv=0
EndChar

StartChar: Egrave
Encoding: 200 200 32
Width: 484
Flags: MW
HStem: 0 71<140 441 140 441> 275 71<140 397 140 397> 536 70<140 140 140 436> 664 117<139 233 139 294>
VStem: 62 78<71 275 346 536>
LayerCount: 2
Fore
SplineSet
233 664 m 1
 138 778 l 1
 139 781 l 1
 218 781 l 1
 294 664 l 1
 233 664 l 1
140 536 m 1
 140 346 l 1
 397 346 l 1
 397 275 l 1
 140 275 l 1
 140 71 l 1
 441 71 l 1
 441 0 l 1
 62 0 l 1
 62 606 l 1
 436 606 l 1
 436 536 l 1
 140 536 l 1
EndSplineSet
Position2: "'cpsp' Capital Spacing lookup 0 subtable" dx=5 dy=0 dh=10 dv=0
EndChar

StartChar: Emacron
Encoding: 274 274 33
Width: 484
Flags: MW
HStem: 0 71<140 441 140 441> 275 71<140 397 140 397> 536 70<140 436 140 140> 671 64<131 353 131 353>
VStem: 62 78<71 275 346 536> 131 222<671 735 671 735>
LayerCount: 2
Fore
SplineSet
131 735 m 1xf4
 353 735 l 1
 353 671 l 1
 131 671 l 1
 131 735 l 1xf4
436 606 m 1
 436 536 l 1
 140 536 l 1
 140 346 l 1
 397 346 l 1
 397 275 l 1
 140 275 l 1
 140 71 l 1
 441 71 l 1
 441 0 l 1
 62 0 l 1
 62 606 l 1xf8
 436 606 l 1
EndSplineSet
Position2: "'cpsp' Capital Spacing lookup 0 subtable" dx=5 dy=0 dh=10 dv=0
EndChar

StartChar: Eogonek
Encoding: 280 280 34
Width: 484
Flags: MW
HStem: -161 58<415 488> 0 71<140 384 140 441> 275 71<140 397 140 397> 536 70<140 436 140 140>
VStem: 62 78<71 275 346 536> 351 69<-67.5 -62.5>
LayerCount: 2
Fore
SplineSet
140 346 m 1
 397 346 l 1
 397 275 l 1
 140 275 l 1
 140 71 l 1
 441 71 l 1
 441 0 l 1
 431 -13 420 -34 420 -55 c 0
 420 -80 431 -103 461 -103 c 2
 488 -103 l 1
 488 -149 l 1
 469 -156 452 -161 434 -161 c 0
 396 -161 351 -142 351 -81 c 0
 351 -44 365 -20 384 0 c 1
 62 0 l 1
 62 606 l 1
 436 606 l 1
 436 536 l 1
 140 536 l 1
 140 346 l 1
EndSplineSet
Position2: "'cpsp' Capital Spacing lookup 0 subtable" dx=5 dy=0 dh=10 dv=0
EndChar

StartChar: F
Encoding: 70 70 35
Width: 443
Flags: MW
HStem: 269 70<140 380 140 380> 536 70<140 412 140 140>
VStem: 62 78<0 269 339 536>
LayerCount: 2
Fore
SplineSet
412 606 m 1
 412 536 l 1
 140 536 l 1
 140 339 l 1
 380 339 l 1
 380 269 l 1
 140 269 l 1
 140 0 l 1
 62 0 l 1
 62 606 l 1
 412 606 l 1
EndSplineSet
Position2: "'cpsp' Capital Spacing lookup 0 subtable" dx=5 dy=0 dh=10 dv=0
EndChar

StartChar: G
Encoding: 71 71 36
Width: 564
Flags: MW
HStem: -11 72<231 314.5> 248 68<270 427 270 507> 545 72<236.5 328>
VStem: 43 82<207 281 281 325 207 408.5> 427 80<233 248 248 248 400 450>
LayerCount: 2
Fore
SplineSet
270 316 m 1
 507 316 l 1
 507 0 l 1
 455 0 l 1
 438 67 l 1
 401 12 347 -11 282 -11 c 0
 129 -11 43 93 43 303 c 0
 43 514 135 617 286 617 c 0
 413 617 507 546 507 400 c 1
 427 400 l 1
 427 500 370 545 286 545 c 0
 187 545 125 473 125 325 c 2
 125 281 l 2
 125 133 180 61 282 61 c 0
 383 61 427 118 427 233 c 2
 427 248 l 1
 270 248 l 1
 270 316 l 1
EndSplineSet
Position2: "'cpsp' Capital Spacing lookup 0 subtable" dx=5 dy=0 dh=10 dv=0
EndChar

StartChar: Gbreve
Encoding: 286 286 37
Width: 564
Flags: MW
HStem: -11 72<231 314.5> 248 68<270 427 270 507> 545 72<236.5 328> 695 56<267.5 297 267.5 316>
VStem: 43 82<207 281 281 325 207 408.5> 427 80<233 248 248 248 400 450>
LayerCount: 2
Fore
SplineSet
392 781 m 1
 392 741 350 695 282 695 c 0
 215 695 173 741 173 781 c 1
 230 781 l 1
 232 768 253 751 282 751 c 0
 312 751 333 768 335 781 c 1
 392 781 l 1
270 316 m 1
 507 316 l 1
 507 0 l 1
 455 0 l 1
 438 67 l 1
 401 12 347 -11 282 -11 c 0
 129 -11 43 93 43 303 c 0
 43 514 135 617 286 617 c 0
 413 617 507 546 507 400 c 1
 427 400 l 1
 427 500 370 545 286 545 c 0
 187 545 125 473 125 325 c 2
 125 281 l 2
 125 133 180 61 282 61 c 0
 383 61 427 118 427 233 c 2
 427 248 l 1
 270 248 l 1
 270 316 l 1
EndSplineSet
Position2: "'cpsp' Capital Spacing lookup 0 subtable" dx=5 dy=0 dh=10 dv=0
EndChar

StartChar: Gcircumflex
Encoding: 284 284 38
Width: 564
Flags: MW
HStem: -11 72<231 314.5> 248 68<270 427 270 507> 545 72<236.5 328> 660 120<172 317 172 317 248 322 248 392>
VStem: 43 82<207 281 281 325 207 408.5> 427 80<233 248 248 248 400 450>
LayerCount: 2
Fore
SplineSet
243 660 m 1
 172 660 l 1
 248 780 l 1
 317 780 l 1
 392 660 l 1
 322 660 l 1
 283 730 l 1
 243 660 l 1
270 316 m 1
 507 316 l 1
 507 0 l 1
 455 0 l 1
 438 67 l 1
 401 12 347 -11 282 -11 c 0
 129 -11 43 93 43 303 c 0
 43 514 135 617 286 617 c 0
 413 617 507 546 507 400 c 1
 427 400 l 1
 427 500 370 545 286 545 c 0
 187 545 125 473 125 325 c 2
 125 281 l 2
 125 133 180 61 282 61 c 0
 383 61 427 118 427 233 c 2
 427 248 l 1
 270 248 l 1
 270 316 l 1
EndSplineSet
Position2: "'cpsp' Capital Spacing lookup 0 subtable" dx=5 dy=0 dh=10 dv=0
EndChar

StartChar: Gcommaaccent
Encoding: 290 290 39
Width: 564
Flags: MW
HStem: -133 80<245 275 245 320> -11 72<231 314.5> 248 68<270 427 270 507> 545 72<236.5 328>
VStem: 43 82<207 281 281 325 207 408.5> 245 75<-127 -53 -127 -53 -127 -53> 427 80<233 248 248 248 400 450>
LayerCount: 2
Fore
SplineSet
270 316 m 1
 507 316 l 1
 507 0 l 1
 455 0 l 1
 438 67 l 1
 401 12 347 -11 282 -11 c 0
 129 -11 43 93 43 303 c 0
 43 514 135 617 286 617 c 0
 413 617 507 546 507 400 c 1
 427 400 l 1
 427 500 370 545 286 545 c 0
 187 545 125 473 125 325 c 2
 125 281 l 2
 125 133 180 61 282 61 c 0
 383 61 427 118 427 233 c 2
 427 248 l 1
 270 248 l 1
 270 316 l 1
245 -53 m 1
 320 -53 l 1
 320 -127 l 1
 294 -196 l 1
 255 -196 l 1
 275 -133 l 1
 245 -133 l 1
 245 -53 l 1
EndSplineSet
Position2: "'cpsp' Capital Spacing lookup 0 subtable" dx=5 dy=0 dh=10 dv=0
EndChar

StartChar: Gdotaccent
Encoding: 288 288 40
Width: 564
Flags: MW
HStem: -11 72<231 314.5> 248 68<270 427 270 507> 545 72<236.5 328> 697 84<244 321 244 321>
VStem: 43 82<207 281 281 325 207 408.5> 244 77<697 781> 427 80<233 248 248 248 400 450>
LayerCount: 2
Fore
SplineSet
321 697 m 1
 244 697 l 1
 244 781 l 1
 321 781 l 1
 321 697 l 1
270 316 m 1
 507 316 l 1
 507 0 l 1
 455 0 l 1
 438 67 l 1
 401 12 347 -11 282 -11 c 0
 129 -11 43 93 43 303 c 0
 43 514 135 617 286 617 c 0
 413 617 507 546 507 400 c 1
 427 400 l 1
 427 500 370 545 286 545 c 0
 187 545 125 473 125 325 c 2
 125 281 l 2
 125 133 180 61 282 61 c 0
 383 61 427 118 427 233 c 2
 427 248 l 1
 270 248 l 1
 270 316 l 1
EndSplineSet
Position2: "'cpsp' Capital Spacing lookup 0 subtable" dx=5 dy=0 dh=10 dv=0
EndChar

StartChar: H
Encoding: 72 72 41
Width: 523
Flags: MW
HStem: 275 71<140 384 140 384> 586 20G<62 140 140 140 384 461 461 461>
VStem: 62 78<0 275 0 346 346 606> 384 77<0 275 275 275 346 606 0 606>
LayerCount: 2
Fore
SplineSet
384 0 m 1
 384 275 l 1
 140 275 l 1
 140 0 l 1
 62 0 l 1
 62 606 l 1
 140 606 l 1
 140 346 l 1
 384 346 l 1
 384 606 l 1
 461 606 l 1
 461 0 l 1
 384 0 l 1
EndSplineSet
Position2: "'cpsp' Capital Spacing lookup 0 subtable" dx=5 dy=0 dh=10 dv=0
EndChar

StartChar: Hbar
Encoding: 294 294 42
Width: 523
Flags: MW
HStem: 271 70<140 384 140 384> 433 64<18 62 18 62 140 384 461 506> 433 173<18 140 18 140 62 384 62 140>
VStem: 62 78<0 271 0 341 341 433 497 606> 384 77<0 271 271 271 341 433 497 606>
LayerCount: 2
Fore
SplineSet
461 0 m 1xb8
 384 0 l 1
 384 271 l 1
 140 271 l 1
 140 0 l 1
 62 0 l 1
 62 433 l 1
 18 433 l 1xb8
 18 497 l 1
 62 497 l 1xd8
 62 606 l 1
 140 606 l 1xb8
 140 497 l 1
 384 497 l 1xd8
 384 606 l 1
 461 606 l 1xb8
 461 497 l 1
 506 497 l 1xd8
 506 433 l 1
 461 433 l 1
 461 0 l 1xb8
140 433 m 1
 140 341 l 1
 384 341 l 1
 384 433 l 1
 140 433 l 1
EndSplineSet
Position2: "'cpsp' Capital Spacing lookup 0 subtable" dx=5 dy=0 dh=10 dv=0
EndChar

StartChar: Hcircumflex
Encoding: 292 292 43
Width: 523
Flags: MW
HStem: 275 71<140 384 140 384> 586 20G<62 140 140 140 384 461 461 461> 660 120<151 296 151 296 227 372 227 301>
VStem: 62 78<0 275 0 346 346 606> 384 77<0 275 275 275 346 606 0 606>
LayerCount: 2
Fore
SplineSet
301 660 m 1
 263 730 l 1
 222 660 l 1
 151 660 l 1
 227 780 l 1
 296 780 l 1
 372 660 l 1
 301 660 l 1
384 0 m 1
 384 275 l 1
 140 275 l 1
 140 0 l 1
 62 0 l 1
 62 606 l 1
 140 606 l 1
 140 346 l 1
 384 346 l 1
 384 606 l 1
 461 606 l 1
 461 0 l 1
 384 0 l 1
EndSplineSet
Position2: "'cpsp' Capital Spacing lookup 0 subtable" dx=5 dy=0 dh=10 dv=0
EndChar

StartChar: I
Encoding: 73 73 44
Width: 202
Flags: MW
HStem: 586 20G<62 140 140 140>
VStem: 62 78<0 606 0 606>
LayerCount: 2
Fore
SplineSet
62 606 m 1
 140 606 l 1
 140 0 l 1
 62 0 l 1
 62 606 l 1
EndSplineSet
Position2: "'cpsp' Capital Spacing lookup 0 subtable" dx=5 dy=0 dh=10 dv=0
EndChar

StartChar: IJ
Encoding: 306 306 45
Width: 564
Flags: MW
HStem: -11 72<338 382 338 406.5> 0 184<62 291 62 291> 586 20G<62 140 140 140 429 507 507 507>
VStem: 62 78<0 606 0 606> 213 78<144 184 114 184> 429 78<140 144 144 606>
LayerCount: 2
Fore
SplineSet
62 0 m 1x7c
 62 606 l 1
 140 606 l 1
 140 0 l 1
 62 0 l 1x7c
507 144 m 2xbc
 507 43 453 -11 360 -11 c 0xbc
 267 -11 213 43 213 144 c 2
 213 184 l 1
 291 184 l 1x7c
 291 140 l 2
 291 88 316 61 360 61 c 0
 404 61 429 88 429 140 c 2
 429 606 l 1
 507 606 l 1
 507 144 l 2xbc
EndSplineSet
Position2: "'cpsp' Capital Spacing lookup 0 subtable" dx=5 dy=0 dh=10 dv=0
EndChar

StartChar: Iacute
Encoding: 205 205 46
Width: 202
Flags: MW
HStem: 586 20G<62 140 140 140> 664 117<49 203 49 203>
VStem: 62 78<0 606 0 606>
LayerCount: 2
Fore
SplineSet
110 664 m 1
 49 664 l 1
 125 781 l 1
 203 781 l 1
 204 778 l 1
 110 664 l 1
62 0 m 1
 62 606 l 1
 140 606 l 1
 140 0 l 1
 62 0 l 1
EndSplineSet
Position2: "'cpsp' Capital Spacing lookup 0 subtable" dx=5 dy=0 dh=10 dv=0
EndChar

StartChar: Ibreve
Encoding: 300 300 47
Width: 202
Flags: MW
HStem: 586 20G<62 140 140 140> 695 56<86.5 116 86.5 135>
VStem: 62 78<0 606 0 606>
LayerCount: 2
Fore
SplineSet
210 781 m 1
 210 741 169 695 101 695 c 0
 34 695 -9 741 -9 781 c 1
 49 781 l 1
 51 768 72 751 101 751 c 0
 131 751 152 768 154 781 c 1
 210 781 l 1
62 606 m 1
 140 606 l 1
 140 0 l 1
 62 0 l 1
 62 606 l 1
EndSplineSet
Position2: "'cpsp' Capital Spacing lookup 0 subtable" dx=5 dy=0 dh=10 dv=0
EndChar

StartChar: Icircumflex
Encoding: 206 206 48
Width: 202
Flags: MW
HStem: 586 20G<62 140 140 140> 660 120<-10 136 -10 136 67 141 67 211>
VStem: 62 78<0 606 0 606 0 660>
LayerCount: 2
Fore
SplineSet
102 730 m 1
 62 660 l 1
 -10 660 l 1
 67 780 l 1
 136 780 l 1
 211 660 l 1
 141 660 l 1
 102 730 l 1
62 606 m 1
 140 606 l 1
 140 0 l 1
 62 0 l 1
 62 606 l 1
EndSplineSet
Position2: "'cpsp' Capital Spacing lookup 0 subtable" dx=5 dy=0 dh=10 dv=0
EndChar

StartChar: Idieresis
Encoding: 207 207 49
Width: 202
Flags: MW
HStem: 586 20G<62 140 140 140> 697 84<-4 73 -4 73 129 206 -4 129>
VStem: -4 77<697 781 697 781> 62 78<0 606 0 606> 129 77<697 781 697 781>
LayerCount: 2
Fore
SplineSet
-4 697 m 1xe8
 -4 781 l 1
 73 781 l 1
 73 697 l 1
 -4 697 l 1xe8
129 697 m 1
 129 781 l 1
 206 781 l 1
 206 697 l 1
 129 697 l 1
62 0 m 1xd0
 62 606 l 1
 140 606 l 1
 140 0 l 1
 62 0 l 1xd0
EndSplineSet
Position2: "'cpsp' Capital Spacing lookup 0 subtable" dx=5 dy=0 dh=10 dv=0
EndChar

StartChar: Idotaccent
Encoding: 304 304 50
Width: 202
Flags: MW
HStem: 586 20G<62 140 140 140> 697 84<63 140 63 140>
VStem: 62 78<0 606 0 606>
LayerCount: 2
Fore
SplineSet
63 781 m 1
 140 781 l 1
 140 697 l 1
 63 697 l 1
 63 781 l 1
62 606 m 1
 140 606 l 1
 140 0 l 1
 62 0 l 1
 62 606 l 1
EndSplineSet
Position2: "'cpsp' Capital Spacing lookup 0 subtable" dx=5 dy=0 dh=10 dv=0
EndChar

StartChar: Igrave
Encoding: 204 204 51
Width: 202
Flags: MW
HStem: 586 20G<62 140 140 140> 664 117<-2 93 -2 154>
VStem: 62 78<0 606 0 606>
LayerCount: 2
Fore
SplineSet
93 664 m 1
 -3 778 l 1
 -2 781 l 1
 78 781 l 1
 154 664 l 1
 93 664 l 1
62 0 m 1
 62 606 l 1
 140 606 l 1
 140 0 l 1
 62 0 l 1
EndSplineSet
Position2: "'cpsp' Capital Spacing lookup 0 subtable" dx=5 dy=0 dh=10 dv=0
EndChar

StartChar: Imacron
Encoding: 298 298 52
Width: 202
Flags: MW
HStem: 586 20G<62 140 140 140> 671 64<-10 212 -10 212>
VStem: 62 78<0 606 0 606>
LayerCount: 2
Fore
SplineSet
-10 735 m 1
 212 735 l 1
 212 671 l 1
 -10 671 l 1
 -10 735 l 1
62 606 m 1
 140 606 l 1
 140 0 l 1
 62 0 l 1
 62 606 l 1
EndSplineSet
Position2: "'cpsp' Capital Spacing lookup 0 subtable" dx=5 dy=0 dh=10 dv=0
EndChar

StartChar: Iogonek
Encoding: 302 302 53
Width: 202
Flags: MW
HStem: -161 58<114 187> 586 20G<62 140 140 140>
VStem: 62 78<0 606>
LayerCount: 2
Fore
SplineSet
140 0 m 1
 131 -13 118 -30 118 -55 c 0
 118 -80 130 -103 159 -103 c 2
 187 -103 l 1
 187 -149 l 1
 169 -156 151 -161 133 -161 c 0
 95 -161 50 -142 50 -81 c 0
 50 -43 64 -20 82 0 c 1
 62 0 l 1
 62 606 l 1
 140 606 l 1
 140 0 l 1
EndSplineSet
Position2: "'cpsp' Capital Spacing lookup 0 subtable" dx=5 dy=0 dh=10 dv=0
EndChar

StartChar: Itilde
Encoding: 296 296 54
Width: 202
Flags: MW
HStem: 586 20G<62 140 140 140> 689 65<136 156.5 131.5 181.5> 716 65<45 66 20.5 70.5>
VStem: 62 78<0 606 0 606>
LayerCount: 2
Fore
SplineSet
230 781 m 1xb0
 230 740 208 689 155 689 c 0xd0
 117 689 88 716 53 716 c 0xb0
 37 716 26 709 23 689 c 1
 -28 689 l 1xd0
 -28 729 -6 781 47 781 c 0xb0
 85 781 114 754 149 754 c 0xd0
 164 754 176 760 179 781 c 1
 230 781 l 1xb0
62 606 m 1
 140 606 l 1
 140 0 l 1
 62 0 l 1
 62 606 l 1
EndSplineSet
Position2: "'cpsp' Capital Spacing lookup 0 subtable" dx=5 dy=0 dh=10 dv=0
EndChar

StartChar: J
Encoding: 74 74 55
Width: 362
Flags: MW
HStem: -11 72<136 180 136 204.5> 586 20G<227 305 305 305>
VStem: 11 78<144 184 114 184> 227 78<140 144 144 606>
LayerCount: 2
Fore
SplineSet
305 144 m 2
 305 43 251 -11 158 -11 c 0
 65 -11 11 43 11 144 c 2
 11 184 l 1
 89 184 l 1
 89 140 l 2
 89 88 114 61 158 61 c 0
 202 61 227 88 227 140 c 2
 227 606 l 1
 305 606 l 1
 305 144 l 2
EndSplineSet
Position2: "'cpsp' Capital Spacing lookup 0 subtable" dx=5 dy=0 dh=10 dv=0
EndChar

StartChar: Jcircumflex
Encoding: 308 308 56
Width: 362
Flags: MW
HStem: -11 72<136 180 136 204.5> 586 20G<227 305 305 305> 660 120<156 301 156 301 232 377 232 307>
VStem: 11 78<144 184 114 184> 227 78<140 144 144 606>
LayerCount: 2
Fore
SplineSet
307 660 m 1
 268 730 l 1
 227 660 l 1
 156 660 l 1
 232 780 l 1
 301 780 l 1
 377 660 l 1
 307 660 l 1
305 144 m 2
 305 43 251 -11 158 -11 c 0
 65 -11 11 43 11 144 c 2
 11 184 l 1
 89 184 l 1
 89 140 l 2
 89 88 114 61 158 61 c 0
 202 61 227 88 227 140 c 2
 227 606 l 1
 305 606 l 1
 305 144 l 2
EndSplineSet
Position2: "'cpsp' Capital Spacing lookup 0 subtable" dx=5 dy=0 dh=10 dv=0
EndChar

StartChar: K
Encoding: 75 75 57
Width: 484
Flags: MW
HStem: 586 20G<62 140 140 140 380 467 467 467>
VStem: 62 78<0 188 286 606>
LayerCount: 2
Fore
SplineSet
467 606 m 1
 285 362 l 1
 473 0 l 1
 385 0 l 1
 237 296 l 1
 140 188 l 1
 140 0 l 1
 62 0 l 1
 62 606 l 1
 140 606 l 1
 140 286 l 1
 380 606 l 1
 467 606 l 1
EndSplineSet
Position2: "'cpsp' Capital Spacing lookup 0 subtable" dx=5 dy=0 dh=10 dv=0
EndChar

StartChar: Kcommaaccent
Encoding: 310 310 58
Width: 484
Flags: MW
HStem: -133 80<204 234 204 279> 586 20G<62 140 140 140 380 467 467 467>
VStem: 62 78<0 188 286 606> 204 75<-127 -53 -127 -53 -127 -53>
LayerCount: 2
Fore
SplineSet
467 606 m 1
 285 362 l 1
 473 0 l 1
 385 0 l 1
 237 296 l 1
 140 188 l 1
 140 0 l 1
 62 0 l 1
 62 606 l 1
 140 606 l 1
 140 286 l 1
 380 606 l 1
 467 606 l 1
215 -196 m 1
 234 -133 l 1
 204 -133 l 1
 204 -53 l 1
 279 -53 l 1
 279 -127 l 1
 254 -196 l 1
 215 -196 l 1
EndSplineSet
Position2: "'cpsp' Capital Spacing lookup 0 subtable" dx=5 dy=0 dh=10 dv=0
EndChar

StartChar: L
Encoding: 76 76 59
Width: 403
Flags: MW
HStem: 0 71<140 387 140 387> 586 20G<62 140 140 140>
VStem: 62 78<71 606 71 606 71 606>
LayerCount: 2
Fore
SplineSet
387 71 m 1
 387 0 l 1
 62 0 l 1
 62 606 l 1
 140 606 l 1
 140 71 l 1
 387 71 l 1
EndSplineSet
Position2: "'cpsp' Capital Spacing lookup 0 subtable" dx=5 dy=0 dh=10 dv=0
EndChar

StartChar: Lacute
Encoding: 313 313 60
Width: 403
Flags: MW
HStem: 0 71<140 387 140 387> 586 20G<62 140 140 140> 664 117<45 201 45 201>
VStem: 62 78<71 606 71 606 71 606>
LayerCount: 2
Fore
SplineSet
107 664 m 1
 45 664 l 1
 121 781 l 1
 201 781 l 1
 202 778 l 1
 107 664 l 1
387 71 m 1
 387 0 l 1
 62 0 l 1
 62 606 l 1
 140 606 l 1
 140 71 l 1
 387 71 l 1
EndSplineSet
Position2: "'cpsp' Capital Spacing lookup 0 subtable" dx=5 dy=0 dh=10 dv=0
EndChar

StartChar: Lcaron
Encoding: 317 317 61
Width: 403
Flags: MW
HStem: 0 71<140 387 140 387> 511 95<282 317>
VStem: 62 78<71 606 71 606 71 606> 282 88<519 606 519 606 519 606>
LayerCount: 2
Fore
SplineSet
387 71 m 1
 387 0 l 1
 62 0 l 1
 62 606 l 1
 140 606 l 1
 140 71 l 1
 387 71 l 1
328 401 m 1
 282 401 l 1
 317 511 l 1
 282 511 l 1
 282 606 l 1
 370 606 l 1
 370 519 l 1
 328 401 l 1
EndSplineSet
Position2: "'cpsp' Capital Spacing lookup 0 subtable" dx=5 dy=0 dh=10 dv=0
EndChar

StartChar: Lcommaaccent
Encoding: 315 315 62
Width: 403
Flags: MW
HStem: -133 80<164 194 164 240> 0 71<140 387 140 387> 586 20G<62 140 140 140>
VStem: 62 78<71 606 71 606 71 606> 164 76<-127 -53 -127 -53 -127 -53>
LayerCount: 2
Fore
SplineSet
387 71 m 1
 387 0 l 1
 62 0 l 1
 62 606 l 1
 140 606 l 1
 140 71 l 1
 387 71 l 1
214 -196 m 1xf8
 174 -196 l 1
 194 -133 l 1
 164 -133 l 1
 164 -53 l 1
 240 -53 l 1
 240 -127 l 1
 214 -196 l 1xf8
EndSplineSet
Position2: "'cpsp' Capital Spacing lookup 0 subtable" dx=5 dy=0 dh=10 dv=0
EndChar

StartChar: Ldot
Encoding: 319 319 63
Width: 403
Flags: MW
HStem: 0 71<140 387 140 387> 366 98<261 350 261 350> 586 20G<62 140 140 140>
VStem: 62 78<71 606 71 606 71 606> 261 89<366 464 366 464>
LayerCount: 2
Fore
SplineSet
387 71 m 1
 387 0 l 1
 62 0 l 1
 62 606 l 1
 140 606 l 1
 140 71 l 1
 387 71 l 1
261 366 m 1
 261 464 l 1
 350 464 l 1
 350 366 l 1
 261 366 l 1
EndSplineSet
Ligature2: "Ligature Substitution lookup 13 subtable" L periodcentered
Position2: "'cpsp' Capital Spacing lookup 0 subtable" dx=5 dy=0 dh=10 dv=0
EndChar

StartChar: Lslash
Encoding: 321 321 64
Width: 403
Flags: MW
HStem: 0 71<140 387 140 387> 586 20G<62 140 140 140>
VStem: 62 78<71 217 217 217 280 286 71 349 349 606>
LayerCount: 2
Fore
SplineSet
261 457 m 1
 261 392 l 1
 140 286 l 1
 140 71 l 1
 387 71 l 1
 387 0 l 1
 62 0 l 1
 62 217 l 1
 0 163 l 1
 0 225 l 1
 62 280 l 1
 62 606 l 1
 140 606 l 1
 140 349 l 1
 261 457 l 1
EndSplineSet
Position2: "'cpsp' Capital Spacing lookup 0 subtable" dx=5 dy=0 dh=10 dv=0
EndChar

StartChar: M
Encoding: 77 77 65
Width: 604
Flags: MW
HStem: 0 72<301 304 301 332 263 304> 534 72<119 123 119 119 474 477 474 474>
VStem: 55 70<0 440 0 606> 471 78<0 440 440 450.5>
LayerCount: 2
Fore
SplineSet
471 0 m 1
 471 440 l 2
 471 461 477 534 477 534 c 1
 474 534 l 1
 467 503 462 471 453 440 c 2
 332 0 l 1
 263 0 l 1
 141 440 l 2
 133 470 129 503 123 534 c 1
 119 534 l 1
 119 534 125 458 125 440 c 2
 125 0 l 1
 55 0 l 1
 55 606 l 1
 173 606 l 1
 280 209 l 2
 292 164 301 72 301 72 c 1
 304 72 l 1
 304 72 312 166 324 209 c 2
 431 606 l 1
 549 606 l 1
 549 0 l 1
 471 0 l 1
EndSplineSet
Position2: "'cpsp' Capital Spacing lookup 0 subtable" dx=5 dy=0 dh=10 dv=0
EndChar

StartChar: N
Encoding: 78 78 66
Width: 523
Flags: MW
HStem: 586 20G<62 129 129 129 392 461 461 461>
VStem: 62 70<0 386 0 606> 392 69<144 144 225 606 0 606>
LayerCount: 2
Fore
SplineSet
397 0 m 1
 170 386 l 2
 155 412 131 468 131 468 c 1
 128 467 l 1
 128 467 132 411 132 386 c 2
 132 0 l 1
 62 0 l 1
 62 606 l 1
 129 606 l 1
 354 225 l 2
 368 202 392 144 392 144 c 1
 394 145 l 1
 394 145 392 206 392 225 c 2
 392 606 l 1
 461 606 l 1
 461 0 l 1
 397 0 l 1
EndSplineSet
Position2: "'cpsp' Capital Spacing lookup 0 subtable" dx=5 dy=0 dh=10 dv=0
EndChar

StartChar: Nacute
Encoding: 323 323 67
Width: 523
Flags: MW
HStem: 586 20G<62 129 129 129 392 461 461 461> 664 117<209 364 209 364>
VStem: 62 70<0 386 0 606> 392 69<144 144 225 606 0 606>
LayerCount: 2
Fore
SplineSet
271 664 m 1
 209 664 l 1
 285 781 l 1
 364 781 l 1
 365 778 l 1
 271 664 l 1
397 0 m 1
 170 386 l 2
 155 412 131 468 131 468 c 1
 128 467 l 1
 128 467 132 411 132 386 c 2
 132 0 l 1
 62 0 l 1
 62 606 l 1
 129 606 l 1
 354 225 l 2
 368 202 392 144 392 144 c 1
 394 145 l 1
 394 145 392 206 392 225 c 2
 392 606 l 1
 461 606 l 1
 461 0 l 1
 397 0 l 1
EndSplineSet
Position2: "'cpsp' Capital Spacing lookup 0 subtable" dx=5 dy=0 dh=10 dv=0
EndChar

StartChar: Ncaron
Encoding: 327 327 68
Width: 523
Flags: MW
HStem: 586 20G<62 129 129 129 392 461 461 461> 661 120<151 226 151 295>
VStem: 62 70<0 386 0 606> 392 69<144 144 225 606 0 606>
LayerCount: 2
Fore
SplineSet
226 661 m 1
 151 781 l 1
 222 781 l 1
 262 711 l 1
 301 781 l 1
 372 781 l 1
 295 661 l 1
 226 661 l 1
397 0 m 1
 170 386 l 2
 155 412 131 468 131 468 c 1
 128 467 l 1
 128 467 132 411 132 386 c 2
 132 0 l 1
 62 0 l 1
 62 606 l 1
 129 606 l 1
 354 225 l 2
 368 202 392 144 392 144 c 1
 394 145 l 1
 394 145 392 206 392 225 c 2
 392 606 l 1
 461 606 l 1
 461 0 l 1
 397 0 l 1
EndSplineSet
Position2: "'cpsp' Capital Spacing lookup 0 subtable" dx=5 dy=0 dh=10 dv=0
EndChar

StartChar: Ncommaaccent
Encoding: 325 325 69
Width: 523
Flags: MW
HStem: -133 80<224 255 224 300> 586 20G<62 129 129 129 392 461 461 461>
VStem: 62 70<0 386 0 606> 224 76<-127 -53 -127 -53 -127 -53> 392 69<144 144 225 606 0 606>
LayerCount: 2
Fore
SplineSet
397 0 m 1
 170 386 l 2
 155 412 131 468 131 468 c 1
 128 467 l 1
 128 467 132 411 132 386 c 2
 132 0 l 1
 62 0 l 1
 62 606 l 1
 129 606 l 1
 354 225 l 2
 368 202 392 144 392 144 c 1
 394 145 l 1
 394 145 392 206 392 225 c 2
 392 606 l 1
 461 606 l 1
 461 0 l 1
 397 0 l 1
274 -196 m 1
 234 -196 l 1
 255 -133 l 1
 224 -133 l 1
 224 -53 l 1
 300 -53 l 1
 300 -127 l 1
 274 -196 l 1
EndSplineSet
Position2: "'cpsp' Capital Spacing lookup 0 subtable" dx=5 dy=0 dh=10 dv=0
EndChar

StartChar: Eng
Encoding: 330 330 70
Width: 523
Flags: MW
HStem: -161 61<359 361 309 405> 586 20G<62 129 129 129 389 461 461 461>
VStem: 62 70<0 386 0 606> 389 72<-57 -54 -54 13 13 13 225 606>
LayerCount: 2
Fore
SplineSet
461 -54 m 2
 461 -107 440 -161 370 -161 c 0
 348 -161 324 -156 309 -150 c 1
 309 -100 l 1
 347 -100 l 2
 375 -100 389 -85 389 -57 c 2
 389 13 l 1
 170 386 l 2
 155 412 131 468 131 468 c 1
 128 467 l 1
 128 467 132 411 132 386 c 2
 132 0 l 1
 62 0 l 1
 62 606 l 1
 129 606 l 1
 354 225 l 2
 368 202 392 144 392 144 c 1
 394 145 l 1
 394 145 392 206 389 225 c 2
 389 606 l 1
 461 606 l 1
 461 -54 l 2
EndSplineSet
Position2: "'cpsp' Capital Spacing lookup 0 subtable" dx=5 dy=0 dh=10 dv=0
EndChar

StartChar: Ntilde
Encoding: 209 209 71
Width: 523
Flags: MW
HStem: 586 20G<62 129 129 129 392 461 461 461> 689 65<296.5 317 292 342.5> 716 65<206 227 181.5 231>
VStem: 62 70<0 386 0 606> 392 69<144 144 225 606 0 606>
LayerCount: 2
Fore
SplineSet
391 781 m 1xb8
 391 740 369 689 316 689 c 0xd8
 277 689 248 716 214 716 c 0xb8
 198 716 187 709 184 689 c 1
 133 689 l 1xd8
 133 729 155 781 208 781 c 0xb8
 246 781 275 754 309 754 c 0xd8
 325 754 337 760 339 781 c 1
 391 781 l 1xb8
397 0 m 1
 170 386 l 2
 155 412 131 468 131 468 c 1
 128 467 l 1
 128 467 132 411 132 386 c 2
 132 0 l 1
 62 0 l 1
 62 606 l 1
 129 606 l 1
 354 225 l 2
 368 202 392 144 392 144 c 1
 394 145 l 1
 394 145 392 206 392 225 c 2
 392 606 l 1
 461 606 l 1
 461 0 l 1
 397 0 l 1
EndSplineSet
Position2: "'cpsp' Capital Spacing lookup 0 subtable" dx=5 dy=0 dh=10 dv=0
EndChar

StartChar: O
Encoding: 79 79 72
Width: 564
Flags: MW
HStem: -11 72<233.5 330.5 233.5 356.5> 545 72<233.5 330.5>
VStem: 43 82<207 281 281 325 207 408.5> 439 82<281 325 325 399>
LayerCount: 2
Fore
SplineSet
282 617 m 0
 431 617 521 514 521 303 c 0
 521 93 431 -11 282 -11 c 0
 133 -11 43 93 43 303 c 0
 43 514 133 617 282 617 c 0
439 325 m 2
 439 473 379 545 282 545 c 0
 185 545 125 473 125 325 c 2
 125 281 l 2
 125 133 185 61 282 61 c 0
 379 61 439 133 439 281 c 2
 439 325 l 2
EndSplineSet
Substitution2: "Single Substitution lookup 14 subtable" ordmasculine
Substitution2: "'aalt' Access All Alternates lookup 0 subtable" ordmasculine
Position2: "'cpsp' Capital Spacing lookup 0 subtable" dx=5 dy=0 dh=10 dv=0
EndChar

StartChar: Oacute
Encoding: 211 211 73
Width: 564
Flags: MW
HStem: -11 72<233.5 330.5 233.5 356.5> 545 72<233.5 330.5> 664 117<230 385 230 385>
VStem: 43 82<207 281 281 325 207 408.5> 439 82<281 325 325 399>
LayerCount: 2
Fore
SplineSet
291 664 m 1
 230 664 l 1
 306 781 l 1
 385 781 l 1
 386 778 l 1
 291 664 l 1
282 617 m 0
 431 617 521 514 521 303 c 0
 521 93 431 -11 282 -11 c 0
 133 -11 43 93 43 303 c 0
 43 514 133 617 282 617 c 0
439 325 m 2
 439 473 379 545 282 545 c 0
 185 545 125 473 125 325 c 2
 125 281 l 2
 125 133 185 61 282 61 c 0
 379 61 439 133 439 281 c 2
 439 325 l 2
EndSplineSet
Position2: "'cpsp' Capital Spacing lookup 0 subtable" dx=5 dy=0 dh=10 dv=0
EndChar

StartChar: Obreve
Encoding: 334 334 74
Width: 564
Flags: MW
HStem: -11 72<233.5 330.5 233.5 356.5> 545 72<233.5 330.5> 695 56<267.5 297 267.5 316>
VStem: 43 82<207 281 281 325 207 408.5> 439 82<281 325 325 399>
LayerCount: 2
Fore
SplineSet
392 781 m 1
 392 741 350 695 282 695 c 0
 215 695 173 741 173 781 c 1
 230 781 l 1
 232 768 253 751 282 751 c 0
 312 751 333 768 335 781 c 1
 392 781 l 1
282 617 m 0
 431 617 521 514 521 303 c 0
 521 93 431 -11 282 -11 c 0
 133 -11 43 93 43 303 c 0
 43 514 133 617 282 617 c 0
439 325 m 2
 439 473 379 545 282 545 c 0
 185 545 125 473 125 325 c 2
 125 281 l 2
 125 133 185 61 282 61 c 0
 379 61 439 133 439 281 c 2
 439 325 l 2
EndSplineSet
Position2: "'cpsp' Capital Spacing lookup 0 subtable" dx=5 dy=0 dh=10 dv=0
EndChar

StartChar: Ocircumflex
Encoding: 212 212 75
Width: 564
Flags: MW
HStem: -11 72<233.5 330.5 233.5 356.5> 545 72<233.5 330.5> 660 120<172 317 172 317 248 322 248 392>
VStem: 43 82<207 281 281 325 207 408.5> 439 82<281 325 325 399>
LayerCount: 2
Fore
SplineSet
283 730 m 1
 243 660 l 1
 172 660 l 1
 248 780 l 1
 317 780 l 1
 392 660 l 1
 322 660 l 1
 283 730 l 1
282 617 m 0
 431 617 521 514 521 303 c 0
 521 93 431 -11 282 -11 c 0
 133 -11 43 93 43 303 c 0
 43 514 133 617 282 617 c 0
439 325 m 2
 439 473 379 545 282 545 c 0
 185 545 125 473 125 325 c 2
 125 281 l 2
 125 133 185 61 282 61 c 0
 379 61 439 133 439 281 c 2
 439 325 l 2
EndSplineSet
Position2: "'cpsp' Capital Spacing lookup 0 subtable" dx=5 dy=0 dh=10 dv=0
EndChar

StartChar: Odieresis
Encoding: 214 214 76
Width: 564
Flags: MW
HStem: -11 72<233.5 330.5 233.5 356.5> 545 72<233.5 330.5> 697 84<178 255 178 255 310 387 178 310>
VStem: 43 82<207 281 281 325 207 408.5> 178 77<697 781 697 781> 310 77<697 781 697 781> 439 82<281 325 325 399>
LayerCount: 2
Fore
SplineSet
178 697 m 1
 178 781 l 1
 255 781 l 1
 255 697 l 1
 178 697 l 1
310 697 m 1
 310 781 l 1
 387 781 l 1
 387 697 l 1
 310 697 l 1
282 617 m 0
 431 617 521 514 521 303 c 0
 521 93 431 -11 282 -11 c 0
 133 -11 43 93 43 303 c 0
 43 514 133 617 282 617 c 0
439 325 m 2
 439 473 379 545 282 545 c 0
 185 545 125 473 125 325 c 2
 125 281 l 2
 125 133 185 61 282 61 c 0
 379 61 439 133 439 281 c 2
 439 325 l 2
EndSplineSet
Position2: "'cpsp' Capital Spacing lookup 0 subtable" dx=5 dy=0 dh=10 dv=0
EndChar

StartChar: Ograve
Encoding: 210 210 77
Width: 564
Flags: MW
HStem: -11 72<233.5 330.5 233.5 356.5> 545 72<233.5 330.5> 664 117<179 274 179 335>
VStem: 43 82<207 281 281 325 207 408.5> 439 82<281 325 325 399>
LayerCount: 2
Fore
SplineSet
274 664 m 1
 179 778 l 1
 179 781 l 1
 259 781 l 1
 335 664 l 1
 274 664 l 1
282 617 m 0
 431 617 521 514 521 303 c 0
 521 93 431 -11 282 -11 c 0
 133 -11 43 93 43 303 c 0
 43 514 133 617 282 617 c 0
439 325 m 2
 439 473 379 545 282 545 c 0
 185 545 125 473 125 325 c 2
 125 281 l 2
 125 133 185 61 282 61 c 0
 379 61 439 133 439 281 c 2
 439 325 l 2
EndSplineSet
Position2: "'cpsp' Capital Spacing lookup 0 subtable" dx=5 dy=0 dh=10 dv=0
EndChar

StartChar: Ohungarumlaut
Encoding: 336 336 78
Width: 564
Flags: MW
HStem: -11 72<233.5 330.5 233.5 356.5> 545 72<233.5 330.5> 664 117<253 258 198 331 313 313 313 331 368 374>
VStem: 43 82<207 281 281 325 207 408.5> 439 82<281 325 325 399>
LayerCount: 2
Fore
SplineSet
258 664 m 1
 198 664 l 1
 253 781 l 1
 331 781 l 1
 332 778 l 1
 258 664 l 1
374 664 m 1
 313 664 l 1
 368 781 l 1
 447 781 l 1
 448 778 l 1
 374 664 l 1
282 617 m 0
 431 617 521 514 521 303 c 0
 521 93 431 -11 282 -11 c 0
 133 -11 43 93 43 303 c 0
 43 514 133 617 282 617 c 0
439 325 m 2
 439 473 379 545 282 545 c 0
 185 545 125 473 125 325 c 2
 125 281 l 2
 125 133 185 61 282 61 c 0
 379 61 439 133 439 281 c 2
 439 325 l 2
EndSplineSet
Position2: "'cpsp' Capital Spacing lookup 0 subtable" dx=5 dy=0 dh=10 dv=0
EndChar

StartChar: Omacron
Encoding: 332 332 79
Width: 564
Flags: MW
HStem: -11 72<233.5 330.5 233.5 356.5> 545 72<233.5 330.5> 671 64<171 393 171 393>
VStem: 43 82<207 281 281 325 207 408.5> 171 222<671 735 671 735> 439 82<281 325 325 399>
LayerCount: 2
Fore
SplineSet
171 735 m 1
 393 735 l 1
 393 671 l 1
 171 671 l 1
 171 735 l 1
282 617 m 0
 431 617 521 514 521 303 c 0
 521 93 431 -11 282 -11 c 0
 133 -11 43 93 43 303 c 0
 43 514 133 617 282 617 c 0
439 325 m 2
 439 473 379 545 282 545 c 0
 185 545 125 473 125 325 c 2
 125 281 l 2
 125 133 185 61 282 61 c 0
 379 61 439 133 439 281 c 2
 439 325 l 2
EndSplineSet
Position2: "'cpsp' Capital Spacing lookup 0 subtable" dx=5 dy=0 dh=10 dv=0
EndChar

StartChar: Oslash
Encoding: 216 216 80
Width: 564
Flags: MW
HStem: -11 72<261.5 330.5 261.5 356.5> 545 72<233.5 302> 619 20G<464 521 521 521>
VStem: 43 82<251.5 281 281 325 251.5 408.5> 439 82<281 325 325 354.5>
LayerCount: 2
Fore
SplineSet
457 538 m 1
 498 486 521 408 521 303 c 0
 521 93 431 -11 282 -11 c 0
 226 -11 179 4 141 33 c 1
 101 -33 l 1
 44 -33 l 1
 107 67 l 1
 65 119 43 198 43 303 c 0
 43 514 133 617 282 617 c 0
 338 617 385 602 423 573 c 1xd8
 464 639 l 1
 521 639 l 1xb8
 457 538 l 1
382 507 m 1
 355 533 322 545 282 545 c 0
 185 545 125 473 125 325 c 2
 125 281 l 2
 125 222 134 175 152 140 c 1
 382 507 l 1
182 98 m 1
 208 73 241 61 282 61 c 0
 379 61 439 133 439 281 c 2
 439 325 l 2
 439 384 430 431 412 466 c 1
 182 98 l 1
EndSplineSet
Position2: "'cpsp' Capital Spacing lookup 0 subtable" dx=5 dy=0 dh=10 dv=0
EndChar

StartChar: Oslashacute
Encoding: 510 510 81
Width: 564
Flags: MW
HStem: -11 72<261.5 330.5 261.5 356.5> 545 72<233.5 302> 619 20G<464 521 521 521> 664 117<230 385 230 385>
VStem: 43 82<251.5 281 281 325 251.5 408.5> 439 82<281 325 325 354.5>
LayerCount: 2
Fore
SplineSet
291 664 m 1
 230 664 l 1
 306 781 l 1
 385 781 l 1
 386 778 l 1
 291 664 l 1
457 538 m 1
 498 486 521 408 521 303 c 0
 521 93 431 -11 282 -11 c 0
 226 -11 179 4 141 33 c 1
 101 -33 l 1
 44 -33 l 1
 107 67 l 1
 65 119 43 198 43 303 c 0
 43 514 133 617 282 617 c 0
 338 617 385 602 423 573 c 1xdc
 464 639 l 1
 521 639 l 1xbc
 457 538 l 1
382 507 m 1
 355 533 322 545 282 545 c 0
 185 545 125 473 125 325 c 2
 125 281 l 2
 125 222 134 175 152 140 c 1
 382 507 l 1
182 98 m 1
 208 73 241 61 282 61 c 0
 379 61 439 133 439 281 c 2
 439 325 l 2
 439 384 430 431 412 466 c 1
 182 98 l 1
EndSplineSet
Position2: "'cpsp' Capital Spacing lookup 0 subtable" dx=5 dy=0 dh=10 dv=0
EndChar

StartChar: Otilde
Encoding: 213 213 82
Width: 564
Flags: MW
HStem: -11 72<233.5 330.5 233.5 356.5> 545 72<233.5 330.5> 689 65<317 338 312.5 362.5> 716 65<226 247 201.5 251.5>
VStem: 43 82<207 281 281 325 207 408.5> 439 82<281 325 325 399>
LayerCount: 2
Fore
SplineSet
411 781 m 1xdc
 411 740 389 689 336 689 c 0xec
 298 689 269 716 234 716 c 0xdc
 218 716 207 709 204 689 c 1
 153 689 l 1xec
 153 729 175 781 228 781 c 0xdc
 266 781 295 754 330 754 c 0xec
 346 754 357 760 360 781 c 1
 411 781 l 1xdc
282 617 m 0
 431 617 521 514 521 303 c 0
 521 93 431 -11 282 -11 c 0
 133 -11 43 93 43 303 c 0
 43 514 133 617 282 617 c 0
439 325 m 2
 439 473 379 545 282 545 c 0
 185 545 125 473 125 325 c 2
 125 281 l 2
 125 133 185 61 282 61 c 0
 379 61 439 133 439 281 c 2
 439 325 l 2
EndSplineSet
Position2: "'cpsp' Capital Spacing lookup 0 subtable" dx=5 dy=0 dh=10 dv=0
EndChar

StartChar: OE
Encoding: 338 338 83
Width: 725
Flags: MW
HStem: -11 72<211 269.5> 0 71<453 693 453 693> 275 71<453 648 453 648> 536 70<453 688 453 453> 545 72<211 269.5 179 289>
VStem: 43 82<207 281 281 325 207 408.5> 376 77<0 275 60 275 71 325 346 399>
LayerCount: 2
Fore
SplineSet
376 60 m 1x76
 343 12 298 -11 241 -11 c 0
 117 -11 43 93 43 303 c 0
 43 514 117 617 241 617 c 0
 298 617 343 593 376 546 c 1xae
 376 606 l 1
 688 606 l 1
 688 536 l 1
 453 536 l 1
 453 346 l 1
 648 346 l 1
 648 275 l 1
 453 275 l 1
 453 71 l 1
 693 71 l 1
 693 0 l 1
 376 0 l 1
 376 60 l 1x76
376 325 m 2xae
 376 473 328 545 250 545 c 0
 172 545 125 473 125 325 c 2
 125 281 l 2
 125 133 172 61 250 61 c 0
 328 61 376 133 376 281 c 2
 376 325 l 2xae
EndSplineSet
Position2: "'cpsp' Capital Spacing lookup 0 subtable" dx=5 dy=0 dh=10 dv=0
EndChar

StartChar: P
Encoding: 80 80 84
Width: 484
Flags: MW
HStem: 250 71<140 276 276 278 140 276> 536 70<140 276 140 140>
VStem: 62 78<0 250 0 321 321 536> 378 82<397 462.5>
LayerCount: 2
Fore
SplineSet
62 0 m 1
 62 606 l 1
 278 606 l 2
 398 606 460 535 460 430 c 0
 460 323 391 250 278 250 c 2
 140 250 l 1
 140 0 l 1
 62 0 l 1
276 321 m 2
 338 321 378 364 378 430 c 0
 378 495 342 536 276 536 c 2
 140 536 l 1
 140 321 l 1
 276 321 l 2
EndSplineSet
Position2: "'cpsp' Capital Spacing lookup 0 subtable" dx=5 dy=0 dh=10 dv=0
EndChar

StartChar: Thorn
Encoding: 222 222 85
Width: 484
Flags: MW
HStem: 130 71<140 276 276 278 140 276> 415 71<140 276 140 278> 586 20G<62 140 140 140>
VStem: 62 78<0 130 201 415 486 606> 378 82<276.5 342>
LayerCount: 2
Fore
SplineSet
278 486 m 2
 398 486 460 415 460 309 c 0
 460 202 391 130 278 130 c 2
 140 130 l 1
 140 0 l 1
 62 0 l 1
 62 606 l 1
 140 606 l 1
 140 486 l 1
 278 486 l 2
140 201 m 1
 276 201 l 2
 338 201 378 244 378 309 c 0
 378 375 342 415 276 415 c 2
 140 415 l 1
 140 201 l 1
EndSplineSet
Position2: "'cpsp' Capital Spacing lookup 0 subtable" dx=5 dy=0 dh=10 dv=0
EndChar

StartChar: Q
Encoding: 81 81 86
Width: 564
Flags: MW
HStem: -11 72<233.5 282 282 293> 545 72<233.5 330.5>
VStem: 43 82<207 281 281 325 207 408.5> 439 82<281 325 325 399>
LayerCount: 2
Fore
SplineSet
282 -11 m 2
 133 -11 43 93 43 303 c 0
 43 514 133 617 282 617 c 0
 431 617 521 514 521 303 c 0
 521 142 468 43 377 6 c 1
 502 -110 l 1
 398 -110 l 1
 293 -11 l 1
 282 -11 l 2
125 281 m 2
 125 133 185 61 282 61 c 0
 379 61 439 133 439 281 c 2
 439 325 l 2
 439 473 379 545 282 545 c 0
 185 545 125 473 125 325 c 2
 125 281 l 2
EndSplineSet
Position2: "'cpsp' Capital Spacing lookup 0 subtable" dx=5 dy=0 dh=10 dv=0
EndChar

StartChar: R
Encoding: 82 82 87
Width: 523
Flags: MW
HStem: 268 71<140 302 140 303> 536 70<140 303 140 140>
VStem: 62 78<0 268 339 536> 406 81<408 468.5>
LayerCount: 2
Fore
SplineSet
306 606 m 2
 425 606 487 538 487 438 c 0
 487 363 447 305 379 282 c 1
 501 0 l 1
 415 0 l 1
 302 268 l 1
 140 268 l 1
 140 0 l 1
 62 0 l 1
 62 606 l 1
 306 606 l 2
140 339 m 1
 303 339 l 2
 365 339 406 378 406 438 c 0
 406 499 370 536 303 536 c 2
 140 536 l 1
 140 339 l 1
EndSplineSet
Position2: "'cpsp' Capital Spacing lookup 0 subtable" dx=5 dy=0 dh=10 dv=0
EndChar

StartChar: Racute
Encoding: 340 340 88
Width: 523
Flags: MW
HStem: 268 71<140 302 140 303> 536 70<140 303 140 140> 664 117<189 345 189 345>
VStem: 62 78<0 268 339 536> 406 81<408 468.5>
LayerCount: 2
Fore
SplineSet
251 664 m 1
 189 664 l 1
 265 781 l 1
 345 781 l 1
 346 778 l 1
 251 664 l 1
306 606 m 2
 425 606 487 538 487 438 c 0
 487 363 447 305 379 282 c 1
 501 0 l 1
 415 0 l 1
 302 268 l 1
 140 268 l 1
 140 0 l 1
 62 0 l 1
 62 606 l 1
 306 606 l 2
140 339 m 1
 303 339 l 2
 365 339 406 378 406 438 c 0
 406 499 370 536 303 536 c 2
 140 536 l 1
 140 339 l 1
EndSplineSet
Position2: "'cpsp' Capital Spacing lookup 0 subtable" dx=5 dy=0 dh=10 dv=0
EndChar

StartChar: Rcaron
Encoding: 344 344 89
Width: 523
Flags: MW
HStem: 268 71<140 302 140 303> 536 70<140 303 140 140> 661 120<151 226 151 295>
VStem: 62 78<0 268 339 536> 406 81<408 468.5>
LayerCount: 2
Fore
SplineSet
226 661 m 1
 151 781 l 1
 222 781 l 1
 262 711 l 1
 301 781 l 1
 372 781 l 1
 295 661 l 1
 226 661 l 1
306 606 m 2
 425 606 487 538 487 438 c 0
 487 363 447 305 379 282 c 1
 501 0 l 1
 415 0 l 1
 302 268 l 1
 140 268 l 1
 140 0 l 1
 62 0 l 1
 62 606 l 1
 306 606 l 2
140 339 m 1
 303 339 l 2
 365 339 406 378 406 438 c 0
 406 499 370 536 303 536 c 2
 140 536 l 1
 140 339 l 1
EndSplineSet
Position2: "'cpsp' Capital Spacing lookup 0 subtable" dx=5 dy=0 dh=10 dv=0
EndChar

StartChar: Rcommaaccent
Encoding: 342 342 90
Width: 523
Flags: MW
HStem: -133 80<224 255 224 300> 268 71<140 302 140 303> 536 70<140 303 140 140>
VStem: 62 78<0 268 339 536> 224 76<-127 -53 -127 -53 -127 -53> 406 81<408 468.5>
LayerCount: 2
Fore
SplineSet
306 606 m 2
 425 606 487 538 487 438 c 0
 487 363 447 305 379 282 c 1
 501 0 l 1
 415 0 l 1
 302 268 l 1
 140 268 l 1
 140 0 l 1
 62 0 l 1
 62 606 l 1
 306 606 l 2
140 339 m 1
 303 339 l 2
 365 339 406 378 406 438 c 0
 406 499 370 536 303 536 c 2
 140 536 l 1
 140 339 l 1
274 -196 m 1
 234 -196 l 1
 255 -133 l 1
 224 -133 l 1
 224 -53 l 1
 300 -53 l 1
 300 -127 l 1
 274 -196 l 1
EndSplineSet
Position2: "'cpsp' Capital Spacing lookup 0 subtable" dx=5 dy=0 dh=10 dv=0
EndChar

StartChar: S
Encoding: 83 83 91
Width: 484
Flags: MW
HStem: -11 72<202.5 277.5 202.5 299> 545 72<211 273.5>
VStem: 36 81<133.5 171 133.5 174.5> 49 82<388.5 490 388.5 510> 351 80<436 446 436 449 436 480> 364 82<129 238.5>
LayerCount: 2
Fore
SplineSet
118 189 m 1xe4
 117 171 l 1xe4
 117 96 168 61 237 61 c 0
 318 61 364 96 364 162 c 0xd4
 364 315 49 235 49 454 c 0
 49 566 135 617 241 617 c 0
 347 617 431 568 431 446 c 2
 431 436 l 1
 351 436 l 1
 351 449 l 2xd8
 351 511 304 545 243 545 c 0
 179 545 131 519 131 461 c 0xd4
 131 316 446 388 446 175 c 0
 446 39 358 -11 240 -11 c 0
 130 -11 36 38 36 171 c 0
 36 178 37 187 37 189 c 2
 118 189 l 1xe4
EndSplineSet
Position2: "'cpsp' Capital Spacing lookup 0 subtable" dx=5 dy=0 dh=10 dv=0
EndChar

StartChar: Sacute
Encoding: 346 346 92
Width: 484
Flags: MW
HStem: -11 72<202.5 277.5 202.5 299> 545 72<211 273.5> 664 117<189 345 189 345>
VStem: 36 81<133.5 171 133.5 174.5> 49 82<388.5 490 388.5 510> 351 80<436 446 436 449 436 480> 364 82<129 238.5>
LayerCount: 2
Fore
SplineSet
250 664 m 1xea
 189 664 l 1
 265 781 l 1
 345 781 l 1
 346 778 l 1
 250 664 l 1xea
118 189 m 1xf2
 117 171 l 1xf2
 117 96 168 61 237 61 c 0
 318 61 364 96 364 162 c 0xea
 364 315 49 235 49 454 c 0
 49 566 135 617 241 617 c 0
 347 617 431 568 431 446 c 2
 431 436 l 1
 351 436 l 1
 351 449 l 2xec
 351 511 304 545 243 545 c 0
 179 545 131 519 131 461 c 0xea
 131 316 446 388 446 175 c 0
 446 39 358 -11 240 -11 c 0
 130 -11 36 38 36 171 c 0
 36 178 37 187 37 189 c 2
 118 189 l 1xf2
EndSplineSet
Position2: "'cpsp' Capital Spacing lookup 0 subtable" dx=5 dy=0 dh=10 dv=0
EndChar

StartChar: Scaron
Encoding: 352 352 93
Width: 484
Flags: MW
HStem: -11 72<202.5 277.5 202.5 299> 545 72<211 273.5> 661 120<132 276 132 207>
VStem: 36 81<133.5 171 133.5 174.5> 49 82<388.5 490 388.5 510> 351 80<436 446 436 449 436 480> 364 82<129 238.5>
LayerCount: 2
Fore
SplineSet
132 781 m 1xea
 202 781 l 1
 241 711 l 1
 281 781 l 1
 352 781 l 1
 276 661 l 1
 207 661 l 1
 132 781 l 1xea
118 189 m 1xf2
 117 171 l 1xf2
 117 96 168 61 237 61 c 0
 318 61 364 96 364 162 c 0xea
 364 315 49 235 49 454 c 0
 49 566 135 617 241 617 c 0
 347 617 431 568 431 446 c 2
 431 436 l 1
 351 436 l 1
 351 449 l 2xec
 351 511 304 545 243 545 c 0
 179 545 131 519 131 461 c 0xea
 131 316 446 388 446 175 c 0
 446 39 358 -11 240 -11 c 0
 130 -11 36 38 36 171 c 0
 36 178 37 187 37 189 c 2
 118 189 l 1xf2
EndSplineSet
Position2: "'cpsp' Capital Spacing lookup 0 subtable" dx=5 dy=0 dh=10 dv=0
EndChar

StartChar: Scedilla
Encoding: 350 350 94
Width: 484
Flags: MW
HStem: -161 50<220.5 226 226 236 159 251> -68 36<199 254> -9 70<208 208> 545 72<211 273.5>
VStem: 36 81<133.5 171 133.5 174.5> 49 82<388.5 490 388.5 510> 203.5 51.5 258 67<-97.5 -82> 351 80<436 446 436 449 436 480> 364 82<129 238.5>
LayerCount: 2
Fore
SplineSet
118 189 m 1xf840
 117 171 l 1xd840
 117 96 168 61 237 61 c 0
 318 61 364 96 364 162 c 0xd440
 364 315 49 235 49 454 c 0
 49 566 135 617 241 617 c 0
 347 617 431 568 431 446 c 2
 431 436 l 1
 351 436 l 1
 351 449 l 2xd480
 351 511 304 545 243 545 c 0
 179 545 131 519 131 461 c 0
 131 316 446 388 446 175 c 0
 446 45 366 -5 256 -10 c 1xd640
 254 -32 l 1
 292 -34 325 -49 325 -89 c 0
 325 -149 269 -161 233 -161 c 0
 208 -161 180 -158 159 -154 c 1
 159 -111 l 1
 226 -111 l 2
 246 -111 258 -106 258 -89 c 0
 258 -75 251 -68 228 -68 c 2xd540
 199 -68 l 1xd640
 208 -9 l 1
 111 0 36 51 36 171 c 0
 36 178 37 187 37 189 c 2
 118 189 l 1xf840
EndSplineSet
Substitution2: "'locl' Localized Forms in Latin lookup 2 subtable" Scommaaccent
Substitution2: "'locl' Localized Forms in Latin lookup 1 subtable" Scommaaccent
Substitution2: "'aalt' Access All Alternates lookup 0 subtable" Scommaaccent
Position2: "'cpsp' Capital Spacing lookup 0 subtable" dx=5 dy=0 dh=10 dv=0
EndChar

StartChar: Scircumflex
Encoding: 348 348 95
Width: 484
Flags: MW
HStem: -11 72<202.5 277.5 202.5 299> 545 72<211 273.5> 660 120<132 277 132 277 208 281 208 352>
VStem: 36 81<133.5 171 133.5 174.5> 49 82<388.5 490 388.5 510> 351 80<436 446 436 449 436 480> 364 82<129 238.5>
LayerCount: 2
Fore
SplineSet
242 730 m 1xea
 202 660 l 1
 132 660 l 1
 208 780 l 1
 277 780 l 1
 352 660 l 1
 281 660 l 1
 242 730 l 1xea
118 189 m 1xf2
 117 171 l 1xf2
 117 96 168 61 237 61 c 0
 318 61 364 96 364 162 c 0xea
 364 315 49 235 49 454 c 0
 49 566 135 617 241 617 c 0
 347 617 431 568 431 446 c 2
 431 436 l 1
 351 436 l 1
 351 449 l 2xec
 351 511 304 545 243 545 c 0
 179 545 131 519 131 461 c 0xea
 131 316 446 388 446 175 c 0
 446 39 358 -11 240 -11 c 0
 130 -11 36 38 36 171 c 0
 36 178 37 187 37 189 c 2
 118 189 l 1xf2
EndSplineSet
Position2: "'cpsp' Capital Spacing lookup 0 subtable" dx=5 dy=0 dh=10 dv=0
EndChar

StartChar: Scommaaccent
Encoding: 536 536 96
Width: 484
Flags: MW
HStem: -133 80<204 234 204 279> -11 72<202.5 277.5 202.5 299> 545 72<211 273.5>
VStem: 36 81<133.5 171 133.5 174.5> 49 82<388.5 490 388.5 510> 204 75<-127 -53 -127 -53 -127 -53> 351 80<436 446 436 449 436 480> 364 82<129 238.5>
LayerCount: 2
Fore
SplineSet
117 171 m 1xf5
 117 96 168 61 237 61 c 0
 318 61 364 96 364 162 c 0xed
 364 315 49 235 49 454 c 0
 49 566 135 617 241 617 c 0
 347 617 431 568 431 446 c 2
 431 436 l 1
 351 436 l 1
 351 449 l 2xee
 351 511 304 545 243 545 c 0
 179 545 131 519 131 461 c 0xed
 131 316 446 388 446 175 c 0
 446 39 358 -11 240 -11 c 0
 130 -11 36 38 36 171 c 0
 36 178 37 187 37 189 c 2
 118 189 l 1
 117 171 l 1xf5
213 -196 m 1xed
 234 -133 l 1
 204 -133 l 1
 204 -53 l 1
 279 -53 l 1
 279 -127 l 1
 253 -196 l 1
 213 -196 l 1xed
EndSplineSet
Position2: "'cpsp' Capital Spacing lookup 0 subtable" dx=5 dy=0 dh=10 dv=0
EndChar

StartChar: T
Encoding: 84 84 97
Width: 443
Flags: MW
HStem: 536 70<17 182 17 425 260 425 260 260>
VStem: 182 78<0 536 0 536>
LayerCount: 2
Fore
SplineSet
260 536 m 1
 260 0 l 1
 182 0 l 1
 182 536 l 1
 17 536 l 1
 17 606 l 1
 425 606 l 1
 425 536 l 1
 260 536 l 1
EndSplineSet
Position2: "'cpsp' Capital Spacing lookup 0 subtable" dx=5 dy=0 dh=10 dv=0
EndChar

StartChar: Tbar
Encoding: 358 358 98
Width: 443
Flags: MW
HStem: 283 64<68 182 68 182 260 376> 536 70<17 182 17 425 260 425 260 260>
VStem: 182 78<0 283 0 283 347 536>
LayerCount: 2
Fore
SplineSet
260 536 m 1
 260 347 l 1
 376 347 l 1
 376 283 l 1
 260 283 l 1
 260 0 l 1
 182 0 l 1
 182 283 l 1
 68 283 l 1
 68 347 l 1
 182 347 l 1
 182 536 l 1
 17 536 l 1
 17 606 l 1
 425 606 l 1
 425 536 l 1
 260 536 l 1
EndSplineSet
Position2: "'cpsp' Capital Spacing lookup 0 subtable" dx=5 dy=0 dh=10 dv=0
EndChar

StartChar: Tcaron
Encoding: 356 356 99
Width: 443
Flags: MW
HStem: 536 70<17 182 17 425 260 425 260 260> 661 120<111 187 111 255>
VStem: 182 78<0 536 0 536>
LayerCount: 2
Fore
SplineSet
187 661 m 1
 111 781 l 1
 182 781 l 1
 221 711 l 1
 261 781 l 1
 331 781 l 1
 255 661 l 1
 187 661 l 1
260 536 m 1
 260 0 l 1
 182 0 l 1
 182 536 l 1
 17 536 l 1
 17 606 l 1
 425 606 l 1
 425 536 l 1
 260 536 l 1
EndSplineSet
Position2: "'cpsp' Capital Spacing lookup 0 subtable" dx=5 dy=0 dh=10 dv=0
EndChar

StartChar: Tcedilla
Encoding: 354 354 100
Width: 443
Flags: MW
HStem: -161 50<200.5 206 206 215.5 139 231> -68 36<179 233> 536 70<17 182 17 425 260 260 260 425>
VStem: 182 78<0 536 0 536> 238 67<-97.5 -82>
LayerCount: 2
Fore
SplineSet
238 0 m 1xf0
 233 -32 l 1
 271 -34 305 -49 305 -89 c 0
 305 -149 249 -161 213 -161 c 0
 188 -161 160 -158 139 -154 c 1
 139 -111 l 1
 206 -111 l 2
 225 -111 238 -106 238 -89 c 0
 238 -75 231 -68 208 -68 c 2xe8
 179 -68 l 1
 189 0 l 1
 182 0 l 1
 182 536 l 1
 17 536 l 1
 17 606 l 1
 425 606 l 1
 425 536 l 1
 260 536 l 1
 260 0 l 1
 238 0 l 1xf0
EndSplineSet
Substitution2: "'locl' Localized Forms in Latin lookup 2 subtable" uni021A
Substitution2: "'locl' Localized Forms in Latin lookup 1 subtable" uni021A
Substitution2: "'aalt' Access All Alternates lookup 0 subtable" uni021A
Position2: "'cpsp' Capital Spacing lookup 0 subtable" dx=5 dy=0 dh=10 dv=0
EndChar

StartChar: uni021A
Encoding: 538 538 101
Width: 443
Flags: MW
HStem: -133 80<184 214 184 259> 536 70<17 182 17 425 260 425 260 260>
VStem: 182 78<0 536 0 536>
LayerCount: 2
Fore
SplineSet
260 536 m 1
 260 0 l 1
 182 0 l 1
 182 536 l 1
 17 536 l 1
 17 606 l 1
 425 606 l 1
 425 536 l 1
 260 536 l 1
233 -196 m 1
 194 -196 l 1
 214 -133 l 1
 184 -133 l 1
 184 -53 l 1
 259 -53 l 1
 259 -127 l 1
 233 -196 l 1
EndSplineSet
Position2: "'cpsp' Capital Spacing lookup 0 subtable" dx=5 dy=0 dh=10 dv=0
EndChar

StartChar: U
Encoding: 85 85 102
Width: 523
Flags: MW
HStem: -11 72<224 300 224 324> 586 20G<62 140 140 140 384 461 461 461>
VStem: 62 78<197 606> 384 77<193 197 197 606>
LayerCount: 2
Fore
SplineSet
461 197 m 2
 461 61 386 -11 262 -11 c 0
 137 -11 62 61 62 197 c 2
 62 606 l 1
 140 606 l 1
 140 193 l 2
 140 107 186 61 262 61 c 0
 338 61 384 107 384 193 c 2
 384 606 l 1
 461 606 l 1
 461 197 l 2
EndSplineSet
Position2: "'cpsp' Capital Spacing lookup 0 subtable" dx=5 dy=0 dh=10 dv=0
EndChar

StartChar: Uacute
Encoding: 218 218 103
Width: 523
Flags: MW
HStem: -11 72<224 300 224 324> 586 20G<62 140 140 140 384 461 461 461> 664 117<209 364 209 364>
VStem: 62 78<197 606> 384 77<193 197 197 606>
LayerCount: 2
Fore
SplineSet
271 664 m 1
 209 664 l 1
 285 781 l 1
 364 781 l 1
 365 778 l 1
 271 664 l 1
461 197 m 2
 461 61 386 -11 262 -11 c 0
 137 -11 62 61 62 197 c 2
 62 606 l 1
 140 606 l 1
 140 193 l 2
 140 107 186 61 262 61 c 0
 338 61 384 107 384 193 c 2
 384 606 l 1
 461 606 l 1
 461 197 l 2
EndSplineSet
Position2: "'cpsp' Capital Spacing lookup 0 subtable" dx=5 dy=0 dh=10 dv=0
EndChar

StartChar: Ubreve
Encoding: 364 364 104
Width: 523
Flags: MW
HStem: -11 72<224 300 224 324> 586 20G<62 140 140 140 384 461 461 461> 695 56<247 277 247 296>
VStem: 62 78<197 606> 384 77<193 197 197 606>
LayerCount: 2
Fore
SplineSet
371 781 m 1
 371 741 330 695 262 695 c 0
 194 695 152 741 152 781 c 1
 210 781 l 1
 212 768 232 751 262 751 c 0
 292 751 313 768 315 781 c 1
 371 781 l 1
461 197 m 2
 461 61 386 -11 262 -11 c 0
 137 -11 62 61 62 197 c 2
 62 606 l 1
 140 606 l 1
 140 193 l 2
 140 107 186 61 262 61 c 0
 338 61 384 107 384 193 c 2
 384 606 l 1
 461 606 l 1
 461 197 l 2
EndSplineSet
Position2: "'cpsp' Capital Spacing lookup 0 subtable" dx=5 dy=0 dh=10 dv=0
EndChar

StartChar: Ucircumflex
Encoding: 219 219 105
Width: 523
Flags: MW
HStem: -11 72<224 300 224 324> 586 20G<62 140 140 140 384 461 461 461> 660 120<151 296 151 296 227 372 227 301>
VStem: 62 78<197 606> 384 77<193 197 197 606>
LayerCount: 2
Fore
SplineSet
301 660 m 1
 263 730 l 1
 222 660 l 1
 151 660 l 1
 227 780 l 1
 296 780 l 1
 372 660 l 1
 301 660 l 1
461 197 m 2
 461 61 386 -11 262 -11 c 0
 137 -11 62 61 62 197 c 2
 62 606 l 1
 140 606 l 1
 140 193 l 2
 140 107 186 61 262 61 c 0
 338 61 384 107 384 193 c 2
 384 606 l 1
 461 606 l 1
 461 197 l 2
EndSplineSet
Position2: "'cpsp' Capital Spacing lookup 0 subtable" dx=5 dy=0 dh=10 dv=0
EndChar

StartChar: Udieresis
Encoding: 220 220 106
Width: 523
Flags: MW
HStem: -11 72<224 300 224 324> 586 20G<62 140 140 140 384 461 461 461> 697 84<156 233 156 233 289 367 156 289>
VStem: 62 78<197 606> 156 77<697 781 697 781> 289 78<697 781 697 781> 384 77<193 197 197 606>
LayerCount: 2
Fore
SplineSet
156 697 m 1
 156 781 l 1
 233 781 l 1
 233 697 l 1
 156 697 l 1
289 697 m 1
 289 781 l 1
 367 781 l 1
 367 697 l 1
 289 697 l 1
461 197 m 2xf2
 461 61 386 -11 262 -11 c 0
 137 -11 62 61 62 197 c 2
 62 606 l 1
 140 606 l 1
 140 193 l 2
 140 107 186 61 262 61 c 0
 338 61 384 107 384 193 c 2
 384 606 l 1
 461 606 l 1
 461 197 l 2xf2
EndSplineSet
Position2: "'cpsp' Capital Spacing lookup 0 subtable" dx=5 dy=0 dh=10 dv=0
EndChar

StartChar: Ugrave
Encoding: 217 217 107
Width: 523
Flags: MW
HStem: -11 72<224 300 224 324> 586 20G<62 140 140 140 384 461 461 461> 664 117<158 254 158 314>
VStem: 62 78<197 606> 384 77<193 197 197 606>
LayerCount: 2
Fore
SplineSet
254 664 m 1
 157 778 l 1
 158 781 l 1
 239 781 l 1
 314 664 l 1
 254 664 l 1
461 197 m 2
 461 61 386 -11 262 -11 c 0
 137 -11 62 61 62 197 c 2
 62 606 l 1
 140 606 l 1
 140 193 l 2
 140 107 186 61 262 61 c 0
 338 61 384 107 384 193 c 2
 384 606 l 1
 461 606 l 1
 461 197 l 2
EndSplineSet
Position2: "'cpsp' Capital Spacing lookup 0 subtable" dx=5 dy=0 dh=10 dv=0
EndChar

StartChar: Uhungarumlaut
Encoding: 368 368 108
Width: 523
Flags: MW
HStem: -11 72<224 300 224 324> 586 20G<62 140 140 140 384 461 461 461> 664 117<232 238 177 311 293 293 293 311 347 353>
VStem: 62 78<197 606> 384 77<193 197 197 606>
LayerCount: 2
Fore
SplineSet
238 664 m 1
 177 664 l 1
 232 781 l 1
 311 781 l 1
 312 778 l 1
 238 664 l 1
353 664 m 1
 293 664 l 1
 347 781 l 1
 426 781 l 1
 427 778 l 1
 353 664 l 1
461 197 m 2
 461 61 386 -11 262 -11 c 0
 137 -11 62 61 62 197 c 2
 62 606 l 1
 140 606 l 1
 140 193 l 2
 140 107 186 61 262 61 c 0
 338 61 384 107 384 193 c 2
 384 606 l 1
 461 606 l 1
 461 197 l 2
EndSplineSet
Position2: "'cpsp' Capital Spacing lookup 0 subtable" dx=5 dy=0 dh=10 dv=0
EndChar

StartChar: Umacron
Encoding: 362 362 109
Width: 523
Flags: MW
HStem: -11 72<224 300 224 324> 586 20G<62 140 140 140 384 461 461 461> 671 64<151 372 151 372>
VStem: 62 78<197 606> 151 221<671 735 671 735> 384 77<193 197 197 606>
LayerCount: 2
Fore
SplineSet
151 671 m 1
 151 735 l 1
 372 735 l 1
 372 671 l 1
 151 671 l 1
461 197 m 2xf4
 461 61 386 -11 262 -11 c 0
 137 -11 62 61 62 197 c 2
 62 606 l 1
 140 606 l 1
 140 193 l 2
 140 107 186 61 262 61 c 0
 338 61 384 107 384 193 c 2
 384 606 l 1
 461 606 l 1
 461 197 l 2xf4
EndSplineSet
Position2: "'cpsp' Capital Spacing lookup 0 subtable" dx=5 dy=0 dh=10 dv=0
EndChar

StartChar: Uogonek
Encoding: 370 370 110
Width: 523
Flags: MW
HStem: -161 58<322 395> -11 72<224 266> 586 20G<62 140 140 140 384 461 461 461>
VStem: 62 78<197 606> 258 69<-67.5 -66> 384 77<193 197 197 606>
LayerCount: 2
Fore
SplineSet
461 606 m 1
 461 197 l 2
 461 97 421 33 351 4 c 1
 340 -8 327 -31 327 -55 c 0
 327 -80 338 -103 368 -103 c 2
 395 -103 l 1
 395 -149 l 1
 377 -156 359 -161 341 -161 c 0
 303 -161 258 -142 258 -81 c 0
 258 -51 268 -29 282 -10 c 1
 276 -11 270 -11 262 -11 c 0
 137 -11 62 61 62 197 c 2
 62 606 l 1
 140 606 l 1
 140 193 l 2
 140 107 186 61 262 61 c 0
 338 61 384 107 384 193 c 2
 384 606 l 1
 461 606 l 1
EndSplineSet
Position2: "'cpsp' Capital Spacing lookup 0 subtable" dx=5 dy=0 dh=10 dv=0
EndChar

StartChar: Uring
Encoding: 366 366 111
Width: 523
Flags: MW
HStem: -11 72<224 300 224 324> 586 20G<62 140 140 140 384 461 461 461> 639 40<249.5 274 249.5 285.5> 769 40<249.5 274>
VStem: 62 78<197 606> 177 40<711.5 736.5 711.5 747.5> 307 40<711.5 736.5> 384 77<193 197 197 606>
LayerCount: 2
Fore
SplineSet
262 809 m 0
 309 809 347 770 347 724 c 0
 347 677 309 639 262 639 c 0
 216 639 177 676 177 724 c 0
 177 771 215 809 262 809 c 0
262 769 m 0
 237 769 217 749 217 724 c 0
 217 699 237 679 262 679 c 0
 286 679 307 699 307 724 c 0
 307 749 286 769 262 769 c 0
461 197 m 2
 461 61 386 -11 262 -11 c 0
 137 -11 62 61 62 197 c 2
 62 606 l 1
 140 606 l 1
 140 193 l 2
 140 107 186 61 262 61 c 0
 338 61 384 107 384 193 c 2
 384 606 l 1
 461 606 l 1
 461 197 l 2
EndSplineSet
Position2: "'cpsp' Capital Spacing lookup 0 subtable" dx=5 dy=0 dh=10 dv=0
EndChar

StartChar: Utilde
Encoding: 360 360 112
Width: 523
Flags: MW
HStem: -11 72<224 300 224 324> 586 20G<62 140 140 140 384 461 461 461> 689 65<296.5 317 292 342.5> 716 65<206 227 181.5 231>
VStem: 62 78<197 606> 384 77<193 197 197 606>
LayerCount: 2
Fore
SplineSet
391 781 m 1xdc
 391 740 369 689 316 689 c 0xec
 277 689 248 716 214 716 c 0xdc
 198 716 187 709 184 689 c 1
 133 689 l 1xec
 133 729 155 781 208 781 c 0xdc
 246 781 275 754 309 754 c 0xec
 325 754 337 760 339 781 c 1
 391 781 l 1xdc
461 197 m 2
 461 61 386 -11 262 -11 c 0
 137 -11 62 61 62 197 c 2
 62 606 l 1
 140 606 l 1
 140 193 l 2
 140 107 186 61 262 61 c 0
 338 61 384 107 384 193 c 2
 384 606 l 1
 461 606 l 1
 461 197 l 2
EndSplineSet
Position2: "'cpsp' Capital Spacing lookup 0 subtable" dx=5 dy=0 dh=10 dv=0
EndChar

StartChar: V
Encoding: 86 86 113
Width: 484
Flags: MW
HStem: 0 86<243 247 243 292 192 247> 586 20G<7 93 93 93 401 476 476 476>
VStem: 7 469<606 606>
LayerCount: 2
Fore
SplineSet
7 606 m 1
 93 606 l 1
 243 86 l 1
 247 86 l 1
 401 606 l 1
 476 606 l 1
 292 0 l 1
 192 0 l 1
 7 606 l 1
EndSplineSet
Position2: "'cpsp' Capital Spacing lookup 0 subtable" dx=5 dy=0 dh=10 dv=0
EndChar

StartChar: W
Encoding: 87 87 114
Width: 684
Flags: MW
HStem: 0 80<202 206 202 250 149 206 490 493> 533 73<339 343 339 339>
VStem: 9 666<606 606>
LayerCount: 2
Fore
SplineSet
360 411 m 2
 353 452 343 533 343 533 c 1
 339 533 l 1
 339 533 330 452 323 411 c 2
 250 0 l 1
 149 0 l 1
 9 606 l 1
 91 606 l 1
 184 187 l 2
 192 152 202 80 202 80 c 1
 206 80 l 1
 206 80 212 134 221 187 c 2
 291 606 l 1
 399 606 l 1
 474 187 l 2
 482 143 490 80 490 80 c 1
 493 80 l 1
 493 80 503 148 512 187 c 2
 605 606 l 1
 675 606 l 1
 535 0 l 1
 434 0 l 1
 360 411 l 2
EndSplineSet
Position2: "'cpsp' Capital Spacing lookup 0 subtable" dx=5 dy=0 dh=10 dv=0
EndChar

StartChar: Wacute
Encoding: 7810 7810 115
Width: 684
Flags: MW
HStem: 0 80<202 206 202 250 149 206 490 493> 533 73<339 343 339 339> 664 117<290 445 290 445>
VStem: 9 666<606 606>
LayerCount: 2
Fore
SplineSet
351 664 m 1
 290 664 l 1
 366 781 l 1
 445 781 l 1
 446 778 l 1
 351 664 l 1
434 0 m 1
 360 411 l 2
 353 452 343 533 343 533 c 1
 339 533 l 1
 339 533 330 452 323 411 c 2
 250 0 l 1
 149 0 l 1
 9 606 l 1
 91 606 l 1
 184 187 l 2
 192 152 202 80 202 80 c 1
 206 80 l 1
 206 80 212 134 221 187 c 2
 291 606 l 1
 399 606 l 1
 474 187 l 2
 482 143 490 80 490 80 c 1
 493 80 l 1
 493 80 503 148 512 187 c 2
 605 606 l 1
 675 606 l 1
 535 0 l 1
 434 0 l 1
EndSplineSet
Position2: "'cpsp' Capital Spacing lookup 0 subtable" dx=5 dy=0 dh=10 dv=0
EndChar

StartChar: Wcircumflex
Encoding: 372 372 116
Width: 684
Flags: MW
HStem: 0 80<202 206 202 250 149 206 490 493> 533 73<339 343 339 339> 660 120<232 377 232 377 309 382 309 453>
VStem: 9 666<606 606>
LayerCount: 2
Fore
SplineSet
343 730 m 1
 303 660 l 1
 232 660 l 1
 309 780 l 1
 377 780 l 1
 453 660 l 1
 382 660 l 1
 343 730 l 1
360 411 m 2
 353 452 343 533 343 533 c 1
 339 533 l 1
 339 533 330 452 323 411 c 2
 250 0 l 1
 149 0 l 1
 9 606 l 1
 91 606 l 1
 184 187 l 2
 192 152 202 80 202 80 c 1
 206 80 l 1
 206 80 212 134 221 187 c 2
 291 606 l 1
 399 606 l 1
 474 187 l 2
 482 143 490 80 490 80 c 1
 493 80 l 1
 493 80 503 148 512 187 c 2
 605 606 l 1
 675 606 l 1
 535 0 l 1
 434 0 l 1
 360 411 l 2
EndSplineSet
Position2: "'cpsp' Capital Spacing lookup 0 subtable" dx=5 dy=0 dh=10 dv=0
EndChar

StartChar: Wdieresis
Encoding: 7812 7812 117
Width: 684
Flags: MW
HStem: 0 80<202 206 202 250 149 206 490 493> 533 73<339 343 339 339> 697 84<238 314 238 314 370 447 238 370>
VStem: 238 76<697 781 697 781> 370 77<697 781 697 781>
LayerCount: 2
Fore
SplineSet
238 697 m 1
 238 781 l 1
 314 781 l 1
 314 697 l 1
 238 697 l 1
370 697 m 1
 370 781 l 1
 447 781 l 1
 447 697 l 1
 370 697 l 1
434 0 m 1
 360 411 l 2
 353 452 343 533 343 533 c 1
 339 533 l 1
 339 533 330 452 323 411 c 2
 250 0 l 1
 149 0 l 1
 9 606 l 1
 91 606 l 1
 184 187 l 2
 192 152 202 80 202 80 c 1
 206 80 l 1
 206 80 212 134 221 187 c 2
 291 606 l 1
 399 606 l 1
 474 187 l 2
 482 143 490 80 490 80 c 1
 493 80 l 1
 493 80 503 148 512 187 c 2
 605 606 l 1
 675 606 l 1
 535 0 l 1
 434 0 l 1
EndSplineSet
Position2: "'cpsp' Capital Spacing lookup 0 subtable" dx=5 dy=0 dh=10 dv=0
EndChar

StartChar: Wgrave
Encoding: 7808 7808 118
Width: 684
Flags: MW
HStem: 0 80<202 206 202 250 149 206 490 493> 533 73<339 343 339 339> 664 117<240 334 240 395>
VStem: 9 666<606 606>
LayerCount: 2
Fore
SplineSet
334 664 m 1
 239 778 l 1
 240 781 l 1
 319 781 l 1
 395 664 l 1
 334 664 l 1
434 0 m 1
 360 411 l 2
 353 452 343 533 343 533 c 1
 339 533 l 1
 339 533 330 452 323 411 c 2
 250 0 l 1
 149 0 l 1
 9 606 l 1
 91 606 l 1
 184 187 l 2
 192 152 202 80 202 80 c 1
 206 80 l 1
 206 80 212 134 221 187 c 2
 291 606 l 1
 399 606 l 1
 474 187 l 2
 482 143 490 80 490 80 c 1
 493 80 l 1
 493 80 503 148 512 187 c 2
 605 606 l 1
 675 606 l 1
 535 0 l 1
 434 0 l 1
EndSplineSet
Position2: "'cpsp' Capital Spacing lookup 0 subtable" dx=5 dy=0 dh=10 dv=0
EndChar

StartChar: X
Encoding: 88 88 119
Width: 484
Flags: MW
HStem: 586 20G<21 113 113 113 377 461 461 461>
VStem: 4 476<0 0>
LayerCount: 2
Fore
SplineSet
388 0 m 1
 239 248 l 1
 87 0 l 1
 4 0 l 1
 197 315 l 1
 21 606 l 1
 113 606 l 1
 244 390 l 1
 377 606 l 1
 461 606 l 1
 285 322 l 1
 480 0 l 1
 388 0 l 1
EndSplineSet
Position2: "'cpsp' Capital Spacing lookup 0 subtable" dx=5 dy=0 dh=10 dv=0
EndChar

StartChar: Y
Encoding: 89 89 120
Width: 484
Flags: MW
HStem: 586 20G<7 93 93 93 401 476 476 476>
VStem: 203 78<0 251 0 251>
LayerCount: 2
Fore
SplineSet
203 0 m 1
 203 251 l 1
 7 606 l 1
 93 606 l 1
 247 325 l 1
 250 325 l 1
 401 606 l 1
 476 606 l 1
 281 251 l 1
 281 0 l 1
 203 0 l 1
EndSplineSet
Position2: "'cpsp' Capital Spacing lookup 0 subtable" dx=5 dy=0 dh=10 dv=0
EndChar

StartChar: Yacute
Encoding: 221 221 121
Width: 484
Flags: MW
HStem: 586 20G<7 93 93 93 401 476 476 476> 664 117<189 345 189 345>
VStem: 203 78<0 251>
LayerCount: 2
Fore
SplineSet
250 664 m 1
 189 664 l 1
 265 781 l 1
 345 781 l 1
 346 778 l 1
 250 664 l 1
281 0 m 1
 203 0 l 1
 203 251 l 1
 7 606 l 1
 93 606 l 1
 247 325 l 1
 250 325 l 1
 401 606 l 1
 476 606 l 1
 281 251 l 1
 281 0 l 1
EndSplineSet
Position2: "'cpsp' Capital Spacing lookup 0 subtable" dx=5 dy=0 dh=10 dv=0
EndChar

StartChar: Ycircumflex
Encoding: 374 374 122
Width: 484
Flags: MW
HStem: 586 20G<7 93 93 93 401 476 476 476> 660 120<132 277 132 277 208 281 208 352>
VStem: 203 78<0 251 0 251>
LayerCount: 2
Fore
SplineSet
242 730 m 1
 202 660 l 1
 132 660 l 1
 208 780 l 1
 277 780 l 1
 352 660 l 1
 281 660 l 1
 242 730 l 1
203 0 m 1
 203 251 l 1
 7 606 l 1
 93 606 l 1
 247 325 l 1
 250 325 l 1
 401 606 l 1
 476 606 l 1
 281 251 l 1
 281 0 l 1
 203 0 l 1
EndSplineSet
Position2: "'cpsp' Capital Spacing lookup 0 subtable" dx=5 dy=0 dh=10 dv=0
EndChar

StartChar: Ydieresis
Encoding: 376 376 123
Width: 484
Flags: MW
HStem: 586 20G<7 93 93 93 401 476 476 476> 697 84<137 214 137 214 270 347 137 270>
VStem: 137 77<697 781 697 781> 203 78<0 251> 270 77<697 781 697 781>
LayerCount: 2
Fore
SplineSet
137 697 m 1xe8
 137 781 l 1
 214 781 l 1
 214 697 l 1
 137 697 l 1xe8
270 697 m 1
 270 781 l 1
 347 781 l 1
 347 697 l 1
 270 697 l 1
281 0 m 1xd0
 203 0 l 1
 203 251 l 1
 7 606 l 1
 93 606 l 1
 247 325 l 1
 250 325 l 1
 401 606 l 1
 476 606 l 1
 281 251 l 1
 281 0 l 1xd0
EndSplineSet
Position2: "'cpsp' Capital Spacing lookup 0 subtable" dx=5 dy=0 dh=10 dv=0
EndChar

StartChar: Ygrave
Encoding: 7922 7922 124
Width: 484
Flags: MW
HStem: 586 20G<7 93 93 93 401 476 476 476> 664 117<139 233 139 294>
VStem: 203 78<0 251>
LayerCount: 2
Fore
SplineSet
233 664 m 1
 138 778 l 1
 139 781 l 1
 218 781 l 1
 294 664 l 1
 233 664 l 1
281 0 m 1
 203 0 l 1
 203 251 l 1
 7 606 l 1
 93 606 l 1
 247 325 l 1
 250 325 l 1
 401 606 l 1
 476 606 l 1
 281 251 l 1
 281 0 l 1
EndSplineSet
Position2: "'cpsp' Capital Spacing lookup 0 subtable" dx=5 dy=0 dh=10 dv=0
EndChar

StartChar: Z
Encoding: 90 90 125
Width: 443
Flags: MW
HStem: 0 71<128 423 128 423> 536 70<36 306 36 417>
VStem: 18 405<0 34 34 34>
LayerCount: 2
Fore
SplineSet
128 71 m 1
 423 71 l 1
 423 0 l 1
 18 0 l 1
 18 34 l 1
 306 536 l 1
 36 536 l 1
 36 606 l 1
 417 606 l 1
 417 573 l 1
 128 71 l 1
EndSplineSet
Position2: "'cpsp' Capital Spacing lookup 0 subtable" dx=5 dy=0 dh=10 dv=0
EndChar

StartChar: Zacute
Encoding: 377 377 126
Width: 443
Flags: MW
HStem: 0 71<128 423 128 423> 536 70<36 306 36 417> 664 117<169 324 169 324>
VStem: 18 405<0 34 34 34>
LayerCount: 2
Fore
SplineSet
230 664 m 1
 169 664 l 1
 245 781 l 1
 324 781 l 1
 325 778 l 1
 230 664 l 1
128 71 m 1
 423 71 l 1
 423 0 l 1
 18 0 l 1
 18 34 l 1
 306 536 l 1
 36 536 l 1
 36 606 l 1
 417 606 l 1
 417 573 l 1
 128 71 l 1
EndSplineSet
Position2: "'cpsp' Capital Spacing lookup 0 subtable" dx=5 dy=0 dh=10 dv=0
EndChar

StartChar: Zcaron
Encoding: 381 381 127
Width: 443
Flags: MW
HStem: 0 71<128 423 128 423> 536 70<36 306 36 417> 661 120<111 187 111 255>
VStem: 18 405<0 34 34 34>
LayerCount: 2
Fore
SplineSet
187 661 m 1
 111 781 l 1
 182 781 l 1
 221 711 l 1
 261 781 l 1
 331 781 l 1
 255 661 l 1
 187 661 l 1
128 71 m 1
 423 71 l 1
 423 0 l 1
 18 0 l 1
 18 34 l 1
 306 536 l 1
 36 536 l 1
 36 606 l 1
 417 606 l 1
 417 573 l 1
 128 71 l 1
EndSplineSet
Position2: "'cpsp' Capital Spacing lookup 0 subtable" dx=5 dy=0 dh=10 dv=0
EndChar

StartChar: Zdotaccent
Encoding: 379 379 128
Width: 443
Flags: MW
HStem: 0 71<128 423 128 423> 536 70<36 306 36 417> 697 84<183 260 183 260>
VStem: 183 77<697 781 697 781>
LayerCount: 2
Fore
SplineSet
183 697 m 1
 183 781 l 1
 260 781 l 1
 260 697 l 1
 183 697 l 1
128 71 m 1
 423 71 l 1
 423 0 l 1
 18 0 l 1
 18 34 l 1
 306 536 l 1
 36 536 l 1
 36 606 l 1
 417 606 l 1
 417 573 l 1
 128 71 l 1
EndSplineSet
Position2: "'cpsp' Capital Spacing lookup 0 subtable" dx=5 dy=0 dh=10 dv=0
EndChar

StartChar: a
Encoding: 97 97 129
Width: 403
Flags: MW
HStem: -11 65<148.5 176.5> -7 61 211 65<218 265> 411 65<164.5 221.5>
VStem: 30 76<98.5 161 98.5 184> 48 72<327 389> 265 73<50 85 169 211 211 211 276 336 336 346>
LayerCount: 2
Fore
SplineSet
49 327 m 1xb6
 48 332 48 339 48 347 c 0
 48 431 110 476 197 476 c 0
 291 476 338 428 338 346 c 2
 338 85 l 2
 338 63 350 54 362 54 c 2
 391 54 l 1
 391 4 l 1
 383 -1 366 -7 343 -7 c 0x76
 305 -7 278 16 270 50 c 1
 265 50 l 1
 241 12 201 -11 152 -11 c 0
 106 -11 30 8 30 120 c 0xba
 30 248 130 276 265 276 c 1
 265 336 l 2
 265 380 251 411 192 411 c 0
 137 411 120 373 120 338 c 2
 120 327 l 1
 49 327 l 1xb6
265 211 m 1xba
 171 211 106 197 106 125 c 0
 106 72 128 54 169 54 c 0
 215 54 265 92 265 169 c 2
 265 211 l 1xba
EndSplineSet
Substitution2: "Single Substitution lookup 14 subtable" ordfeminine
Substitution2: "'aalt' Access All Alternates lookup 0 subtable" ordfeminine
EndChar

StartChar: aacute
Encoding: 225 225 130
Width: 403
Flags: MW
HStem: -11 65<148.5 176.5> -7 61 211 65<218 265> 411 65<164.5 221.5> 522 117<145 301 145 301>
VStem: 30 76<98.5 161 98.5 184> 48 72<327 389> 265 73<50 85 169 211 211 211 276 336 336 346>
LayerCount: 2
Fore
SplineSet
206 522 m 1xbd
 145 522 l 1
 221 639 l 1
 301 639 l 1
 301 636 l 1
 206 522 l 1xbd
49 327 m 1xbb
 48 332 48 339 48 347 c 0
 48 431 110 476 197 476 c 0
 291 476 338 428 338 346 c 2
 338 85 l 2
 338 63 350 54 362 54 c 2
 391 54 l 1
 391 4 l 1
 383 -1 366 -7 343 -7 c 0x7b
 305 -7 278 16 270 50 c 1
 265 50 l 1
 241 12 201 -11 152 -11 c 0
 106 -11 30 8 30 120 c 0xbd
 30 248 130 276 265 276 c 1
 265 336 l 2
 265 380 251 411 192 411 c 0
 137 411 120 373 120 338 c 2
 120 327 l 1
 49 327 l 1xbb
265 211 m 1xbd
 171 211 106 197 106 125 c 0
 106 72 128 54 169 54 c 0
 215 54 265 92 265 169 c 2
 265 211 l 1xbd
EndSplineSet
EndChar

StartChar: abreve
Encoding: 259 259 131
Width: 403
Flags: MW
HStem: -11 65<148.5 176.5> -7 61 211 65<218 265> 411 65<164.5 221.5> 553 57<186.5 217 186.5 236> 553 86<92 236>
VStem: 30 76<98.5 161 98.5 184> 48 72<327 389> 265 73<50 85 169 211 211 211 276 336 336 346>
LayerCount: 2
Fore
SplineSet
311 639 m 1xb680
 311 599 270 553 202 553 c 0xba80
 134 553 92 599 92 639 c 1
 149 639 l 1xb680
 152 627 171 610 202 610 c 0xba80
 232 610 253 627 255 639 c 1
 311 639 l 1xb680
49 327 m 1xb980
 48 332 48 339 48 347 c 0
 48 431 110 476 197 476 c 0
 291 476 338 428 338 346 c 2
 338 85 l 2
 338 63 350 54 362 54 c 2
 391 54 l 1
 391 4 l 1
 383 -1 366 -7 343 -7 c 0x7980
 305 -7 278 16 270 50 c 1
 265 50 l 1
 241 12 201 -11 152 -11 c 0
 106 -11 30 8 30 120 c 0xba80
 30 248 130 276 265 276 c 1
 265 336 l 2
 265 380 251 411 192 411 c 0
 137 411 120 373 120 338 c 2
 120 327 l 1
 49 327 l 1xb980
265 211 m 1xba80
 171 211 106 197 106 125 c 0
 106 72 128 54 169 54 c 0
 215 54 265 92 265 169 c 2
 265 211 l 1xba80
EndSplineSet
EndChar

StartChar: acircumflex
Encoding: 226 226 132
Width: 403
Flags: MW
HStem: -11 65<148.5 176.5> -7 61 211 65<218 265> 411 65<164.5 221.5> 519 119<92 237 92 237 167 241 167 312>
VStem: 30 76<98.5 161 98.5 184> 48 72<327 389> 265 73<50 85 169 211 211 211 276 336 336 346>
LayerCount: 2
Fore
SplineSet
202 589 m 1xbd
 163 519 l 1
 92 519 l 1
 167 638 l 1
 237 638 l 1
 312 519 l 1
 241 519 l 1
 202 589 l 1xbd
49 327 m 1xbb
 48 332 48 339 48 347 c 0
 48 431 110 476 197 476 c 0
 291 476 338 428 338 346 c 2
 338 85 l 2
 338 63 350 54 362 54 c 2
 391 54 l 1
 391 4 l 1
 383 -1 366 -7 343 -7 c 0x7b
 305 -7 278 16 270 50 c 1
 265 50 l 1
 241 12 201 -11 152 -11 c 0
 106 -11 30 8 30 120 c 0xbd
 30 248 130 276 265 276 c 1
 265 336 l 2
 265 380 251 411 192 411 c 0
 137 411 120 373 120 338 c 2
 120 327 l 1
 49 327 l 1xbb
265 211 m 1xbd
 171 211 106 197 106 125 c 0
 106 72 128 54 169 54 c 0
 215 54 265 92 265 169 c 2
 265 211 l 1xbd
EndSplineSet
EndChar

StartChar: adieresis
Encoding: 228 228 133
Width: 403
Flags: MW
HStem: -11 65<148.5 176.5> -7 61 211 65<218 265> 411 65<164.5 221.5> 555 84<96 173 96 173 229 307 96 229>
VStem: 30 76<98.5 161 98.5 184> 48 72<327 389> 96 77<555 639 555 639> 229 78<555 639 555 639> 265 73<50 85 169 211 211 211 276 336 336 346>
LayerCount: 2
Fore
SplineSet
96 555 m 1xb940
 96 639 l 1
 173 639 l 1
 173 555 l 1
 96 555 l 1xb940
229 555 m 1xba80
 229 639 l 1
 307 639 l 1
 307 555 l 1
 229 555 l 1xba80
49 327 m 1
 48 332 48 339 48 347 c 0
 48 431 110 476 197 476 c 0
 291 476 338 428 338 346 c 2
 338 85 l 2
 338 63 350 54 362 54 c 2
 391 54 l 1
 391 4 l 1
 383 -1 366 -7 343 -7 c 0x7a40
 305 -7 278 16 270 50 c 1
 265 50 l 1
 241 12 201 -11 152 -11 c 0
 106 -11 30 8 30 120 c 0
 30 248 130 276 265 276 c 1
 265 336 l 2xbc40
 265 380 251 411 192 411 c 0
 137 411 120 373 120 338 c 2
 120 327 l 1
 49 327 l 1
265 211 m 1xbc40
 171 211 106 197 106 125 c 0
 106 72 128 54 169 54 c 0
 215 54 265 92 265 169 c 2
 265 211 l 1xbc40
EndSplineSet
EndChar

StartChar: agrave
Encoding: 224 224 134
Width: 403
Flags: MW
HStem: -11 65<148.5 176.5> -7 61 211 65<218 265> 411 65<164.5 221.5> 522 117<95 189 95 250>
VStem: 30 76<98.5 161 98.5 184> 48 72<327 389> 265 73<50 85 169 211 211 211 276 336 336 346>
LayerCount: 2
Fore
SplineSet
189 522 m 1xbd
 94 636 l 1
 95 639 l 1
 174 639 l 1
 250 522 l 1
 189 522 l 1xbd
49 327 m 1xbb
 48 332 48 339 48 347 c 0
 48 431 110 476 197 476 c 0
 291 476 338 428 338 346 c 2
 338 85 l 2
 338 63 350 54 362 54 c 2
 391 54 l 1
 391 4 l 1
 383 -1 366 -7 343 -7 c 0x7b
 305 -7 278 16 270 50 c 1
 265 50 l 1
 241 12 201 -11 152 -11 c 0
 106 -11 30 8 30 120 c 0xbd
 30 248 130 276 265 276 c 1
 265 336 l 2
 265 380 251 411 192 411 c 0
 137 411 120 373 120 338 c 2
 120 327 l 1
 49 327 l 1xbb
265 211 m 1xbd
 171 211 106 197 106 125 c 0
 106 72 128 54 169 54 c 0
 215 54 265 92 265 169 c 2
 265 211 l 1xbd
EndSplineSet
EndChar

StartChar: amacron
Encoding: 257 257 135
Width: 403
Flags: MW
HStem: -11 65<148.5 176.5> -7 61 211 65<218 265> 411 65<164.5 221.5> 530 63<91 313 91 313>
VStem: 30 76<98.5 161 98.5 184> 48 72<327 389> 91 222<530 593 530 593> 265 73<50 85 169 211 211 211 276 336 336 346>
LayerCount: 2
Fore
SplineSet
91 593 m 1xb9
 313 593 l 1
 313 530 l 1
 91 530 l 1
 91 593 l 1xb9
49 327 m 1xba80
 48 332 48 339 48 347 c 0
 48 431 110 476 197 476 c 0
 291 476 338 428 338 346 c 2
 338 85 l 2
 338 63 350 54 362 54 c 2
 391 54 l 1
 391 4 l 1
 383 -1 366 -7 343 -7 c 0x7a80
 305 -7 278 16 270 50 c 1
 265 50 l 1
 241 12 201 -11 152 -11 c 0
 106 -11 30 8 30 120 c 0xbc80
 30 248 130 276 265 276 c 1
 265 336 l 2
 265 380 251 411 192 411 c 0
 137 411 120 373 120 338 c 2
 120 327 l 1
 49 327 l 1xba80
265 211 m 1xbc80
 171 211 106 197 106 125 c 0
 106 72 128 54 169 54 c 0
 215 54 265 92 265 169 c 2
 265 211 l 1xbc80
EndSplineSet
EndChar

StartChar: aogonek
Encoding: 261 261 136
Width: 403
Flags: MW
HStem: -161 58<363 436> -11 65<148.5 176.5> 211 65<218 265> 411 65<164.5 221.5>
VStem: 30 76<98.5 161 98.5 184> 48 72<327 389> 265 73<50 85 169 211 211 211 276 336 336 346> 299 69<-67.5 -64>
LayerCount: 2
Fore
SplineSet
436 -149 m 1xf9
 417 -156 400 -161 382 -161 c 0
 344 -161 299 -142 299 -81 c 0
 299 -47 310 -25 325 -5 c 1
 297 1 277 21 270 50 c 1
 265 50 l 1
 241 12 201 -11 152 -11 c 0
 106 -11 30 8 30 120 c 0xf9
 30 248 130 276 265 276 c 1
 265 336 l 2
 265 380 251 411 192 411 c 0
 137 411 120 373 120 338 c 2
 120 327 l 1
 49 327 l 1
 48 332 48 339 48 347 c 0
 48 431 110 476 197 476 c 0
 291 476 338 428 338 346 c 2
 338 85 l 2
 338 63 350 54 362 54 c 2
 391 54 l 1xf6
 391 4 l 1
 380 -10 368 -32 368 -55 c 0
 368 -80 378 -103 408 -103 c 2
 436 -103 l 1
 436 -149 l 1xf9
265 211 m 1xfa
 171 211 106 197 106 125 c 0
 106 72 128 54 169 54 c 0
 215 54 265 92 265 169 c 2
 265 211 l 1xfa
EndSplineSet
EndChar

StartChar: aring
Encoding: 229 229 137
Width: 403
Flags: MW
HStem: -11 65<148.5 176.5> -7 61 211 65<218 265> 411 65<164.5 221.5> 497 40<189.5 213.5 189.5 225> 627 40<189.5 213.5>
VStem: 30 76<98.5 161 98.5 184> 48 72<327 389> 117 39<570.5 595 570.5 606> 247 39<570.5 595> 265 73<50 85 169 211 211 211 276 336 336 346>
LayerCount: 2
Fore
SplineSet
202 667 m 0xbec0
 249 667 286 628 286 583 c 0
 286 535 248 497 202 497 c 0
 156 497 117 534 117 583 c 0
 117 629 155 667 202 667 c 0xbec0
202 627 m 0
 177 627 156 607 156 583 c 0
 156 558 177 537 202 537 c 0
 225 537 247 558 247 583 c 0
 247 607 225 627 202 627 c 0
49 327 m 1xb520
 48 332 48 339 48 347 c 0
 48 431 110 476 197 476 c 0
 291 476 338 428 338 346 c 2
 338 85 l 2
 338 63 350 54 362 54 c 2
 391 54 l 1
 391 4 l 1
 383 -1 366 -7 343 -7 c 0x7520
 305 -7 278 16 270 50 c 1
 265 50 l 1
 241 12 201 -11 152 -11 c 0
 106 -11 30 8 30 120 c 0xb620
 30 248 130 276 265 276 c 1
 265 336 l 2
 265 380 251 411 192 411 c 0
 137 411 120 373 120 338 c 2
 120 327 l 1
 49 327 l 1xb520
265 211 m 1xb620
 171 211 106 197 106 125 c 0
 106 72 128 54 169 54 c 0
 215 54 265 92 265 169 c 2
 265 211 l 1xb620
EndSplineSet
EndChar

StartChar: aringacute
Encoding: 507 507 138
Width: 403
Flags: MW
HStem: -11 65<148.5 176.5> -7 61 211 65<218 265> 411 65<164.5 221.5> 499 38<190 213.5 190 225.5> 620 39<190 213.5> 679 102<173 319 173 319>
VStem: 30 76<98.5 161 98.5 184> 48 72<327 389> 117 39<567 591 567 601.5> 247 39<567 591> 265 73<50 85 169 211 211 211 276 336 336 346>
LayerCount: 2
Fore
SplineSet
234 679 m 1xb710
 173 679 l 1
 240 781 l 1
 319 781 l 1
 320 778 l 1
 234 679 l 1xb710
202 659 m 0xbd60
 250 659 286 623 286 579 c 0
 286 534 249 499 202 499 c 0
 156 499 117 533 117 579 c 0
 117 624 155 659 202 659 c 0xbd60
202 620 m 0
 178 620 156 603 156 579 c 0
 156 555 178 537 202 537 c 0
 225 537 247 555 247 579 c 0
 247 603 225 620 202 620 c 0
49 327 m 1xb490
 48 332 48 339 48 347 c 0
 48 431 110 476 197 476 c 0
 291 476 338 428 338 346 c 2
 338 85 l 2
 338 63 350 54 362 54 c 2
 391 54 l 1
 391 4 l 1
 383 -1 366 -7 343 -7 c 0x7490
 305 -7 278 16 270 50 c 1
 265 50 l 1
 241 12 201 -11 152 -11 c 0
 106 -11 30 8 30 120 c 0xb510
 30 248 130 276 265 276 c 1
 265 336 l 2
 265 380 251 411 192 411 c 0
 137 411 120 373 120 338 c 2
 120 327 l 1
 49 327 l 1xb490
265 211 m 1xb510
 171 211 106 197 106 125 c 0
 106 72 128 54 169 54 c 0
 215 54 265 92 265 169 c 2
 265 211 l 1xb510
EndSplineSet
EndChar

StartChar: atilde
Encoding: 227 227 139
Width: 403
Flags: MW
HStem: -11 65<148.5 176.5> -7 61 211 65<218 265> 411 65<164.5 221.5> 547 65<236 257 232 282> 575 64<146 167 121.5 171>
VStem: 30 76<98.5 161 98.5 184> 48 72<327 389> 265 73<50 85 169 211 211 211 276 336 336 346>
LayerCount: 2
Fore
SplineSet
331 639 m 1xb680
 331 598 309 547 255 547 c 0xba80
 217 547 188 575 154 575 c 0xb680
 138 575 126 568 124 547 c 1
 72 547 l 1
 72 588 95 639 148 639 c 0
 186 639 215 612 249 612 c 0xba80
 265 612 277 619 279 639 c 1
 331 639 l 1xb680
49 327 m 1xb580
 48 332 48 339 48 347 c 0
 48 431 110 476 197 476 c 0
 291 476 338 428 338 346 c 2
 338 85 l 2
 338 63 350 54 362 54 c 2
 391 54 l 1
 391 4 l 1
 383 -1 366 -7 343 -7 c 0x7580
 305 -7 278 16 270 50 c 1
 265 50 l 1
 241 12 201 -11 152 -11 c 0
 106 -11 30 8 30 120 c 0xb680
 30 248 130 276 265 276 c 1
 265 336 l 2
 265 380 251 411 192 411 c 0
 137 411 120 373 120 338 c 2
 120 327 l 1
 49 327 l 1xb580
265 211 m 1xb680
 171 211 106 197 106 125 c 0
 106 72 128 54 169 54 c 0
 215 54 265 92 265 169 c 2
 265 211 l 1xb680
EndSplineSet
EndChar

StartChar: ae
Encoding: 230 230 140
Width: 644
Flags: MW
HStem: -11 65<153.5 197 153.5 198 414 471> 211 65<223.5 271 347 522> 411 65<169.5 226.5 419 471>
VStem: 35 76<98.5 161 98.5 184> 53 73<327 389> 271 76<162 211 157 211 157 336> 522 76
LayerCount: 2
Fore
SplineSet
54 327 m 1xee
 53 332 53 339 53 347 c 0xee
 53 431 115 476 202 476 c 0
 259 476 300 457 322 423 c 1
 351 459 392 476 446 476 c 0
 547 476 598 413 598 257 c 2
 598 211 l 1
 347 211 l 1
 347 103 379 54 448 54 c 0
 494 54 527 94 527 158 c 1
 598 158 l 1
 598 54 537 -11 446 -11 c 0
 382 -11 334 11 305 60 c 1
 272 17 225 -11 171 -11 c 0
 113 -11 35 8 35 120 c 0xf6
 35 248 135 276 271 276 c 1
 271 336 l 2
 271 380 256 411 197 411 c 0
 142 411 126 373 126 338 c 2
 126 327 l 1
 54 327 l 1xee
522 276 m 1xf6
 522 364 496 411 446 411 c 0
 381 411 354 365 347 276 c 1
 522 276 l 1xf6
271 211 m 1
 176 211 111 197 111 125 c 0
 111 72 133 54 174 54 c 0
 220 54 271 89 271 162 c 2
 271 211 l 1
EndSplineSet
EndChar

StartChar: aeacute
Encoding: 509 509 141
Width: 644
Flags: MW
HStem: -11 65<153.5 197 153.5 198 414 471> 211 65<223.5 271 347 522> 411 65<169.5 226.5 419 471> 522 117<270 425 270 425>
VStem: 35 76<98.5 161 98.5 184> 53 73<327 389> 271 76<162 211 157 211 157 336> 522 76
LayerCount: 2
Fore
SplineSet
331 522 m 1xfb
 270 522 l 1
 346 639 l 1
 425 639 l 1
 426 636 l 1
 331 522 l 1xfb
54 327 m 1xf7
 53 332 53 339 53 347 c 0xf7
 53 431 115 476 202 476 c 0
 259 476 300 457 322 423 c 1
 351 459 392 476 446 476 c 0
 547 476 598 413 598 257 c 2
 598 211 l 1
 347 211 l 1
 347 103 379 54 448 54 c 0
 494 54 527 94 527 158 c 1
 598 158 l 1
 598 54 537 -11 446 -11 c 0
 382 -11 334 11 305 60 c 1
 272 17 225 -11 171 -11 c 0
 113 -11 35 8 35 120 c 0xfb
 35 248 135 276 271 276 c 1
 271 336 l 2
 271 380 256 411 197 411 c 0
 142 411 126 373 126 338 c 2
 126 327 l 1
 54 327 l 1xf7
522 276 m 1xfb
 522 364 496 411 446 411 c 0
 381 411 354 365 347 276 c 1
 522 276 l 1xfb
271 211 m 1
 176 211 111 197 111 125 c 0
 111 72 133 54 174 54 c 0
 220 54 271 89 271 162 c 2
 271 211 l 1
EndSplineSet
EndChar

StartChar: b
Encoding: 98 98 142
Width: 403
Flags: MW
HStem: -11 65<202.5 236.5> 411 65<206.5 236.5> 619 20G<53 126 126 126>
VStem: 53 73<162.5 216 216 246 421 639> 292 76<216 249 249 307>
LayerCount: 2
Fore
SplineSet
130 421 m 1
 146 455 184 476 229 476 c 0
 306 476 368 402 368 233 c 0
 368 63 312 -11 224 -11 c 0
 181 -11 144 11 122 54 c 1
 118 54 l 1
 108 0 l 1
 53 0 l 1
 53 639 l 1
 126 639 l 1
 126 421 l 1
 130 421 l 1
292 249 m 2
 292 365 264 411 209 411 c 0
 153 411 126 355 126 246 c 2
 126 216 l 2
 126 109 153 54 209 54 c 0
 264 54 292 100 292 216 c 2
 292 249 l 2
EndSplineSet
EndChar

StartChar: c
Encoding: 99 99 143
Width: 362
Flags: MW
HStem: -11 65<162 217 162 242> 411 65<162 217>
VStem: 32 76<162.5 216 216 249 162.5 316> 258 75<293 333>
LayerCount: 2
Fore
SplineSet
333 172 m 1
 333 75 293 -11 191 -11 c 0
 81 -11 32 65 32 232 c 0
 32 400 82 476 191 476 c 0
 292 476 333 411 333 293 c 1
 258 293 l 1
 258 373 243 411 191 411 c 0
 133 411 108 356 108 249 c 2
 108 216 l 2
 108 109 133 54 191 54 c 0
 243 54 262 95 262 172 c 1
 333 172 l 1
EndSplineSet
EndChar

StartChar: cacute
Encoding: 263 263 144
Width: 362
Flags: MW
HStem: -11 65<162 217 162 242> 411 65<162 217> 522 117<137 293 137 293>
VStem: 32 76<162.5 216 216 249 162.5 316> 258 75<293 333>
LayerCount: 2
Fore
SplineSet
199 522 m 1
 137 522 l 1
 213 639 l 1
 293 639 l 1
 293 636 l 1
 199 522 l 1
333 172 m 1
 333 75 293 -11 191 -11 c 0
 81 -11 32 65 32 232 c 0
 32 400 82 476 191 476 c 0
 292 476 333 411 333 293 c 1
 258 293 l 1
 258 373 243 411 191 411 c 0
 133 411 108 356 108 249 c 2
 108 216 l 2
 108 109 133 54 191 54 c 0
 243 54 262 95 262 172 c 1
 333 172 l 1
EndSplineSet
EndChar

StartChar: ccaron
Encoding: 269 269 145
Width: 362
Flags: MW
HStem: -11 65<162 217 162 242> 411 65<162 217> 520 119<72 216 72 147>
VStem: 32 76<162.5 216 216 249 162.5 316> 258 75<293 333>
LayerCount: 2
Fore
SplineSet
72 639 m 1
 142 639 l 1
 181 569 l 1
 221 639 l 1
 292 639 l 1
 216 520 l 1
 147 520 l 1
 72 639 l 1
333 172 m 1
 333 75 293 -11 191 -11 c 0
 81 -11 32 65 32 232 c 0
 32 400 82 476 191 476 c 0
 292 476 333 411 333 293 c 1
 258 293 l 1
 258 373 243 411 191 411 c 0
 133 411 108 356 108 249 c 2
 108 216 l 2
 108 109 133 54 191 54 c 0
 243 54 262 95 262 172 c 1
 333 172 l 1
EndSplineSet
EndChar

StartChar: ccedilla
Encoding: 231 231 146
Width: 362
Flags: MW
HStem: -161 50<160 165 165 175 98 190.5> -68 36<138 193> 411 65<162 217>
VStem: 32 76<162.5 216 216 249 162.5 316> 197 67<-97.5 -82> 258 75<293 333>
LayerCount: 2
Fore
SplineSet
148 -5 m 1xf8
 68 13 32 89 32 232 c 0
 32 400 82 476 191 476 c 0
 292 476 333 411 333 293 c 1
 258 293 l 1
 258 373 243 411 191 411 c 0
 133 411 108 356 108 249 c 2
 108 216 l 2
 108 109 133 54 191 54 c 0
 243 54 262 95 262 172 c 1
 333 172 l 1xf4
 333 77 294 -8 195 -11 c 1
 193 -32 l 1
 231 -34 264 -49 264 -89 c 0
 264 -149 209 -161 172 -161 c 0
 148 -161 119 -158 98 -154 c 1
 98 -111 l 1
 165 -111 l 2
 185 -111 197 -106 197 -89 c 0
 197 -75 190 -68 167 -68 c 2
 138 -68 l 1
 148 -5 l 1xf8
EndSplineSet
EndChar

StartChar: ccircumflex
Encoding: 265 265 147
Width: 362
Flags: MW
HStem: -11 65<162 217 162 242> 411 65<162 217> 519 119<72 217 72 217 148 221 148 292>
VStem: 32 76<162.5 216 216 249 162.5 316> 258 75<293 333>
LayerCount: 2
Fore
SplineSet
182 589 m 1
 142 519 l 1
 72 519 l 1
 148 638 l 1
 217 638 l 1
 292 519 l 1
 221 519 l 1
 182 589 l 1
333 172 m 1
 333 75 293 -11 191 -11 c 0
 81 -11 32 65 32 232 c 0
 32 400 82 476 191 476 c 0
 292 476 333 411 333 293 c 1
 258 293 l 1
 258 373 243 411 191 411 c 0
 133 411 108 356 108 249 c 2
 108 216 l 2
 108 109 133 54 191 54 c 0
 243 54 262 95 262 172 c 1
 333 172 l 1
EndSplineSet
EndChar

StartChar: cdotaccent
Encoding: 267 267 148
Width: 362
Flags: MW
HStem: -11 65<162 217 162 242> 411 65<162 217> 555 84<143 220 143 220>
VStem: 32 76<162.5 216 216 249 162.5 316> 143 77<555 639 555 639> 258 75<293 333>
LayerCount: 2
Fore
SplineSet
143 639 m 1
 220 639 l 1
 220 555 l 1
 143 555 l 1
 143 639 l 1
333 172 m 1
 333 75 293 -11 191 -11 c 0
 81 -11 32 65 32 232 c 0
 32 400 82 476 191 476 c 0
 292 476 333 411 333 293 c 1
 258 293 l 1
 258 373 243 411 191 411 c 0
 133 411 108 356 108 249 c 2
 108 216 l 2
 108 109 133 54 191 54 c 0
 243 54 262 95 262 172 c 1
 333 172 l 1
EndSplineSet
EndChar

StartChar: d
Encoding: 100 100 149
Width: 403
Flags: MW
HStem: -11 65<166.5 200.5> 411 65<166.5 196.5 135.5 222> 619 20G<278 350 350 350>
VStem: 35 76<158 216 216 249 158 317.5> 278 72<216 246 246 300.5 421 639 0 639>
LayerCount: 2
Fore
SplineSet
286 54 m 1
 281 54 l 1
 259 11 222 -11 179 -11 c 0
 91 -11 35 63 35 233 c 0
 35 402 97 476 174 476 c 0
 219 476 257 455 273 421 c 1
 278 421 l 1
 278 639 l 1
 350 639 l 1
 350 0 l 1
 295 0 l 1
 286 54 l 1
278 246 m 2
 278 355 250 411 194 411 c 0
 139 411 111 365 111 249 c 2
 111 216 l 2
 111 100 139 54 194 54 c 0
 250 54 278 109 278 216 c 2
 278 246 l 2
EndSplineSet
EndChar

StartChar: eth
Encoding: 240 240 150
Width: 403
Flags: MW
HStem: -11 65<171.5 232 171.5 256> 411 65<171.5 200 146.5 231.5> 445 20G 534.5 51.5 534.5 104.5 549 57 589 50<145 145>
VStem: 35 76<162.5 216 216 249 162.5 318> 82 244<552 583 583 583> 292 76<216 249 249 296.5 148.5 302.5>
LayerCount: 2
Fore
SplineSet
263 546 m 1xc540
 326 461 368 361 368 232 c 0
 368 65 310 -11 202 -11 c 0
 93 -11 35 65 35 232 c 0xc940
 35 404 101 476 192 476 c 0xc880
 208 476 222 471 236 465 c 1
 222 490 205 514 187 539 c 1
 82 530 l 1xa880
 82 583 l 1xd080
 145 589 l 1xc280
 132 604 118 620 103 636 c 1
 105 639 l 1
 183 639 l 1xc880
 196 625 210 611 223 596 c 1
 326 606 l 1
 326 552 l 1xc480
 263 546 l 1xc540
292 249 m 2xc940
 292 356 261 411 202 411 c 0
 141 411 111 356 111 249 c 2
 111 216 l 2
 111 109 141 54 202 54 c 0
 262 54 292 109 292 216 c 2
 292 249 l 2xc940
EndSplineSet
EndChar

StartChar: dcaron
Encoding: 271 271 151
Width: 446
Flags: MW
HStem: -11 65<166.5 200.5> 411 65<166.5 196.5 135.5 222> 511 95<385 421 385 474> 511 128<278 421 278 385>
VStem: 35 76<158 216 216 249 158 317.5> 278 72<216 246 246 300.5 421 639 0 639> 385 89<519 606 519 606 519 606>
LayerCount: 2
Fore
SplineSet
286 54 m 1xee
 281 54 l 1xee
 259 11 222 -11 179 -11 c 0
 91 -11 35 63 35 233 c 0
 35 402 97 476 174 476 c 0
 219 476 257 455 273 421 c 1
 278 421 l 1
 278 639 l 1
 350 639 l 1xde
 350 0 l 1
 295 0 l 1
 286 54 l 1xee
385 401 m 1
 421 511 l 1
 385 511 l 1
 385 606 l 1
 474 606 l 1
 474 519 l 1
 431 401 l 1
 385 401 l 1
278 246 m 2
 278 355 250 411 194 411 c 0
 139 411 111 365 111 249 c 2
 111 216 l 2
 111 100 139 54 194 54 c 0
 250 54 278 109 278 216 c 2
 278 246 l 2
EndSplineSet
EndChar

StartChar: dcroat
Encoding: 273 273 152
Width: 400
Flags: MW
HStem: -11 65<166.5 200.5> 411 65<166.5 196.5 135.5 222> 515 60<179 278 179 278 350 401> 515 124<179 350 179 350 278 401 278 350>
VStem: 35 76<158 216 216 249 158 317.5> 278 72<216 246 246 300.5 421 515 0 515 575 639>
LayerCount: 2
Fore
SplineSet
401 575 m 1xec
 401 515 l 1
 350 515 l 1
 350 0 l 1
 295 0 l 1
 286 54 l 1
 281 54 l 1
 259 11 222 -11 179 -11 c 0
 91 -11 35 63 35 233 c 0
 35 402 97 476 174 476 c 0
 219 476 257 455 273 421 c 1
 278 421 l 1
 278 515 l 1
 179 515 l 1xdc
 179 575 l 1
 278 575 l 1xec
 278 639 l 1
 350 639 l 1xdc
 350 575 l 1
 401 575 l 1xec
278 246 m 2
 278 355 250 411 194 411 c 0
 139 411 111 365 111 249 c 2
 111 216 l 2
 111 100 139 54 194 54 c 0
 250 54 278 109 278 216 c 2
 278 246 l 2
EndSplineSet
EndChar

StartChar: e
Encoding: 101 101 153
Width: 403
Flags: MW
HStem: -11 65<180.5 238 180.5 258> 211 65<114 289 114 365 113 289> 411 65<180 237.5>
VStem: 37 76<211 211 211 316> 289 76
LayerCount: 2
Fore
SplineSet
365 158 m 1
 365 54 303 -11 213 -11 c 0
 97 -11 37 60 37 232 c 0
 37 400 95 476 212 476 c 0
 314 476 365 413 365 257 c 2
 365 211 l 1
 113 211 l 1
 114 103 146 54 215 54 c 0
 261 54 293 94 293 158 c 1
 365 158 l 1
289 276 m 1
 289 364 263 411 212 411 c 0
 148 411 120 365 114 276 c 1
 289 276 l 1
EndSplineSet
EndChar

StartChar: eacute
Encoding: 233 233 154
Width: 403
Flags: MW
HStem: -11 65<180.5 238 180.5 258> 211 65<114 289 114 365 113 289> 411 65<180 237.5> 522 117<159 315 159 315>
VStem: 37 76<211 211 211 316> 289 76
LayerCount: 2
Fore
SplineSet
221 522 m 1
 159 522 l 1
 235 639 l 1
 315 639 l 1
 316 636 l 1
 221 522 l 1
365 158 m 1
 365 54 303 -11 213 -11 c 0
 97 -11 37 60 37 232 c 0
 37 400 95 476 212 476 c 0
 314 476 365 413 365 257 c 2
 365 211 l 1
 113 211 l 1
 114 103 146 54 215 54 c 0
 261 54 293 94 293 158 c 1
 365 158 l 1
289 276 m 1
 289 364 263 411 212 411 c 0
 148 411 120 365 114 276 c 1
 289 276 l 1
EndSplineSet
EndChar

StartChar: ebreve
Encoding: 277 277 155
Width: 403
Flags: MW
HStem: -11 65<180.5 238 180.5 258> 211 65<114 289 114 365 113 289> 411 65<180 237.5> 553 57<186.5 217 186.5 236> 553 86<92 236>
VStem: 37 76<211 211 211 316> 289 76
LayerCount: 2
Fore
SplineSet
311 639 m 1xee
 311 599 270 553 202 553 c 0xf6
 134 553 92 599 92 639 c 1
 149 639 l 1xee
 152 627 171 610 202 610 c 0xf6
 232 610 253 627 255 639 c 1
 311 639 l 1xee
365 158 m 1xf6
 365 54 303 -11 213 -11 c 0
 97 -11 37 60 37 232 c 0
 37 400 95 476 212 476 c 0
 314 476 365 413 365 257 c 2
 365 211 l 1
 113 211 l 1
 114 103 146 54 215 54 c 0
 261 54 293 94 293 158 c 1
 365 158 l 1xf6
289 276 m 1
 289 364 263 411 212 411 c 0
 148 411 120 365 114 276 c 1
 289 276 l 1
EndSplineSet
EndChar

StartChar: ecaron
Encoding: 283 283 156
Width: 403
Flags: MW
HStem: -11 65<180.5 238 180.5 258> 211 65<114 289 114 365 113 289> 411 65<180 237.5> 520 119<92 236 92 166>
VStem: 37 76<211 211 211 316> 289 76
LayerCount: 2
Fore
SplineSet
92 639 m 1
 163 639 l 1
 202 569 l 1
 241 639 l 1
 312 639 l 1
 236 520 l 1
 166 520 l 1
 92 639 l 1
365 158 m 1
 365 54 303 -11 213 -11 c 0
 97 -11 37 60 37 232 c 0
 37 400 95 476 212 476 c 0
 314 476 365 413 365 257 c 2
 365 211 l 1
 113 211 l 1
 114 103 146 54 215 54 c 0
 261 54 293 94 293 158 c 1
 365 158 l 1
289 276 m 1
 289 364 263 411 212 411 c 0
 148 411 120 365 114 276 c 1
 289 276 l 1
EndSplineSet
EndChar

StartChar: ecircumflex
Encoding: 234 234 157
Width: 403
Flags: MW
HStem: -11 65<180.5 238 180.5 258> 211 65<114 289 114 365 113 289> 411 65<180 237.5> 519 119<92 237 92 237 167 241 167 312>
VStem: 37 76<211 211 211 316> 289 76
LayerCount: 2
Fore
SplineSet
202 589 m 1
 163 519 l 1
 92 519 l 1
 167 638 l 1
 237 638 l 1
 312 519 l 1
 241 519 l 1
 202 589 l 1
365 158 m 1
 365 54 303 -11 213 -11 c 0
 97 -11 37 60 37 232 c 0
 37 400 95 476 212 476 c 0
 314 476 365 413 365 257 c 2
 365 211 l 1
 113 211 l 1
 114 103 146 54 215 54 c 0
 261 54 293 94 293 158 c 1
 365 158 l 1
289 276 m 1
 289 364 263 411 212 411 c 0
 148 411 120 365 114 276 c 1
 289 276 l 1
EndSplineSet
EndChar

StartChar: edieresis
Encoding: 235 235 158
Width: 403
Flags: MW
HStem: -11 65<180.5 238 180.5 258> 211 65<114 289 114 365 113 289> 411 65<180 237.5> 555 84<96 173 96 173 229 307 96 229>
VStem: 37 76<211 211 211 316> 96 77<555 639 555 639> 229 78<555 639 555 639> 289 76
LayerCount: 2
Fore
SplineSet
96 555 m 1xf6
 96 639 l 1
 173 639 l 1
 173 555 l 1
 96 555 l 1xf6
229 555 m 1
 229 639 l 1
 307 639 l 1
 307 555 l 1
 229 555 l 1
365 158 m 1xf9
 365 54 303 -11 213 -11 c 0
 97 -11 37 60 37 232 c 0
 37 400 95 476 212 476 c 0
 314 476 365 413 365 257 c 2
 365 211 l 1
 113 211 l 1
 114 103 146 54 215 54 c 0
 261 54 293 94 293 158 c 1
 365 158 l 1xf9
289 276 m 1
 289 364 263 411 212 411 c 0
 148 411 120 365 114 276 c 1
 289 276 l 1
EndSplineSet
EndChar

StartChar: edotaccent
Encoding: 279 279 159
Width: 403
Flags: MW
HStem: -11 65<180.5 238 180.5 258> 211 65<114 289 114 365 113 289> 411 65<180 237.5> 555 84<164 240 164 240>
VStem: 37 76<211 211 211 316> 164 76<555 639 555 639> 289 76
LayerCount: 2
Fore
SplineSet
164 639 m 1
 240 639 l 1
 240 555 l 1
 164 555 l 1
 164 639 l 1
365 158 m 1
 365 54 303 -11 213 -11 c 0
 97 -11 37 60 37 232 c 0
 37 400 95 476 212 476 c 0
 314 476 365 413 365 257 c 2
 365 211 l 1
 113 211 l 1
 114 103 146 54 215 54 c 0
 261 54 293 94 293 158 c 1
 365 158 l 1
289 276 m 1
 289 364 263 411 212 411 c 0
 148 411 120 365 114 276 c 1
 289 276 l 1
EndSplineSet
EndChar

StartChar: egrave
Encoding: 232 232 160
Width: 403
Flags: MW
HStem: -11 65<180.5 238 180.5 258> 211 65<114 289 114 365 113 289> 411 65<180 237.5> 522 117<109 203 109 264>
VStem: 37 76<211 211 211 316> 289 76
LayerCount: 2
Fore
SplineSet
203 522 m 1
 108 636 l 1
 109 639 l 1
 188 639 l 1
 264 522 l 1
 203 522 l 1
365 158 m 1
 365 54 303 -11 213 -11 c 0
 97 -11 37 60 37 232 c 0
 37 400 95 476 212 476 c 0
 314 476 365 413 365 257 c 2
 365 211 l 1
 113 211 l 1
 114 103 146 54 215 54 c 0
 261 54 293 94 293 158 c 1
 365 158 l 1
289 276 m 1
 289 364 263 411 212 411 c 0
 148 411 120 365 114 276 c 1
 289 276 l 1
EndSplineSet
EndChar

StartChar: emacron
Encoding: 275 275 161
Width: 403
Flags: MW
HStem: -11 65<180.5 238 180.5 258> 211 65<114 289 114 365 113 289> 411 65<180 237.5> 530 63<91 313 91 313>
VStem: 37 76<211 211 211 316> 91 222<530 593 530 593> 289 76
LayerCount: 2
Fore
SplineSet
91 593 m 1xf4
 313 593 l 1
 313 530 l 1
 91 530 l 1
 91 593 l 1xf4
365 158 m 1xfa
 365 54 303 -11 213 -11 c 0
 97 -11 37 60 37 232 c 0
 37 400 95 476 212 476 c 0
 314 476 365 413 365 257 c 2
 365 211 l 1
 113 211 l 1
 114 103 146 54 215 54 c 0
 261 54 293 94 293 158 c 1
 365 158 l 1xfa
289 276 m 1
 289 364 263 411 212 411 c 0
 148 411 120 365 114 276 c 1
 289 276 l 1
EndSplineSet
EndChar

StartChar: eogonek
Encoding: 281 281 162
Width: 403
Flags: MW
HStem: -161 58<255 328> -11 65<180.5 213 213 215> 211 65<114 289 114 365 113 289> 411 65<180 237.5>
VStem: 37 76<211 211 211 316> 191 69<-67.5 -66> 289 76
LayerCount: 2
Fore
SplineSet
365 211 m 1
 113 211 l 1
 114 103 146 54 215 54 c 0
 261 54 293 94 293 158 c 1
 365 158 l 1xfa
 365 85 334 32 286 6 c 1
 275 -6 260 -30 260 -55 c 0
 260 -80 271 -103 300 -103 c 2
 328 -103 l 1
 328 -149 l 1
 309 -156 292 -161 274 -161 c 0
 236 -161 191 -142 191 -81 c 0xfe
 191 -51 201 -29 215 -11 c 1
 213 -11 l 2
 97 -11 37 60 37 232 c 0
 37 400 95 476 212 476 c 0
 314 476 365 413 365 257 c 2
 365 211 l 1
289 276 m 1
 289 364 263 411 212 411 c 0
 148 411 120 365 114 276 c 1
 289 276 l 1
EndSplineSet
EndChar

StartChar: f
Encoding: 102 102 163
Width: 202
Flags: MW
HStem: 400 65<8 49 8 49 121 202> 585 61<149 151.5 105.5 163 105.5 202>
VStem: 49 72<0 400 0 400 465 539 539 543>
LayerCount: 2
Fore
SplineSet
49 539 m 2
 49 592 70 646 141 646 c 0
 162 646 187 641 202 636 c 1
 202 585 l 1
 163 585 l 2
 135 585 121 570 121 543 c 2
 121 465 l 1
 202 465 l 1
 202 400 l 1
 121 400 l 1
 121 0 l 1
 49 0 l 1
 49 400 l 1
 8 400 l 1
 8 465 l 1
 49 465 l 1
 49 539 l 2
EndSplineSet
EndChar

StartChar: g
Encoding: 103 103 164
Width: 403
Flags: MW
HStem: -161 63<88 266 138 258> 11 69<119.5 285 152 266> 163 60<140 222 170.5 201> 415 61<170.5 209 150 222>
VStem: 11 73<-58 -28 -58 -27.5> 34 76<109.5 132.5 109.5 137> 45 73<293 348.5 288 367.5> 276 73<289.5 342 271 350> 321 73<-58 -28> 322 63<512 540>
LayerCount: 2
Fore
SplineSet
385 540 m 1xf240
 385 484 356 441 308 429 c 1
 333 402 349 365 349 319 c 0
 349 223 291 164 201 163 c 2
 152 163 l 2
 128 163 110 144 110 121 c 0
 110 98 129 80 152 80 c 2xf5
 285 80 l 2
 352 80 394 30 394 -29 c 0
 394 -103 347 -161 258 -161 c 2
 126 -161 l 2
 50 -161 11 -111 11 -50 c 0xf880
 11 -5 34 34 72 49 c 1
 48 64 34 91 34 118 c 0xf5
 34 156 60 185 99 199 c 1
 65 226 45 267 45 319 c 0
 45 416 103 476 197 476 c 0
 221 476 245 469 264 459 c 1
 306 481 317 511 322 540 c 1
 385 540 l 1xf240
196 415 m 0xf3
 145 415 118 378 118 319 c 0
 118 257 145 223 196 223 c 0
 248 223 276 260 276 319 c 0
 276 381 248 415 196 415 c 0xf3
138 11 m 2xf880
 101 11 84 -13 84 -43 c 0
 84 -73 102 -98 138 -98 c 2
 266 -98 l 2
 297 -98 321 -73 321 -43 c 0
 321 -13 303 11 266 11 c 2
 138 11 l 2xf880
EndSplineSet
EndChar

StartChar: gbreve
Encoding: 287 287 165
Width: 403
Flags: MW
HStem: -161 63<88 266 138 258> 11 69<119.5 285 152 266> 163 60<140 222 170.5 201> 415 61<170.5 209 150 222> 553 57<186.5 217 186.5 236> 553 86<92 236>
VStem: 11 73<-58 -28 -58 -27.5> 34 76<109.5 132.5 109.5 137> 45 73<293 348.5 288 367.5> 276 73<289.5 342 271 350> 321 73<-58 -28> 322 63<512 540>
LayerCount: 2
Fore
SplineSet
311 639 m 1xf4c0
 311 599 270 553 202 553 c 0xf8c0
 134 553 92 599 92 639 c 1
 149 639 l 1xf4c0
 152 627 171 610 202 610 c 0xf8c0
 232 610 253 627 255 639 c 1
 311 639 l 1xf4c0
385 540 m 1xf890
 385 484 356 441 308 429 c 1
 333 402 349 365 349 319 c 0
 349 223 291 164 201 163 c 2
 152 163 l 2
 128 163 110 144 110 121 c 0
 110 98 129 80 152 80 c 2xf940
 285 80 l 2
 352 80 394 30 394 -29 c 0
 394 -103 347 -161 258 -161 c 2
 126 -161 l 2
 50 -161 11 -111 11 -50 c 0xfa20
 11 -5 34 34 72 49 c 1
 48 64 34 91 34 118 c 0xf940
 34 156 60 185 99 199 c 1
 65 226 45 267 45 319 c 0
 45 416 103 476 197 476 c 0
 221 476 245 469 264 459 c 1
 306 481 317 511 322 540 c 1
 385 540 l 1xf890
196 415 m 0xf8c0
 145 415 118 378 118 319 c 0
 118 257 145 223 196 223 c 0
 248 223 276 260 276 319 c 0
 276 381 248 415 196 415 c 0xf8c0
138 11 m 2xfa20
 101 11 84 -13 84 -43 c 0
 84 -73 102 -98 138 -98 c 2
 266 -98 l 2
 297 -98 321 -73 321 -43 c 0
 321 -13 303 11 266 11 c 2
 138 11 l 2xfa20
EndSplineSet
EndChar

StartChar: gcircumflex
Encoding: 285 285 166
Width: 403
Flags: MW
HStem: -161 63<88 266 138 258> 11 69<119.5 285 152 266> 163 60<140 222 170.5 201> 415 61<170.5 209 150 222> 519 21<241 385> 589 49<202 202>
VStem: 11 73<-58 -28 -58 -27.5> 34 76<109.5 132.5 109.5 137> 45 73<293 348.5 288 367.5> 276 73<289.5 342 271 350> 321 73<-58 -28> 326 59<512 540>
LayerCount: 2
Fore
SplineSet
202 589 m 1xfcc0
 163 519 l 1
 92 519 l 1
 167 638 l 1
 237 638 l 1
 312 519 l 1
 241 519 l 1
 202 589 l 1xfcc0
385 540 m 1xfc90
 385 484 356 441 308 429 c 1
 333 402 349 365 349 319 c 0
 349 223 291 164 201 163 c 2
 152 163 l 2
 128 163 110 144 110 121 c 0
 110 98 129 80 152 80 c 2xfd40
 285 80 l 2
 352 80 394 30 394 -29 c 0
 394 -103 347 -161 258 -161 c 2
 126 -161 l 2
 50 -161 11 -111 11 -50 c 0xfe20
 11 -5 34 34 72 49 c 1
 48 64 34 91 34 118 c 0xfd40
 34 156 60 185 99 199 c 1
 65 226 45 267 45 319 c 0
 45 416 103 476 197 476 c 0
 221 476 245 469 264 459 c 1
 309 481 324 498 326 540 c 1
 385 540 l 1xfc90
196 415 m 0xfcc0
 145 415 118 378 118 319 c 0
 118 257 145 223 196 223 c 0
 248 223 276 260 276 319 c 0
 276 381 248 415 196 415 c 0xfcc0
138 11 m 2xfe20
 101 11 84 -13 84 -43 c 0
 84 -73 102 -98 138 -98 c 2
 266 -98 l 2
 297 -98 321 -73 321 -43 c 0
 321 -13 303 11 266 11 c 2
 138 11 l 2xfe20
EndSplineSet
EndChar

StartChar: gcommaaccent
Encoding: 291 291 167
Width: 403
Flags: MW
HStem: -161 63<88 266 138 258> 11 69<119.5 285 152 266> 163 60<140 222 170.5 201> 415 61<170.5 209 150 222> 526 80<196 226 196 226 150 226>
VStem: 11 73<-58 -28 -58 -27.5> 34 76<109.5 132.5 109.5 137> 45 73<293 348.5 288 367.5> 150 76<526 600 600 600> 276 73<289.5 342 271 350> 321 73<-58 -28> 322 63<512 540>
LayerCount: 2
Fore
SplineSet
226 606 m 1xf9c0
 226 526 l 1
 150 526 l 1
 150 600 l 1
 177 669 l 1
 216 669 l 1
 196 606 l 1
 226 606 l 1xf9c0
385 540 m 1xf990
 385 484 356 441 308 429 c 1
 333 402 349 365 349 319 c 0
 349 223 291 164 201 163 c 2
 152 163 l 2
 128 163 110 144 110 121 c 0
 110 98 129 80 152 80 c 2xfac0
 285 80 l 2
 352 80 394 30 394 -29 c 0
 394 -103 347 -161 258 -161 c 2
 126 -161 l 2
 50 -161 11 -111 11 -50 c 0xfca0
 11 -5 34 34 72 49 c 1
 48 64 34 91 34 118 c 0xfac0
 34 156 60 185 99 199 c 1
 65 226 45 267 45 319 c 0
 45 416 103 476 197 476 c 0
 221 476 245 469 264 459 c 1
 306 481 317 511 322 540 c 1
 385 540 l 1xf990
196 415 m 0xf9c0
 145 415 118 378 118 319 c 0
 118 257 145 223 196 223 c 0
 248 223 276 260 276 319 c 0
 276 381 248 415 196 415 c 0xf9c0
138 11 m 2xfca0
 101 11 84 -13 84 -43 c 0
 84 -73 102 -98 138 -98 c 2
 266 -98 l 2
 297 -98 321 -73 321 -43 c 0
 321 -13 303 11 266 11 c 2
 138 11 l 2xfca0
EndSplineSet
EndChar

StartChar: gdotaccent
Encoding: 289 289 168
Width: 403
Flags: MW
HStem: -161 63<88 266 138 258> 11 69<119.5 285 152 266> 163 60<140 222 170.5 201> 415 61<170.5 209 150 222> 555 84<164 240 164 240>
VStem: 11 73<-58 -28 -58 -27.5> 34 76<109.5 132.5 109.5 137> 45 73<293 348.5 288 367.5> 164 76<555 639 555 639> 276 73<289.5 342 271 350> 321 73<-58 -28> 322 63<512 540>
LayerCount: 2
Fore
SplineSet
164 639 m 1xf9c0
 240 639 l 1
 240 555 l 1
 164 555 l 1
 164 639 l 1xf9c0
385 540 m 1xf990
 385 484 356 441 308 429 c 1
 333 402 349 365 349 319 c 0
 349 223 291 164 201 163 c 2
 152 163 l 2
 128 163 110 144 110 121 c 0
 110 98 129 80 152 80 c 2xfac0
 285 80 l 2
 352 80 394 30 394 -29 c 0
 394 -103 347 -161 258 -161 c 2
 126 -161 l 2
 50 -161 11 -111 11 -50 c 0xfca0
 11 -5 34 34 72 49 c 1
 48 64 34 91 34 118 c 0xfac0
 34 156 60 185 99 199 c 1
 65 226 45 267 45 319 c 0
 45 416 103 476 197 476 c 0
 221 476 245 469 264 459 c 1
 306 481 317 511 322 540 c 1
 385 540 l 1xf990
196 415 m 0xf9c0
 145 415 118 378 118 319 c 0
 118 257 145 223 196 223 c 0
 248 223 276 260 276 319 c 0
 276 381 248 415 196 415 c 0xf9c0
138 11 m 2xfca0
 101 11 84 -13 84 -43 c 0
 84 -73 102 -98 138 -98 c 2
 266 -98 l 2
 297 -98 321 -73 321 -43 c 0
 321 -13 303 11 266 11 c 2
 138 11 l 2xfca0
EndSplineSet
EndChar

StartChar: h
Encoding: 104 104 169
Width: 403
Flags: MW
HStem: 411 65<212 231.5> 619 20G<53 126 126 126>
VStem: 53 73<0 284 416 639> 278 72<0 330 330 335 0 362>
LayerCount: 2
Fore
SplineSet
131 416 m 1
 155 458 189 476 235 476 c 0
 305 476 350 438 350 335 c 2
 350 0 l 1
 278 0 l 1
 278 330 l 2
 278 394 251 411 212 411 c 0
 166 411 126 364 126 284 c 2
 126 0 l 1
 53 0 l 1
 53 639 l 1
 126 639 l 1
 126 416 l 1
 131 416 l 1
EndSplineSet
EndChar

StartChar: hbar
Encoding: 295 295 170
Width: 403
Flags: MW
HStem: 411 65<212 231.5> 515 60<0 53 0 53 126 221> 515 124<0 126 0 126 53 221 53 126>
VStem: 53 73<0 284 416 515 575 639> 278 72<0 330 330 335 0 362>
LayerCount: 2
Fore
SplineSet
221 575 m 1xd8
 221 515 l 1
 126 515 l 1
 126 416 l 1
 131 416 l 1
 155 458 189 476 235 476 c 0
 305 476 350 438 350 335 c 2
 350 0 l 1
 278 0 l 1
 278 330 l 2
 278 394 251 411 212 411 c 0
 166 411 126 364 126 284 c 2
 126 0 l 1
 53 0 l 1
 53 515 l 1
 0 515 l 1xb8
 0 575 l 1
 53 575 l 1xd8
 53 639 l 1
 126 639 l 1xb8
 126 575 l 1
 221 575 l 1xd8
EndSplineSet
EndChar

StartChar: hcircumflex
Encoding: 293 293 171
Width: 403
Flags: MW
HStem: 411 65<212 231.5> 619 20G<53 126 126 126> 660 120<-19 126 -19 126 57 131 57 202>
VStem: 53 73<0 284 416 639> 278 72<0 330 330 335 0 362>
LayerCount: 2
Fore
SplineSet
92 730 m 1
 52 660 l 1
 -19 660 l 1
 57 780 l 1
 126 780 l 1
 202 660 l 1
 131 660 l 1
 92 730 l 1
131 416 m 1
 155 458 189 476 235 476 c 0
 305 476 350 438 350 335 c 2
 350 0 l 1
 278 0 l 1
 278 330 l 2
 278 394 251 411 212 411 c 0
 166 411 126 364 126 284 c 2
 126 0 l 1
 53 0 l 1
 53 639 l 1
 126 639 l 1xd8
 126 416 l 1
 131 416 l 1
EndSplineSet
EndChar

StartChar: i
Encoding: 105 105 172
Width: 161
Flags: MW
HStem: 445 20G<44 117 117 117> 552 87<44 117 44 117>
VStem: 44 73<0 465 0 465 552 639>
LayerCount: 2
Fore
SplineSet
44 639 m 1
 117 639 l 1
 117 552 l 1
 44 552 l 1
 44 639 l 1
44 465 m 1
 117 465 l 1
 117 0 l 1
 44 0 l 1
 44 465 l 1
EndSplineSet
EndChar

StartChar: dotlessi
Encoding: 305 305 173
Width: 202
Flags: MW
HStem: 445 20G<65 137 137 137>
VStem: 65 72<0 465 0 465>
LayerCount: 2
Fore
SplineSet
65 465 m 1
 137 465 l 1
 137 0 l 1
 65 0 l 1
 65 465 l 1
EndSplineSet
EndChar

StartChar: iacute
Encoding: 237 237 174
Width: 202
Flags: MW
HStem: 445 20G<65 137 137 137> 522 117<49 203 49 203>
VStem: 65 72<0 465 0 465>
LayerCount: 2
Fore
SplineSet
110 522 m 1
 49 522 l 1
 125 639 l 1
 203 639 l 1
 204 636 l 1
 110 522 l 1
65 0 m 1
 65 465 l 1
 137 465 l 1
 137 0 l 1
 65 0 l 1
EndSplineSet
EndChar

StartChar: ibreve
Encoding: 301 301 175
Width: 202
Flags: MW
HStem: 445 20G<65 137 137 137> 553 57<86.5 116 86.5 135> 553 86<-9 135>
VStem: 65 72<0 465 0 465>
LayerCount: 2
Fore
SplineSet
210 639 m 1xb0
 210 599 169 553 101 553 c 0xd0
 34 553 -9 599 -9 639 c 1
 49 639 l 1xb0
 51 627 72 610 101 610 c 0xd0
 131 610 152 627 154 639 c 1
 210 639 l 1xb0
65 465 m 1xd0
 137 465 l 1
 137 0 l 1
 65 0 l 1
 65 465 l 1xd0
EndSplineSet
EndChar

StartChar: icircumflex
Encoding: 238 238 176
Width: 202
Flags: MW
HStem: 445 20G<65 137 137 137> 519 119<-10 136 -10 136 67 141 67 211>
VStem: 65 72<0 465 0 465>
LayerCount: 2
Fore
SplineSet
102 589 m 1
 62 519 l 1
 -10 519 l 1
 67 638 l 1
 136 638 l 1
 211 519 l 1
 141 519 l 1
 102 589 l 1
65 465 m 1
 137 465 l 1
 137 0 l 1
 65 0 l 1
 65 465 l 1
EndSplineSet
EndChar

StartChar: idieresis
Encoding: 239 239 177
Width: 202
Flags: MW
HStem: 445 20G<65 137 137 137> 555 84<-4 73 -4 73 129 206 -4 129>
VStem: -4 77<555 639 555 639> 65 72<0 465 0 465> 129 77<555 639 555 639>
LayerCount: 2
Fore
SplineSet
-4 555 m 1xe8
 -4 639 l 1
 73 639 l 1
 73 555 l 1
 -4 555 l 1xe8
129 555 m 1
 129 639 l 1
 206 639 l 1
 206 555 l 1
 129 555 l 1
65 0 m 1xd0
 65 465 l 1
 137 465 l 1
 137 0 l 1
 65 0 l 1xd0
EndSplineSet
EndChar

StartChar: igrave
Encoding: 236 236 178
Width: 202
Flags: MW
HStem: 445 20G<65 137 137 137> 522 117<-2 93 -2 154>
VStem: 65 72<0 465 0 465>
LayerCount: 2
Fore
SplineSet
93 522 m 1
 -3 636 l 1
 -2 639 l 1
 78 639 l 1
 154 522 l 1
 93 522 l 1
65 0 m 1
 65 465 l 1
 137 465 l 1
 137 0 l 1
 65 0 l 1
EndSplineSet
EndChar

StartChar: ij
Encoding: 307 307 179
Width: 322
Flags: MW
HStem: -161 61<175 177.5 125 221> 445 20G<44 117 117 117 205 278 278 278> 552 87<44 117 44 117 205 278>
VStem: 44 73<0 465 0 465 552 639> 205 73<-57 -54 -54 465 552 639>
LayerCount: 2
Fore
SplineSet
44 552 m 1
 44 639 l 1
 117 639 l 1
 117 552 l 1
 44 552 l 1
205 552 m 1
 205 639 l 1
 278 639 l 1
 278 552 l 1
 205 552 l 1
44 0 m 1
 44 465 l 1
 117 465 l 1
 117 0 l 1
 44 0 l 1
278 -54 m 2
 278 -107 256 -161 186 -161 c 0
 164 -161 140 -156 125 -150 c 1
 125 -100 l 1
 164 -100 l 2
 191 -100 205 -85 205 -57 c 2
 205 465 l 1
 278 465 l 1
 278 -54 l 2
EndSplineSet
EndChar

StartChar: imacron
Encoding: 299 299 180
Width: 202
Flags: MW
HStem: 445 20G<65 137 137 137> 530 63<-10 212 -10 212>
VStem: 65 72<0 465 0 465>
LayerCount: 2
Fore
SplineSet
-10 593 m 1
 212 593 l 1
 212 530 l 1
 -10 530 l 1
 -10 593 l 1
65 465 m 1
 137 465 l 1
 137 0 l 1
 65 0 l 1
 65 465 l 1
EndSplineSet
EndChar

StartChar: iogonek
Encoding: 303 303 181
Width: 161
Flags: MW
HStem: -161 58<91 164> 445 20G<44 117 117 117> 555 84<42 120 42 120>
VStem: 42 78<555 639 555 639> 44 73<0 465>
LayerCount: 2
Fore
SplineSet
42 555 m 1xf0
 42 639 l 1
 120 639 l 1
 120 555 l 1
 42 555 l 1xf0
117 0 m 1xe8
 107 -13 95 -34 95 -55 c 0
 95 -80 106 -103 135 -103 c 2
 164 -103 l 1
 164 -149 l 1
 145 -156 127 -161 110 -161 c 0
 72 -161 27 -142 27 -81 c 0
 27 -44 41 -20 59 0 c 1
 44 0 l 1
 44 465 l 1
 117 465 l 1
 117 0 l 1xe8
EndSplineSet
EndChar

StartChar: itilde
Encoding: 297 297 182
Width: 202
Flags: MW
HStem: 445 20G<65 137 137 137> 547 65<136 156.5 131.5 181.5> 575 64<45 66 20.5 70.5>
VStem: 65 72<0 465 0 465>
LayerCount: 2
Fore
SplineSet
230 639 m 1xb0
 230 598 208 547 155 547 c 0xd0
 117 547 88 575 53 575 c 0xb0
 37 575 26 568 23 547 c 1
 -28 547 l 1
 -28 588 -6 639 47 639 c 0
 85 639 114 612 149 612 c 0xd0
 164 612 176 619 179 639 c 1
 230 639 l 1xb0
65 465 m 1
 137 465 l 1
 137 0 l 1
 65 0 l 1
 65 465 l 1
EndSplineSet
EndChar

StartChar: j
Encoding: 106 106 183
Width: 161
Flags: MW
HStem: -161 61<14.5 16.5 -36 60> 445 20G<44 117 117 117> 552 87<44 117 44 117>
VStem: 44 73<-57 -54 -54 465 552 639>
LayerCount: 2
Fore
SplineSet
44 639 m 1
 117 639 l 1
 117 552 l 1
 44 552 l 1
 44 639 l 1
117 -54 m 2
 117 -107 95 -161 25 -161 c 0
 4 -161 -21 -156 -36 -150 c 1
 -36 -100 l 1
 3 -100 l 2
 30 -100 44 -85 44 -57 c 2
 44 465 l 1
 117 465 l 1
 117 -54 l 2
EndSplineSet
EndChar

StartChar: jcircumflex
Encoding: 309 309 184
Width: 161
Flags: MW
HStem: -161 61<14.5 16.5 -36 60> 445 20G<44 117 117 117> 519 119<-30 115 -30 115 46 120 46 191>
VStem: 44 73<-57 -54 -54 465>
LayerCount: 2
Fore
SplineSet
81 589 m 1
 41 519 l 1
 -30 519 l 1
 46 638 l 1
 115 638 l 1
 191 519 l 1
 120 519 l 1
 81 589 l 1
117 -54 m 2
 117 -107 95 -161 25 -161 c 0
 4 -161 -21 -156 -36 -150 c 1
 -36 -100 l 1
 3 -100 l 2
 30 -100 44 -85 44 -57 c 2
 44 465 l 1
 117 465 l 1
 117 -54 l 2
EndSplineSet
EndChar

StartChar: k
Encoding: 107 107 185
Width: 362
Flags: MW
HStem: 445 20G<276 356 356 356> 619 20G<53 126 126 126>
VStem: 53 73<0 158 249 639>
LayerCount: 2
Fore
SplineSet
356 465 m 1
 219 274 l 1
 363 0 l 1
 281 0 l 1
 175 212 l 1
 126 158 l 1
 126 0 l 1
 53 0 l 1
 53 639 l 1
 126 639 l 1
 126 249 l 1
 276 465 l 1
 356 465 l 1
EndSplineSet
EndChar

StartChar: kcommaaccent
Encoding: 311 311 186
Width: 362
Flags: MW
HStem: -133 80<144 174 144 219> 445 20G<276 356 356 356> 619 20G<53 126 126 126>
VStem: 53 73<0 158 249 639> 144 75<-127 -53 -127 -53 -127 -53>
LayerCount: 2
Fore
SplineSet
356 465 m 1
 219 274 l 1
 363 0 l 1
 281 0 l 1
 175 212 l 1
 126 158 l 1
 126 0 l 1
 53 0 l 1
 53 639 l 1
 126 639 l 1
 126 249 l 1
 276 465 l 1
 356 465 l 1
154 -196 m 1xf8
 174 -133 l 1
 144 -133 l 1
 144 -53 l 1
 219 -53 l 1
 219 -127 l 1
 194 -196 l 1
 154 -196 l 1xf8
EndSplineSet
EndChar

StartChar: kgreenlandic
Encoding: 312 312 187
Width: 361
Flags: MW
HStem: 445 20G<53 126 126 126 276 356 356 356>
VStem: 53 73<0 158 249 465>
LayerCount: 2
Fore
SplineSet
281 0 m 1
 175 212 l 1
 126 158 l 1
 126 0 l 1
 53 0 l 1
 53 465 l 1
 126 465 l 1
 126 249 l 1
 276 465 l 1
 356 465 l 1
 219 274 l 1
 363 0 l 1
 281 0 l 1
EndSplineSet
EndChar

StartChar: l
Encoding: 108 108 188
Width: 161
Flags: MW
HStem: 619 20G<44 117 117 117>
VStem: 44 73<0 639 0 639>
LayerCount: 2
Fore
SplineSet
44 639 m 1
 117 639 l 1
 117 0 l 1
 44 0 l 1
 44 639 l 1
EndSplineSet
EndChar

StartChar: lacute
Encoding: 314 314 189
Width: 161
Flags: MW
HStem: 619 20G<44 117 117 117> 664 117<28 184 28 184>
VStem: 44 73<0 639 0 639>
LayerCount: 2
Fore
SplineSet
89 664 m 1
 28 664 l 1
 104 781 l 1
 184 781 l 1
 184 778 l 1
 89 664 l 1
44 0 m 1
 44 639 l 1
 117 639 l 1xa0
 117 0 l 1
 44 0 l 1
EndSplineSet
EndChar

StartChar: lcaron
Encoding: 318 318 190
Width: 211
Flags: MW
HStem: 511 95<152 187 152 240> 511 128<44 187 44 152>
VStem: 44 73<0 639 0 639> 152 88<519 606 519 606 519 606>
LayerCount: 2
Fore
SplineSet
44 639 m 1x70
 117 639 l 1
 117 0 l 1
 44 0 l 1
 44 639 l 1x70
152 401 m 1
 187 511 l 1
 152 511 l 1
 152 606 l 1
 240 606 l 1
 240 519 l 1xb0
 198 401 l 1
 152 401 l 1
EndSplineSet
EndChar

StartChar: lcommaaccent
Encoding: 316 316 191
Width: 161
Flags: MW
HStem: -133 80<43 73 43 118> 619 20G<44 117 117 117>
VStem: 44 73<0 639 0 639>
LayerCount: 2
Fore
SplineSet
44 639 m 1
 117 639 l 1
 117 0 l 1
 44 0 l 1
 44 639 l 1
54 -196 m 1
 73 -133 l 1
 43 -133 l 1
 43 -53 l 1
 118 -53 l 1
 118 -127 l 1
 93 -196 l 1
 54 -196 l 1
EndSplineSet
EndChar

StartChar: ldot
Encoding: 320 320 192
Width: 286
Flags: MW
HStem: 255 98<152 241 152 241> 619 20G<44 117 117 117>
VStem: 44 73<0 639 0 639> 152 89<255 353 255 353>
LayerCount: 2
Fore
SplineSet
44 639 m 1
 117 639 l 1
 117 0 l 1
 44 0 l 1
 44 639 l 1
152 353 m 1
 241 353 l 1
 241 255 l 1
 152 255 l 1
 152 353 l 1
EndSplineSet
Ligature2: "Ligature Substitution lookup 13 subtable" l periodcentered
EndChar

StartChar: lslash
Encoding: 322 322 193
Width: 161
Flags: MW
HStem: 619 20G<44 117 117 117>
VStem: 44 73<0 217 217 217 281 282 0 346 346 639>
LayerCount: 2
Fore
SplineSet
194 350 m 1
 117 282 l 1
 117 0 l 1
 44 0 l 1
 44 217 l 1
 -19 163 l 1
 -19 225 l 1
 44 281 l 1
 44 639 l 1
 117 639 l 1
 117 346 l 1
 194 414 l 1
 194 350 l 1
EndSplineSet
EndChar

StartChar: m
Encoding: 109 109 194
Width: 604
Flags: MW
HStem: 411 65<207 223 419 435.5> 445 20G<53 108 108 108>
VStem: 53 73<0 284 0 465> 266 73<0 284 0 330 0 362> 478 73<0 330 330 335 0 362>
LayerCount: 2
Fore
SplineSet
123 411 m 1xb8
 148 457 185 476 229 476 c 0
 275 476 311 456 328 408 c 1
 353 453 397 476 441 476 c 0
 507 476 551 438 551 335 c 2
 551 0 l 1
 478 0 l 1
 478 330 l 2
 478 394 453 411 418 411 c 0
 375 411 339 364 339 284 c 2
 339 0 l 1
 266 0 l 1
 266 330 l 2
 266 394 240 411 206 411 c 0xb8
 163 411 126 364 126 284 c 2
 126 0 l 1
 53 0 l 1
 53 465 l 1
 108 465 l 1x78
 118 411 l 1
 123 411 l 1xb8
EndSplineSet
EndChar

StartChar: n
Encoding: 110 110 195
Width: 403
Flags: MW
HStem: 411 65<212 231.5> 445 20G<53 108 108 108>
VStem: 53 73<0 284 0 465> 278 72<0 330 330 335 0 362>
LayerCount: 2
Fore
SplineSet
123 411 m 1xb0
 149 457 189 476 235 476 c 0
 305 476 350 438 350 335 c 2
 350 0 l 1
 278 0 l 1
 278 330 l 2
 278 394 251 411 212 411 c 0xb0
 166 411 126 364 126 284 c 2
 126 0 l 1
 53 0 l 1
 53 465 l 1
 108 465 l 1x70
 118 411 l 1
 123 411 l 1xb0
EndSplineSet
Substitution2: "'sups' Superscript lookup 4 subtable" nsuperior
Substitution2: "'aalt' Access All Alternates lookup 0 subtable" nsuperior
EndChar

StartChar: nacute
Encoding: 324 324 196
Width: 403
Flags: MW
HStem: 411 65<212 231.5> 445 20G<53 108 108 108> 522 117<149 304 149 304>
VStem: 53 73<0 284 0 465> 278 72<0 330 330 335 0 362>
LayerCount: 2
Fore
SplineSet
210 522 m 1xb8
 149 522 l 1
 225 639 l 1
 304 639 l 1
 305 636 l 1
 210 522 l 1xb8
123 411 m 1
 149 457 189 476 235 476 c 0
 305 476 350 438 350 335 c 2
 350 0 l 1
 278 0 l 1
 278 330 l 2
 278 394 251 411 212 411 c 0xb8
 166 411 126 364 126 284 c 2
 126 0 l 1
 53 0 l 1
 53 465 l 1
 108 465 l 1x78
 118 411 l 1
 123 411 l 1
EndSplineSet
EndChar

StartChar: napostrophe
Encoding: 329 329 197
Width: 507
Flags: MW
HStem: 411 65<316 334.5> 445 20G<156 211 211 211> 525 81<42 72 42 118>
VStem: 42 76<531 606 531 606 531 606> 156 73<0 284 0 465> 381 72<0 330 330 335 0 362>
LayerCount: 2
Fore
SplineSet
92 462 m 1xbc
 52 462 l 1
 72 525 l 1
 42 525 l 1
 42 606 l 1
 118 606 l 1
 118 531 l 1
 92 462 l 1xbc
226 411 m 1
 252 457 293 476 339 476 c 0
 408 476 453 438 453 335 c 2
 453 0 l 1
 381 0 l 1
 381 330 l 2
 381 394 354 411 315 411 c 0xbc
 270 411 229 364 229 284 c 2
 229 0 l 1
 156 0 l 1
 156 465 l 1
 211 465 l 1x7c
 221 411 l 1
 226 411 l 1
EndSplineSet
EndChar

StartChar: ncaron
Encoding: 328 328 198
Width: 403
Flags: MW
HStem: 411 65<212 231.5> 445 20G<53 108 108 108> 520 119<92 236 92 166>
VStem: 53 73<0 284 0 465> 278 72<0 330 330 335 0 362>
LayerCount: 2
Fore
SplineSet
92 639 m 1xb8
 163 639 l 1
 202 569 l 1
 241 639 l 1
 312 639 l 1
 236 520 l 1
 166 520 l 1
 92 639 l 1xb8
123 411 m 1
 149 457 189 476 235 476 c 0
 305 476 350 438 350 335 c 2
 350 0 l 1
 278 0 l 1
 278 330 l 2
 278 394 251 411 212 411 c 0xb8
 166 411 126 364 126 284 c 2
 126 0 l 1
 53 0 l 1
 53 465 l 1
 108 465 l 1x78
 118 411 l 1
 123 411 l 1
EndSplineSet
EndChar

StartChar: ncommaaccent
Encoding: 326 326 199
Width: 403
Flags: MW
HStem: -133 80<164 194 164 240> 411 65<212 231.5> 445 20G<53 108 108 108>
VStem: 53 73<0 284 0 465> 164 76<-127 -53 -127 -53 -127 -53> 278 72<0 330 330 335 0 362>
LayerCount: 2
Fore
SplineSet
123 411 m 1xdc
 149 457 189 476 235 476 c 0
 305 476 350 438 350 335 c 2
 350 0 l 1
 278 0 l 1
 278 330 l 2
 278 394 251 411 212 411 c 0xdc
 166 411 126 364 126 284 c 2
 126 0 l 1
 53 0 l 1
 53 465 l 1
 108 465 l 1xbc
 118 411 l 1
 123 411 l 1xdc
174 -196 m 1
 194 -133 l 1
 164 -133 l 1
 164 -53 l 1
 240 -53 l 1
 240 -127 l 1
 214 -196 l 1
 174 -196 l 1
EndSplineSet
EndChar

StartChar: eng
Encoding: 331 331 200
Width: 403
Flags: MW
HStem: -161 61<247.5 249.5 197 293.5> 411 65<212 231.5> 445 20G<53 108 108 108>
VStem: 53 73<0 284 0 465> 278 72<-57 -54 -54 330 330 335>
LayerCount: 2
Fore
SplineSet
123 411 m 1xd8
 149 457 189 476 235 476 c 0
 305 476 350 438 350 335 c 2
 350 -54 l 2
 350 -107 329 -161 258 -161 c 0
 237 -161 212 -156 197 -150 c 1
 197 -100 l 1
 236 -100 l 2
 263 -100 278 -85 278 -57 c 2
 278 330 l 2
 278 394 251 411 212 411 c 0xd8
 166 411 126 364 126 284 c 2
 126 0 l 1
 53 0 l 1
 53 465 l 1
 108 465 l 1xb8
 118 411 l 1
 123 411 l 1xd8
EndSplineSet
EndChar

StartChar: ntilde
Encoding: 241 241 201
Width: 403
Flags: MW
HStem: 411 65<212 231.5> 445 20G<53 108 108 108> 547 65<236 257 232 282> 575 64<146 167 121.5 171>
VStem: 53 73<0 284 0 465> 278 72<0 330 330 335 0 362>
LayerCount: 2
Fore
SplineSet
331 639 m 1x9c
 331 598 309 547 255 547 c 0xac
 217 547 188 575 154 575 c 0x9c
 138 575 126 568 124 547 c 1
 72 547 l 1
 72 588 95 639 148 639 c 0
 186 639 215 612 249 612 c 0xac
 265 612 277 619 279 639 c 1
 331 639 l 1x9c
123 411 m 1
 149 457 189 476 235 476 c 0
 305 476 350 438 350 335 c 2
 350 0 l 1
 278 0 l 1
 278 330 l 2
 278 394 251 411 212 411 c 0x9c
 166 411 126 364 126 284 c 2
 126 0 l 1
 53 0 l 1
 53 465 l 1
 108 465 l 1x5c
 118 411 l 1
 123 411 l 1
EndSplineSet
EndChar

StartChar: o
Encoding: 111 111 202
Width: 403
Flags: MW
HStem: -11 65<171.5 232 171.5 256> 411 65<171.5 232>
VStem: 35 76<162.5 216 216 249 162.5 316> 292 76<216 249 249 302.5>
LayerCount: 2
Fore
SplineSet
202 476 m 0
 310 476 368 400 368 232 c 0
 368 65 310 -11 202 -11 c 0
 93 -11 35 65 35 232 c 0
 35 400 93 476 202 476 c 0
292 249 m 2
 292 356 262 411 202 411 c 0
 141 411 111 356 111 249 c 2
 111 216 l 2
 111 109 141 54 202 54 c 0
 262 54 292 109 292 216 c 2
 292 249 l 2
EndSplineSet
Substitution2: "Single Substitution lookup 14 subtable" ordmasculine
Substitution2: "'aalt' Access All Alternates lookup 0 subtable" ordmasculine
EndChar

StartChar: oacute
Encoding: 243 243 203
Width: 403
Flags: MW
HStem: -11 65<171.5 232 171.5 256> 411 65<171.5 232> 522 117<149 304 149 304>
VStem: 35 76<162.5 216 216 249 162.5 316> 292 76<216 249 249 302.5>
LayerCount: 2
Fore
SplineSet
210 522 m 1
 149 522 l 1
 225 639 l 1
 304 639 l 1
 305 636 l 1
 210 522 l 1
202 476 m 0
 310 476 368 400 368 232 c 0
 368 65 310 -11 202 -11 c 0
 93 -11 35 65 35 232 c 0
 35 400 93 476 202 476 c 0
292 249 m 2
 292 356 262 411 202 411 c 0
 141 411 111 356 111 249 c 2
 111 216 l 2
 111 109 141 54 202 54 c 0
 262 54 292 109 292 216 c 2
 292 249 l 2
EndSplineSet
EndChar

StartChar: obreve
Encoding: 335 335 204
Width: 403
Flags: MW
HStem: -11 65<171.5 232 171.5 256> 411 65<171.5 232> 553 57<186.5 217 186.5 236> 553 86<92 236>
VStem: 35 76<162.5 216 216 249 162.5 316> 292 76<216 249 249 302.5>
LayerCount: 2
Fore
SplineSet
311 639 m 1xdc
 311 599 270 553 202 553 c 0xec
 134 553 92 599 92 639 c 1
 149 639 l 1xdc
 152 627 171 610 202 610 c 0xec
 232 610 253 627 255 639 c 1
 311 639 l 1xdc
202 476 m 0xec
 310 476 368 400 368 232 c 0
 368 65 310 -11 202 -11 c 0
 93 -11 35 65 35 232 c 0
 35 400 93 476 202 476 c 0xec
292 249 m 2
 292 356 262 411 202 411 c 0
 141 411 111 356 111 249 c 2
 111 216 l 2
 111 109 141 54 202 54 c 0
 262 54 292 109 292 216 c 2
 292 249 l 2
EndSplineSet
EndChar

StartChar: ocircumflex
Encoding: 244 244 205
Width: 403
Flags: MW
HStem: -11 65<171.5 232 171.5 256> 411 65<171.5 232> 519 119<92 237 92 237 167 241 167 312>
VStem: 35 76<162.5 216 216 249 162.5 316> 292 76<216 249 249 302.5>
LayerCount: 2
Fore
SplineSet
202 589 m 1
 163 519 l 1
 92 519 l 1
 167 638 l 1
 237 638 l 1
 312 519 l 1
 241 519 l 1
 202 589 l 1
202 476 m 0
 310 476 368 400 368 232 c 0
 368 65 310 -11 202 -11 c 0
 93 -11 35 65 35 232 c 0
 35 400 93 476 202 476 c 0
292 249 m 2
 292 356 262 411 202 411 c 0
 141 411 111 356 111 249 c 2
 111 216 l 2
 111 109 141 54 202 54 c 0
 262 54 292 109 292 216 c 2
 292 249 l 2
EndSplineSet
EndChar

StartChar: odieresis
Encoding: 246 246 206
Width: 403
Flags: MW
HStem: -11 65<171.5 232 171.5 256> 411 65<171.5 232> 555 84<96 173 96 173 229 307 96 229>
VStem: 35 76<162.5 216 216 249 162.5 316> 96 77<555 639 555 639> 229 78<555 639 555 639> 292 76<216 249 249 302.5>
LayerCount: 2
Fore
SplineSet
96 555 m 1xec
 96 639 l 1
 173 639 l 1
 173 555 l 1
 96 555 l 1xec
229 555 m 1
 229 639 l 1
 307 639 l 1
 307 555 l 1
 229 555 l 1
202 476 m 0xf2
 310 476 368 400 368 232 c 0
 368 65 310 -11 202 -11 c 0
 93 -11 35 65 35 232 c 0
 35 400 93 476 202 476 c 0xf2
292 249 m 2
 292 356 262 411 202 411 c 0
 141 411 111 356 111 249 c 2
 111 216 l 2
 111 109 141 54 202 54 c 0
 262 54 292 109 292 216 c 2
 292 249 l 2
EndSplineSet
EndChar

StartChar: ograve
Encoding: 242 242 207
Width: 403
Flags: MW
HStem: -11 65<171.5 232 171.5 256> 411 65<171.5 232> 522 117<98 194 98 255>
VStem: 35 76<162.5 216 216 249 162.5 316> 292 76<216 249 249 302.5>
LayerCount: 2
Fore
SplineSet
194 522 m 1
 97 636 l 1
 98 639 l 1
 179 639 l 1
 255 522 l 1
 194 522 l 1
202 476 m 0
 310 476 368 400 368 232 c 0
 368 65 310 -11 202 -11 c 0
 93 -11 35 65 35 232 c 0
 35 400 93 476 202 476 c 0
292 249 m 2
 292 356 262 411 202 411 c 0
 141 411 111 356 111 249 c 2
 111 216 l 2
 111 109 141 54 202 54 c 0
 262 54 292 109 292 216 c 2
 292 249 l 2
EndSplineSet
EndChar

StartChar: ohungarumlaut
Encoding: 337 337 208
Width: 403
Flags: MW
HStem: -11 65<171.5 232 171.5 256> 411 65<171.5 232> 522 117<117 251 171 178 232 251 287 293 232 232>
VStem: 35 76<162.5 216 216 249 162.5 316> 292 76<216 249 249 302.5>
LayerCount: 2
Fore
SplineSet
117 522 m 1
 171 639 l 1
 251 639 l 1
 252 636 l 1
 178 522 l 1
 117 522 l 1
232 522 m 1
 287 639 l 1
 367 639 l 1
 368 636 l 1
 293 522 l 1
 232 522 l 1
202 476 m 0
 310 476 368 400 368 232 c 0
 368 65 310 -11 202 -11 c 0
 93 -11 35 65 35 232 c 0
 35 400 93 476 202 476 c 0
292 249 m 2
 292 356 262 411 202 411 c 0
 141 411 111 356 111 249 c 2
 111 216 l 2
 111 109 141 54 202 54 c 0
 262 54 292 109 292 216 c 2
 292 249 l 2
EndSplineSet
EndChar

StartChar: omacron
Encoding: 333 333 209
Width: 403
Flags: MW
HStem: -11 65<171.5 232 171.5 256> 411 65<171.5 232> 530 63<91 313 91 313>
VStem: 35 76<162.5 216 216 249 162.5 316> 91 222<530 593 530 593> 292 76<216 249 249 302.5>
LayerCount: 2
Fore
SplineSet
91 593 m 1xe8
 313 593 l 1
 313 530 l 1
 91 530 l 1
 91 593 l 1xe8
202 476 m 0xf4
 310 476 368 400 368 232 c 0
 368 65 310 -11 202 -11 c 0
 93 -11 35 65 35 232 c 0
 35 400 93 476 202 476 c 0xf4
292 249 m 2
 292 356 262 411 202 411 c 0
 141 411 111 356 111 249 c 2
 111 216 l 2
 111 109 141 54 202 54 c 0
 262 54 292 109 292 216 c 2
 292 249 l 2
EndSplineSet
EndChar

StartChar: oslash
Encoding: 248 248 210
Width: 443
Flags: MW
HStem: -11 65<208.5 251 208.5 275.5> 411 65<191 233>
VStem: 55 76<198.5 216 216 249 198.5 316> 311 76<216 249 249 266.5>
LayerCount: 2
Fore
SplineSet
345 416 m 1
 373 377 387 316 387 232 c 0
 387 65 330 -11 221 -11 c 0
 184 -11 152 -2 127 17 c 1
 103 -28 l 1
 55 -28 l 1
 96 49 l 1
 69 88 55 149 55 232 c 0
 55 400 112 476 221 476 c 0
 258 476 289 467 314 448 c 1
 339 493 l 1
 387 493 l 1
 345 416 l 1
279 385 m 1
 264 402 245 411 221 411 c 0
 161 411 131 356 131 249 c 2
 131 216 l 2
 131 181 133 152 140 128 c 1
 279 385 l 1
163 80 m 1
 177 63 196 54 221 54 c 0
 281 54 311 109 311 216 c 2
 311 249 l 2
 311 284 308 313 301 336 c 1
 163 80 l 1
EndSplineSet
EndChar

StartChar: oslashacute
Encoding: 511 511 211
Width: 443
Flags: MW
HStem: -11 65<208.5 251 208.5 275.5> 411 65<191 233> 522 117<169 324 169 324>
VStem: 55 76<198.5 216 216 249 198.5 316> 311 76<216 249 249 266.5>
LayerCount: 2
Fore
SplineSet
230 522 m 1
 169 522 l 1
 245 639 l 1
 324 639 l 1
 325 636 l 1
 230 522 l 1
345 416 m 1
 373 377 387 316 387 232 c 0
 387 65 330 -11 221 -11 c 0
 184 -11 152 -2 127 17 c 1
 103 -28 l 1
 55 -28 l 1
 96 49 l 1
 69 88 55 149 55 232 c 0
 55 400 112 476 221 476 c 0
 258 476 289 467 314 448 c 1
 339 493 l 1
 387 493 l 1
 345 416 l 1
279 385 m 1
 264 402 245 411 221 411 c 0
 161 411 131 356 131 249 c 2
 131 216 l 2
 131 181 133 152 140 128 c 1
 279 385 l 1
163 80 m 1
 177 63 196 54 221 54 c 0
 281 54 311 109 311 216 c 2
 311 249 l 2
 311 284 308 313 301 336 c 1
 163 80 l 1
EndSplineSet
EndChar

StartChar: otilde
Encoding: 245 245 212
Width: 403
Flags: MW
HStem: -11 65<171.5 232 171.5 256> 411 65<171.5 232> 547 65<236 257 232 282> 575 64<146 167 121.5 171>
VStem: 35 76<162.5 216 216 249 162.5 316> 292 76<216 249 249 302.5>
LayerCount: 2
Fore
SplineSet
331 639 m 1xdc
 331 598 309 547 255 547 c 0xec
 217 547 188 575 154 575 c 0xdc
 138 575 126 568 124 547 c 1
 72 547 l 1
 72 588 95 639 148 639 c 0
 186 639 215 612 249 612 c 0xec
 265 612 277 619 279 639 c 1
 331 639 l 1xdc
202 476 m 0
 310 476 368 400 368 232 c 0
 368 65 310 -11 202 -11 c 0
 93 -11 35 65 35 232 c 0
 35 400 93 476 202 476 c 0
292 249 m 2
 292 356 262 411 202 411 c 0
 141 411 111 356 111 249 c 2
 111 216 l 2
 111 109 141 54 202 54 c 0
 262 54 292 109 292 216 c 2
 292 249 l 2
EndSplineSet
EndChar

StartChar: oe
Encoding: 339 339 213
Width: 684
Flags: MW
HStem: -11 65<183 242 449.5 506> 211 65<382 557 382 633 381 557> 411 65<183 242 158.5 243 448.5 505>
VStem: 47 76<162.5 216 216 249 162.5 316> 303 78<211 249 211 302.5> 557 76
LayerCount: 2
Fore
SplineSet
633 158 m 1
 633 54 571 -11 481 -11 c 0
 418 -11 371 10 342 57 c 1
 315 11 271 -11 213 -11 c 0
 104 -11 47 65 47 232 c 0
 47 400 104 476 213 476 c 0
 271 476 315 453 342 408 c 1
 371 453 417 476 480 476 c 0
 582 476 633 413 633 257 c 2
 633 211 l 1
 381 211 l 1
 382 103 414 54 483 54 c 0
 529 54 561 94 561 158 c 1
 633 158 l 1
303 249 m 2
 303 356 273 411 213 411 c 0
 153 411 123 356 123 249 c 2
 123 216 l 2
 123 109 153 54 213 54 c 0
 273 54 303 109 303 216 c 2
 303 249 l 2
557 276 m 1
 557 364 530 411 480 411 c 0
 415 411 388 365 382 276 c 1
 557 276 l 1
EndSplineSet
EndChar

StartChar: p
Encoding: 112 112 214
Width: 403
Flags: MW
HStem: -11 65<206.5 236.5 181 267.5> 411 54<53 122 53 122> 411 65<202.5 236.5>
VStem: 53 73<-153 41 162.5 216 216 249> 292 76<216 249 249 307>
LayerCount: 2
Fore
SplineSet
122 411 m 1xb8
 144 453 181 476 224 476 c 0xb8
 312 476 368 402 368 232 c 0
 368 63 306 -11 229 -11 c 0
 184 -11 146 9 130 41 c 1
 126 41 l 1
 126 -153 l 1
 53 -153 l 1
 53 465 l 1
 108 465 l 1xd8
 118 411 l 1
 122 411 l 1xb8
292 249 m 2
 292 365 264 411 209 411 c 0
 153 411 126 356 126 249 c 2
 126 216 l 2
 126 109 153 54 209 54 c 0
 264 54 292 100 292 216 c 2
 292 249 l 2
EndSplineSet
EndChar

StartChar: thorn
Encoding: 254 254 215
Width: 403
Flags: MW
HStem: -11 65<206.5 236.5 181 267.5> 411 65<203.5 236.5> 619 20G<53 126 126 126>
VStem: 53 73<-153 41 162.5 216 216 249 424 639> 292 76<216 249 249 307>
LayerCount: 2
Fore
SplineSet
129 423 m 1
 148 455 183 476 224 476 c 0
 312 476 368 402 368 232 c 0
 368 63 306 -11 229 -11 c 0
 184 -11 146 9 130 41 c 1
 126 41 l 1
 126 -153 l 1
 53 -153 l 1
 53 639 l 1
 126 639 l 1
 126 424 l 1
 129 423 l 1
292 249 m 2
 292 365 264 411 209 411 c 0
 153 411 126 356 126 249 c 2
 126 216 l 2
 126 109 153 54 209 54 c 0
 264 54 292 100 292 216 c 2
 292 249 l 2
EndSplineSet
EndChar

StartChar: q
Encoding: 113 113 216
Width: 403
Flags: MW
HStem: -11 65<166.5 196.5> 411 54<281 350 286 350> 411 65<166.5 200.5 135 222>
VStem: 35 76<158 216 216 249 158 317> 278 72<-153 41 41 41 216 249 249 302.5>
LayerCount: 2
Fore
SplineSet
273 41 m 1xb8
 257 9 219 -11 174 -11 c 0
 97 -11 35 63 35 232 c 0
 35 402 91 476 179 476 c 0
 222 476 259 453 281 411 c 1
 286 411 l 1xb8
 295 465 l 1
 350 465 l 1xd8
 350 -153 l 1
 278 -153 l 1
 278 41 l 1
 273 41 l 1xb8
278 249 m 2
 278 356 250 411 194 411 c 0
 139 411 111 365 111 249 c 2
 111 216 l 2
 111 100 139 54 194 54 c 0
 250 54 278 109 278 216 c 2
 278 249 l 2
EndSplineSet
EndChar

StartChar: r
Encoding: 114 114 217
Width: 241
Flags: MW
HStem: 393 83<189 211.5 179.5 212 179.5 236> 445 20G<53 108 108 108> 449 20G<236 236>
VStem: 53 73<0 284 0 465>
LayerCount: 2
Fore
SplineSet
123 404 m 1x50
 134 439 157 476 202 476 c 0x90
 221 476 236 469 236 469 c 1x30
 236 393 l 1
 212 393 l 2x90
 166 393 126 366 126 284 c 2
 126 0 l 1
 53 0 l 1
 53 465 l 1
 108 465 l 1
 118 404 l 1
 123 404 l 1x50
EndSplineSet
EndChar

StartChar: racute
Encoding: 341 341 218
Width: 241
Flags: MW
HStem: 393 83<189 211.5 179.5 212 179.5 236> 445 20G<53 108 108 108> 449 20G<236 236> 522 117<29 185 29 185>
VStem: 53 73<0 284 0 465>
LayerCount: 2
Fore
SplineSet
91 522 m 1x38
 29 522 l 1
 105 639 l 1
 185 639 l 1
 186 636 l 1
 91 522 l 1x38
123 404 m 1x58
 134 439 157 476 202 476 c 0x98
 221 476 236 469 236 469 c 1x38
 236 393 l 1
 212 393 l 2x98
 166 393 126 366 126 284 c 2
 126 0 l 1
 53 0 l 1
 53 465 l 1
 108 465 l 1
 118 404 l 1
 123 404 l 1x58
EndSplineSet
EndChar

StartChar: rcaron
Encoding: 345 345 219
Width: 241
Flags: MW
HStem: 393 83<189 211.5 179.5 212 179.5 236> 445 20G<53 108 108 108> 449 20G<236 236> 520 119<-3 142 -3 73>
VStem: 53 73<0 284 0 465>
LayerCount: 2
Fore
SplineSet
-3 639 m 1x38
 69 639 l 1
 108 569 l 1
 148 639 l 1
 218 639 l 1
 142 520 l 1
 73 520 l 1
 -3 639 l 1x38
123 404 m 1x58
 134 439 157 476 202 476 c 0x98
 221 476 236 469 236 469 c 1x38
 236 393 l 1
 212 393 l 2x98
 166 393 126 366 126 284 c 2
 126 0 l 1
 53 0 l 1
 53 465 l 1
 108 465 l 1
 118 404 l 1
 123 404 l 1x58
EndSplineSet
EndChar

StartChar: rcommaaccent
Encoding: 343 343 220
Width: 241
Flags: MW
HStem: -133 80<58 89 58 134> 393 83<189 211.5 179.5 212 179.5 236> 445 20G<53 108 108 108> 449 20G<236 236>
VStem: 53 73<0 284 0 465> 58 76<-127 -53 -127 -53 -127 -53>
LayerCount: 2
Fore
SplineSet
123 404 m 1xa8
 134 439 157 476 202 476 c 0xc8
 221 476 236 469 236 469 c 1x98
 236 393 l 1
 212 393 l 2xc8
 166 393 126 366 126 284 c 2
 126 0 l 1
 53 0 l 1
 53 465 l 1
 108 465 l 1
 118 404 l 1
 123 404 l 1xa8
69 -196 m 1
 89 -133 l 1x98
 58 -133 l 1
 58 -53 l 1x94
 134 -53 l 1
 134 -127 l 1x98
 109 -196 l 1
 69 -196 l 1
EndSplineSet
EndChar

StartChar: s
Encoding: 115 115 221
Width: 362
Flags: MW
HStem: -11 64<161 201 161 221.5> 412 64<152 202.5>
VStem: 29 77<107 132> 40 75<297.5 361 297.5 384> 242 76<331 382.5 345 357.5> 252 75<99.5 180.5>
LayerCount: 2
Fore
SplineSet
106 136 m 2xe4
 106 78 140 53 182 53 c 0
 220 53 252 77 252 122 c 0xd4
 252 239 40 176 40 343 c 0
 40 425 96 476 185 476 c 0
 271 476 318 417 318 348 c 0
 318 342 317 333 317 331 c 2
 242 331 l 1
 242 339 l 2xd8
 242 376 227 412 178 412 c 0
 126 412 115 374 115 348 c 0xd4
 115 247 327 306 327 133 c 0
 327 33 264 -11 179 -11 c 0
 72 -11 29 57 29 126 c 0
 29 138 30 143 30 145 c 2
 106 145 l 1
 106 136 l 2xe4
EndSplineSet
EndChar

StartChar: sacute
Encoding: 347 347 222
Width: 362
Flags: MW
HStem: -11 64<161 201 161 221.5> 412 64<152 202.5> 522 117<129 284 129 284>
VStem: 29 77<107 132> 40 75<297.5 361 297.5 384> 242 76<331 382.5 345 357.5> 252 75<99.5 180.5>
LayerCount: 2
Fore
SplineSet
190 522 m 1xea
 129 522 l 1
 204 639 l 1
 284 639 l 1
 285 636 l 1
 190 522 l 1xea
106 136 m 2xf2
 106 78 140 53 182 53 c 0
 220 53 252 77 252 122 c 0xea
 252 239 40 176 40 343 c 0
 40 425 96 476 185 476 c 0
 271 476 318 417 318 348 c 0
 318 342 317 333 317 331 c 2
 242 331 l 1
 242 339 l 2xec
 242 376 227 412 178 412 c 0
 126 412 115 374 115 348 c 0xea
 115 247 327 306 327 133 c 0
 327 33 264 -11 179 -11 c 0
 72 -11 29 57 29 126 c 0
 29 138 30 143 30 145 c 2
 106 145 l 1
 106 136 l 2xf2
EndSplineSet
EndChar

StartChar: scaron
Encoding: 353 353 223
Width: 362
Flags: MW
HStem: -11 64<161 201 161 221.5> 412 64<152 202.5> 520 119<72 147 72 216>
VStem: 29 77<107 132> 40 75<297.5 361 297.5 384> 242 76<331 382.5 345 357.5> 252 75<99.5 180.5>
LayerCount: 2
Fore
SplineSet
147 520 m 1xea
 72 639 l 1
 142 639 l 1
 181 569 l 1
 221 639 l 1
 292 639 l 1
 216 520 l 1
 147 520 l 1xea
106 136 m 2xf2
 106 78 140 53 182 53 c 0
 220 53 252 77 252 122 c 0xea
 252 239 40 176 40 343 c 0
 40 425 96 476 185 476 c 0
 271 476 318 417 318 348 c 0
 318 342 317 333 317 331 c 2
 242 331 l 1
 242 339 l 2xec
 242 376 227 412 178 412 c 0
 126 412 115 374 115 348 c 0xea
 115 247 327 306 327 133 c 0
 327 33 264 -11 179 -11 c 0
 72 -11 29 57 29 126 c 0
 29 138 30 143 30 145 c 2
 106 145 l 1
 106 136 l 2xf2
EndSplineSet
EndChar

StartChar: scedilla
Encoding: 351 351 224
Width: 362
Flags: MW
HStem: -161 50<160 165 165 175 98 190.5> -68 36<138 193> 412 64<152 202.5>
VStem: 29 77<107 132> 40 75<297.5 361 297.5 384> 142.5 51.5 197 67<-97.5 -82> 242 76<331 382.5 345 357.5> 252 75<99.5 180.5>
LayerCount: 2
Fore
SplineSet
106 136 m 2xf480
 106 78 140 53 182 53 c 0
 220 53 252 77 252 122 c 0xe880
 252 239 40 176 40 343 c 0
 40 425 96 476 185 476 c 0
 271 476 318 417 318 348 c 0
 318 342 317 333 317 331 c 2
 242 331 l 1
 242 339 l 2xe9
 242 376 227 412 178 412 c 0
 126 412 115 374 115 348 c 0xe880
 115 247 327 306 327 133 c 0
 327 39 272 -4 195 -10 c 1xec80
 193 -32 l 1
 231 -34 264 -49 264 -89 c 0
 264 -149 209 -161 172 -161 c 0
 148 -161 119 -158 98 -154 c 1
 98 -111 l 1
 165 -111 l 2
 185 -111 197 -106 197 -89 c 0
 197 -75 190 -68 167 -68 c 2xea
 138 -68 l 1
 147 -9 l 1
 63 3 29 64 29 126 c 0
 29 138 30 143 30 145 c 2
 106 145 l 1
 106 136 l 2xf480
EndSplineSet
Substitution2: "'locl' Localized Forms in Latin lookup 2 subtable" scommaaccent
Substitution2: "'locl' Localized Forms in Latin lookup 1 subtable" scommaaccent
Substitution2: "'aalt' Access All Alternates lookup 0 subtable" scommaaccent
EndChar

StartChar: scircumflex
Encoding: 349 349 225
Width: 362
Flags: MW
HStem: -11 64<161 201 161 221.5> 412 64<152 202.5> 519 119<72 217 72 217 148 292 148 221>
VStem: 29 77<107 132> 40 75<297.5 361 297.5 384> 242 76<331 382.5 345 357.5> 252 75<99.5 180.5>
LayerCount: 2
Fore
SplineSet
221 519 m 1xea
 182 589 l 1
 142 519 l 1
 72 519 l 1
 148 638 l 1
 217 638 l 1
 292 519 l 1
 221 519 l 1xea
106 136 m 2xf2
 106 78 140 53 182 53 c 0
 220 53 252 77 252 122 c 0xea
 252 239 40 176 40 343 c 0
 40 425 96 476 185 476 c 0
 271 476 318 417 318 348 c 0
 318 342 317 333 317 331 c 2
 242 331 l 1
 242 339 l 2xec
 242 376 227 412 178 412 c 0
 126 412 115 374 115 348 c 0xea
 115 247 327 306 327 133 c 0
 327 33 264 -11 179 -11 c 0
 72 -11 29 57 29 126 c 0
 29 138 30 143 30 145 c 2
 106 145 l 1
 106 136 l 2xf2
EndSplineSet
EndChar

StartChar: scommaaccent
Encoding: 537 537 226
Width: 362
Flags: MW
HStem: -133 80<143 173 143 218> -11 64<161 201 161 221.5> 412 64<152 202.5>
VStem: 29 77<107 132> 40 75<297.5 361 297.5 384> 143 75<-127 -53 -127 -53 -127 -53> 242 76<331 382.5 345 357.5> 252 75<99.5 180.5>
LayerCount: 2
Fore
SplineSet
106 136 m 2xf5
 106 78 140 53 182 53 c 0
 220 53 252 77 252 122 c 0xed
 252 239 40 176 40 343 c 0
 40 425 96 476 185 476 c 0
 271 476 318 417 318 348 c 0
 318 342 317 333 317 331 c 2
 242 331 l 1
 242 339 l 2xee
 242 376 227 412 178 412 c 0
 126 412 115 374 115 348 c 0xed
 115 247 327 306 327 133 c 0
 327 33 264 -11 179 -11 c 0
 72 -11 29 57 29 126 c 0
 29 138 30 143 30 145 c 2
 106 145 l 1
 106 136 l 2xf5
152 -196 m 1
 173 -133 l 1
 143 -133 l 1
 143 -53 l 1
 218 -53 l 1
 218 -127 l 1
 192 -196 l 1
 152 -196 l 1
EndSplineSet
EndChar

StartChar: germandbls
Encoding: 223 223 227
Width: 443
Flags: MW
HStem: 0 65<44 225 166 225 225 232 166 225> 309 65<166 218 218 225 166 218> 585 65<188.5 251.5>
VStem: 44 73<0 456 456 458 0 525> 166 141<346 349 346 374 346 374> 316 75<455 513> 335 74<155.5 222.5>
LayerCount: 2
Fore
SplineSet
44 456 m 2xf2
 44 594 124 650 225 650 c 0
 320 650 391 588 391 484 c 0xf4
 391 426 356 369 307 349 c 1
 307 346 l 1
 367 324 409 257 409 189 c 0
 409 75 331 0 232 0 c 2
 166 0 l 1
 166 65 l 1
 225 65 l 2
 286 65 335 121 335 190 c 0xf2
 335 255 286 309 225 309 c 2
 166 309 l 1
 166 374 l 1xfa
 218 374 l 2
 272 374 316 423 316 482 c 0xf4
 316 544 283 585 220 585 c 0
 157 585 117 542 117 458 c 2
 117 0 l 1
 44 0 l 1
 44 456 l 2xf2
EndSplineSet
EndChar

StartChar: longs
Encoding: 383 383 228
Width: 161
Flags: MW
HStem: 400 65<8 49 8 49> 585 61<149 151.5 105.5 163 105.5 202>
VStem: 49 72<0 400 400 400 465 539 539 543 0 565.5>
LayerCount: 2
Fore
SplineSet
49 539 m 2
 49 592 70 646 141 646 c 0
 162 646 187 641 202 636 c 1
 202 585 l 1
 163 585 l 2
 135 585 121 570 121 543 c 2
 121 0 l 1
 49 0 l 1
 49 400 l 1
 8 400 l 1
 8 465 l 1
 49 465 l 1
 49 539 l 2
EndSplineSet
EndChar

StartChar: t
Encoding: 116 116 229
Width: 202
Flags: MW
HStem: -9 63<103.5 187> 400 65<12 52 12 52 125 187>
VStem: 52 73<98 400>
LayerCount: 2
Fore
SplineSet
187 400 m 1
 125 400 l 1
 125 96 l 2
 125 69 139 54 166 54 c 2
 187 54 l 1
 187 4 l 1
 175 -4 153 -9 135 -9 c 0
 72 -9 52 45 52 98 c 2
 52 400 l 1
 12 400 l 1
 12 465 l 1
 52 465 l 1
 68 594 l 1
 125 594 l 1
 125 465 l 1
 187 465 l 1
 187 400 l 1
EndSplineSet
EndChar

StartChar: tbar
Encoding: 359 359 230
Width: 202
Flags: MW
HStem: -9 63<103.5 187> 248 61<14 52 14 52 125 183> 400 65<12 52 12 52 125 187>
VStem: 52 73<98 248 309 400>
LayerCount: 2
Fore
SplineSet
187 465 m 1
 187 400 l 1
 125 400 l 1
 125 309 l 1
 183 309 l 1
 183 248 l 1
 125 248 l 1
 125 96 l 2
 125 69 139 54 166 54 c 2
 187 54 l 1
 187 4 l 1
 175 -4 153 -9 135 -9 c 0
 72 -9 52 45 52 98 c 2
 52 248 l 1
 14 248 l 1
 14 309 l 1
 52 309 l 1
 52 400 l 1
 12 400 l 1
 12 465 l 1
 52 465 l 1
 68 594 l 1
 125 594 l 1
 125 465 l 1
 187 465 l 1
EndSplineSet
EndChar

StartChar: tcaron
Encoding: 357 357 231
Width: 271
Flags: MW
HStem: -9 63<103.5 187> 400 65<12 52 12 52 125 187> 511 95<223 258 223 312>
VStem: 52 73<98 400> 223 89<519 606 519 606 519 606>
LayerCount: 2
Fore
SplineSet
223 401 m 1
 258 511 l 1
 223 511 l 1
 223 606 l 1
 312 606 l 1
 312 519 l 1
 269 401 l 1
 223 401 l 1
187 400 m 1
 125 400 l 1
 125 96 l 2
 125 69 139 54 166 54 c 2
 187 54 l 1
 187 4 l 1
 175 -4 153 -9 135 -9 c 0
 72 -9 52 45 52 98 c 2
 52 400 l 1
 12 400 l 1
 12 465 l 1
 52 465 l 1
 68 594 l 1
 125 594 l 1
 125 465 l 1
 187 465 l 1
 187 400 l 1
EndSplineSet
EndChar

StartChar: tcedilla
Encoding: 355 355 232
Width: 202
Flags: MW
HStem: -161 50<96.5 102 102 111.5 35 127> -68 36<75 129> -9 63<133 187 133 187> 400 65<12 52 12 52 125 187>
VStem: 52 73<98 400> 134 67<-97.5 -82>
LayerCount: 2
Fore
SplineSet
129 -32 m 1
 167 -34 201 -49 201 -89 c 0
 201 -149 145 -161 109 -161 c 0
 84 -161 56 -158 35 -154 c 1
 35 -111 l 1
 102 -111 l 2
 121 -111 134 -106 134 -89 c 0
 134 -75 127 -68 104 -68 c 2
 75 -68 l 1xdc
 86 6 l 1xd8
 61 26 52 62 52 98 c 2
 52 400 l 1
 12 400 l 1
 12 465 l 1
 52 465 l 1
 68 594 l 1
 125 594 l 1
 125 465 l 1
 187 465 l 1
 187 400 l 1
 125 400 l 1
 125 96 l 2
 125 69 139 54 166 54 c 2xf8
 187 54 l 1
 187 4 l 1
 175 -4 153 -9 135 -9 c 2
 133 -9 l 1xfc
 129 -32 l 1
EndSplineSet
Substitution2: "'locl' Localized Forms in Latin lookup 2 subtable" uni021B
Substitution2: "'locl' Localized Forms in Latin lookup 1 subtable" uni021B
Substitution2: "'aalt' Access All Alternates lookup 0 subtable" uni021B
EndChar

StartChar: uni021B
Encoding: 539 539 233
Width: 202
Flags: MW
HStem: -133 80<64 94 64 139> -9 63<103.5 187> 400 65<12 52 12 52 125 187>
VStem: 52 73<98 400> 64 75<-127 -53 -127 -53 -127 -53>
LayerCount: 2
Fore
SplineSet
187 400 m 1xf0
 125 400 l 1
 125 96 l 2
 125 69 139 54 166 54 c 2
 187 54 l 1
 187 4 l 1
 175 -4 153 -9 135 -9 c 0
 72 -9 52 45 52 98 c 2
 52 400 l 1
 12 400 l 1
 12 465 l 1
 52 465 l 1
 68 594 l 1
 125 594 l 1
 125 465 l 1
 187 465 l 1
 187 400 l 1xf0
73 -196 m 1xe8
 94 -133 l 1
 64 -133 l 1
 64 -53 l 1
 139 -53 l 1
 139 -127 l 1
 113 -196 l 1
 73 -196 l 1xe8
EndSplineSet
EndChar

StartChar: u
Encoding: 117 117 234
Width: 403
Flags: MW
HStem: -11 65<171.5 191> 445 20G<53 126 126 126 278 350 350 350>
VStem: 53 73<130 135 135 465> 278 72<181 465 0 465>
LayerCount: 2
Fore
SplineSet
286 54 m 1
 280 54 l 1
 255 8 214 -11 168 -11 c 0
 98 -11 53 27 53 130 c 2
 53 465 l 1
 126 465 l 1
 126 135 l 2
 126 71 152 54 191 54 c 0
 237 54 278 101 278 181 c 2
 278 465 l 1
 350 465 l 1
 350 0 l 1
 295 0 l 1
 286 54 l 1
EndSplineSet
EndChar

StartChar: uacute
Encoding: 250 250 235
Width: 403
Flags: MW
HStem: -11 65<171.5 191> 445 20G<53 126 126 126 278 350 350 350> 522 117<149 304 149 304>
VStem: 53 73<130 135 135 465> 278 72<181 465 0 465>
LayerCount: 2
Fore
SplineSet
210 522 m 1
 149 522 l 1
 225 639 l 1
 304 639 l 1
 305 636 l 1
 210 522 l 1
295 0 m 1
 286 54 l 1
 280 54 l 1
 255 8 214 -11 168 -11 c 0
 98 -11 53 27 53 130 c 2
 53 465 l 1
 126 465 l 1
 126 135 l 2
 126 71 152 54 191 54 c 0
 237 54 278 101 278 181 c 2
 278 465 l 1
 350 465 l 1
 350 0 l 1
 295 0 l 1
EndSplineSet
EndChar

StartChar: ubreve
Encoding: 365 365 236
Width: 403
Flags: MW
HStem: -11 65<171.5 191> 445 20G<53 126 126 126 278 350 350 350> 553 57<186.5 217 186.5 236> 553 86<92 236>
VStem: 53 73<130 135 135 465> 278 72<181 465 0 465>
LayerCount: 2
Fore
SplineSet
311 639 m 1xdc
 311 599 270 553 202 553 c 0xec
 134 553 92 599 92 639 c 1
 149 639 l 1xdc
 152 627 171 610 202 610 c 0xec
 232 610 253 627 255 639 c 1
 311 639 l 1xdc
286 54 m 1xec
 280 54 l 1
 255 8 214 -11 168 -11 c 0
 98 -11 53 27 53 130 c 2
 53 465 l 1
 126 465 l 1
 126 135 l 2
 126 71 152 54 191 54 c 0
 237 54 278 101 278 181 c 2
 278 465 l 1
 350 465 l 1
 350 0 l 1
 295 0 l 1
 286 54 l 1xec
EndSplineSet
EndChar

StartChar: ucircumflex
Encoding: 251 251 237
Width: 403
Flags: MW
HStem: -11 65<171.5 191> 445 20G<53 126 126 126 278 350 350 350> 519 119<92 237 92 237 167 241 167 312>
VStem: 53 73<130 135 135 465> 278 72<181 465 0 465>
LayerCount: 2
Fore
SplineSet
202 589 m 1
 163 519 l 1
 92 519 l 1
 167 638 l 1
 237 638 l 1
 312 519 l 1
 241 519 l 1
 202 589 l 1
286 54 m 1
 280 54 l 1
 255 8 214 -11 168 -11 c 0
 98 -11 53 27 53 130 c 2
 53 465 l 1
 126 465 l 1
 126 135 l 2
 126 71 152 54 191 54 c 0
 237 54 278 101 278 181 c 2
 278 465 l 1
 350 465 l 1
 350 0 l 1
 295 0 l 1
 286 54 l 1
EndSplineSet
EndChar

StartChar: udieresis
Encoding: 252 252 238
Width: 403
Flags: MW
HStem: -11 65<171.5 191> 445 20G<53 126 126 126 278 350 350 350> 555 84<96 173 96 173 229 307 96 229>
VStem: 53 73<130 135 135 465> 96 77<555 639 555 639> 229 78<555 639 555 639> 278 72<181 465 0 465>
LayerCount: 2
Fore
SplineSet
96 555 m 1xec
 96 639 l 1
 173 639 l 1
 173 555 l 1
 96 555 l 1xec
229 555 m 1
 229 639 l 1
 307 639 l 1
 307 555 l 1
 229 555 l 1
295 0 m 1xf2
 286 54 l 1
 280 54 l 1
 255 8 214 -11 168 -11 c 0
 98 -11 53 27 53 130 c 2
 53 465 l 1
 126 465 l 1
 126 135 l 2
 126 71 152 54 191 54 c 0
 237 54 278 101 278 181 c 2
 278 465 l 1
 350 465 l 1
 350 0 l 1
 295 0 l 1xf2
EndSplineSet
EndChar

StartChar: ugrave
Encoding: 249 249 239
Width: 403
Flags: MW
HStem: -11 65<171.5 191> 445 20G<53 126 126 126 278 350 350 350> 522 117<98 194 98 255>
VStem: 53 73<130 135 135 465> 278 72<181 465 0 465>
LayerCount: 2
Fore
SplineSet
194 522 m 1
 97 636 l 1
 98 639 l 1
 179 639 l 1
 255 522 l 1
 194 522 l 1
295 0 m 1
 286 54 l 1
 280 54 l 1
 255 8 214 -11 168 -11 c 0
 98 -11 53 27 53 130 c 2
 53 465 l 1
 126 465 l 1
 126 135 l 2
 126 71 152 54 191 54 c 0
 237 54 278 101 278 181 c 2
 278 465 l 1
 350 465 l 1
 350 0 l 1
 295 0 l 1
EndSplineSet
EndChar

StartChar: uhungarumlaut
Encoding: 369 369 240
Width: 403
Flags: MW
HStem: -11 65<171.5 191> 445 20G<53 126 126 126 278 350 350 350> 522 117<171 178 117 251 232 232 232 251 287 293>
VStem: 53 73<130 135 135 465> 278 72<181 465 0 465>
LayerCount: 2
Fore
SplineSet
178 522 m 1
 117 522 l 1
 171 639 l 1
 251 639 l 1
 252 636 l 1
 178 522 l 1
293 522 m 1
 232 522 l 1
 287 639 l 1
 367 639 l 1
 368 636 l 1
 293 522 l 1
295 0 m 1
 286 54 l 1
 280 54 l 1
 255 8 214 -11 168 -11 c 0
 98 -11 53 27 53 130 c 2
 53 465 l 1
 126 465 l 1
 126 135 l 2
 126 71 152 54 191 54 c 0
 237 54 278 101 278 181 c 2
 278 465 l 1
 350 465 l 1
 350 0 l 1
 295 0 l 1
EndSplineSet
EndChar

StartChar: umacron
Encoding: 363 363 241
Width: 403
Flags: MW
HStem: -11 65<171.5 191> 445 20G<53 126 126 126 278 350 350 350> 530 63<91 313 91 313>
VStem: 53 73<130 135 135 465> 278 72<181 465 0 465>
LayerCount: 2
Fore
SplineSet
91 593 m 1
 313 593 l 1
 313 530 l 1
 91 530 l 1
 91 593 l 1
286 54 m 1
 280 54 l 1
 255 8 214 -11 168 -11 c 0
 98 -11 53 27 53 130 c 2
 53 465 l 1
 126 465 l 1
 126 135 l 2
 126 71 152 54 191 54 c 0
 237 54 278 101 278 181 c 2
 278 465 l 1
 350 465 l 1
 350 0 l 1
 295 0 l 1
 286 54 l 1
EndSplineSet
EndChar

StartChar: uogonek
Encoding: 371 371 242
Width: 403
Flags: MW
HStem: -161 58<324 397> -11 65<171.5 191> 445 20G<53 126 126 126 278 350 350 350>
VStem: 53 73<130 135 135 465> 260 69<-67.5 -61.5> 278 72<181 465 0 465>
LayerCount: 2
Fore
SplineSet
397 -103 m 1xf8
 397 -149 l 1
 378 -156 361 -161 343 -161 c 0
 305 -161 260 -142 260 -81 c 0xf8
 260 -42 276 -17 294 3 c 1
 286 54 l 1
 280 54 l 1
 255 8 214 -11 168 -11 c 0
 98 -11 53 27 53 130 c 2
 53 465 l 1
 126 465 l 1
 126 135 l 2
 126 71 152 54 191 54 c 0
 237 54 278 101 278 181 c 2
 278 465 l 1
 350 465 l 1
 350 0 l 1xf4
 340 -13 329 -34 329 -55 c 0
 329 -80 339 -103 369 -103 c 2
 397 -103 l 1xf8
EndSplineSet
EndChar

StartChar: uring
Encoding: 367 367 243
Width: 403
Flags: MW
HStem: -11 65<171.5 191> 445 20G<53 126 126 126 278 350 350 350> 497 40<189.5 213.5 189.5 225> 627 40<189.5 213.5>
VStem: 53 73<130 135 135 465> 117 39<570.5 595 570.5 606> 247 39<570.5 595> 278 72<181 465 0 465>
LayerCount: 2
Fore
SplineSet
202 667 m 0xf6
 249 667 286 628 286 583 c 0
 286 535 248 497 202 497 c 0
 156 497 117 534 117 583 c 0
 117 629 155 667 202 667 c 0xf6
202 627 m 0
 177 627 156 607 156 583 c 0
 156 558 177 537 202 537 c 0
 225 537 247 558 247 583 c 0
 247 607 225 627 202 627 c 0
286 54 m 1xf9
 280 54 l 1
 255 8 214 -11 168 -11 c 0
 98 -11 53 27 53 130 c 2
 53 465 l 1
 126 465 l 1
 126 135 l 2
 126 71 152 54 191 54 c 0
 237 54 278 101 278 181 c 2
 278 465 l 1
 350 465 l 1
 350 0 l 1
 295 0 l 1
 286 54 l 1xf9
EndSplineSet
EndChar

StartChar: utilde
Encoding: 361 361 244
Width: 403
Flags: MW
HStem: -11 65<171.5 191> 445 20G<53 126 126 126 278 350 350 350> 547 65<236 257 232 282> 575 64<146 167 121.5 171>
VStem: 53 73<130 135 135 465> 278 72<181 465 0 465>
LayerCount: 2
Fore
SplineSet
331 639 m 1xdc
 331 598 309 547 255 547 c 0xec
 217 547 188 575 154 575 c 0xdc
 138 575 126 568 124 547 c 1
 72 547 l 1
 72 588 95 639 148 639 c 0
 186 639 215 612 249 612 c 0xec
 265 612 277 619 279 639 c 1
 331 639 l 1xdc
286 54 m 1
 280 54 l 1
 255 8 214 -11 168 -11 c 0
 98 -11 53 27 53 130 c 2
 53 465 l 1
 126 465 l 1
 126 135 l 2
 126 71 152 54 191 54 c 0
 237 54 278 101 278 181 c 2
 278 465 l 1
 350 465 l 1
 350 0 l 1
 295 0 l 1
 286 54 l 1
EndSplineSet
EndChar

StartChar: v
Encoding: 118 118 245
Width: 362
Flags: MW
HStem: 0 111<142 187 183 187 183 221> 445 20G<9 88 88 88 281 354 354 354>
VStem: 9 345<465 465>
LayerCount: 2
Fore
SplineSet
142 0 m 1
 9 465 l 1
 88 465 l 1
 152 227 l 2
 163 188 172 150 183 111 c 1
 187 111 l 1
 196 149 207 187 217 225 c 2
 281 465 l 1
 354 465 l 1
 221 0 l 1
 142 0 l 1
EndSplineSet
EndChar

StartChar: w
Encoding: 119 119 246
Width: 523
Flags: MW
HStem: 0 93<157 161 157 197 117 161 368 371> 372 93<259 263 259 259>
VStem: 1 521<465 465>
LayerCount: 2
Fore
SplineSet
277 265 m 2
 268 313 263 372 263 372 c 1
 259 372 l 1
 259 372 254 314 245 265 c 2
 197 0 l 1
 117 0 l 1
 1 465 l 1
 80 465 l 1
 139 203 l 2
 148 165 157 93 157 93 c 1
 161 93 l 1
 161 93 167 156 175 203 c 2
 222 465 l 1
 306 465 l 1
 354 203 l 2
 362 156 368 93 368 93 c 1
 371 93 l 1
 371 93 378 150 390 203 c 2
 448 465 l 1
 522 465 l 1
 406 0 l 1
 325 0 l 1
 277 265 l 2
EndSplineSet
EndChar

StartChar: wacute
Encoding: 7811 7811 247
Width: 523
Flags: MW
HStem: 0 93<157 161 157 197 117 161 368 371> 372 93<259 263 259 259> 445 20G<1 80 80 80 222 306 306 306 448 522 522 522> 522 117<209 364 209 364>
VStem: 1 521<465 465>
LayerCount: 2
Fore
SplineSet
271 522 m 1xb8
 209 522 l 1
 285 639 l 1
 364 639 l 1
 365 636 l 1
 271 522 l 1xb8
325 0 m 1
 277 265 l 2
 268 313 263 372 263 372 c 1
 259 372 l 1xd8
 259 372 254 314 245 265 c 2
 197 0 l 1
 117 0 l 1
 1 465 l 1
 80 465 l 1
 139 203 l 2
 148 165 157 93 157 93 c 1
 161 93 l 1
 161 93 167 156 175 203 c 2
 222 465 l 1
 306 465 l 1
 354 203 l 2
 362 156 368 93 368 93 c 1
 371 93 l 1
 371 93 378 150 390 203 c 2
 448 465 l 1
 522 465 l 1
 406 0 l 1
 325 0 l 1
EndSplineSet
EndChar

StartChar: wcircumflex
Encoding: 373 373 248
Width: 523
Flags: MW
HStem: 0 93<157 161 157 197 117 161 368 371> 372 93<259 263 259 259> 445 20G<1 80 80 80 222 306 306 306 448 522 522 522> 519 119<151 296 151 296 227 301 227 372>
VStem: 1 521<465 465>
LayerCount: 2
Fore
SplineSet
263 589 m 1xb8
 222 519 l 1
 151 519 l 1
 227 638 l 1
 296 638 l 1
 372 519 l 1
 301 519 l 1
 263 589 l 1xb8
277 265 m 2xd8
 268 313 263 372 263 372 c 1
 259 372 l 1
 259 372 254 314 245 265 c 2
 197 0 l 1
 117 0 l 1
 1 465 l 1
 80 465 l 1
 139 203 l 2
 148 165 157 93 157 93 c 1
 161 93 l 1
 161 93 167 156 175 203 c 2
 222 465 l 1
 306 465 l 1
 354 203 l 2
 362 156 368 93 368 93 c 1
 371 93 l 1
 371 93 378 150 390 203 c 2
 448 465 l 1
 522 465 l 1
 406 0 l 1
 325 0 l 1
 277 265 l 2xd8
EndSplineSet
EndChar

StartChar: wdieresis
Encoding: 7813 7813 249
Width: 523
Flags: MW
HStem: 0 93<157 161 157 197 117 161 368 371> 372 93<259 263 259 259> 445 20G<1 80 80 80 222 306 306 306 448 522 522 522> 555 84<156 233 156 233 289 367 156 289>
VStem: 156 77<555 639 555 639> 289 78<555 639 555 639>
LayerCount: 2
Fore
SplineSet
156 555 m 1xbc
 156 639 l 1
 233 639 l 1
 233 555 l 1
 156 555 l 1xbc
289 555 m 1
 289 639 l 1
 367 639 l 1
 367 555 l 1
 289 555 l 1
325 0 m 1
 277 265 l 2
 268 313 263 372 263 372 c 1
 259 372 l 1xdc
 259 372 254 314 245 265 c 2
 197 0 l 1
 117 0 l 1
 1 465 l 1
 80 465 l 1
 139 203 l 2
 148 165 157 93 157 93 c 1
 161 93 l 1
 161 93 167 156 175 203 c 2
 222 465 l 1
 306 465 l 1
 354 203 l 2
 362 156 368 93 368 93 c 1
 371 93 l 1
 371 93 378 150 390 203 c 2
 448 465 l 1
 522 465 l 1
 406 0 l 1
 325 0 l 1
EndSplineSet
EndChar

StartChar: wgrave
Encoding: 7809 7809 250
Width: 523
Flags: MW
HStem: 0 93<157 161 157 197 117 161 368 371> 372 93<259 263 259 259> 445 20G<1 80 80 80 222 306 306 306 448 522 522 522> 522 117<158 254 158 314>
VStem: 1 521<465 465>
LayerCount: 2
Fore
SplineSet
254 522 m 1xb8
 157 636 l 1
 158 639 l 1
 239 639 l 1
 314 522 l 1
 254 522 l 1xb8
325 0 m 1
 277 265 l 2
 268 313 263 372 263 372 c 1
 259 372 l 1xd8
 259 372 254 314 245 265 c 2
 197 0 l 1
 117 0 l 1
 1 465 l 1
 80 465 l 1
 139 203 l 2
 148 165 157 93 157 93 c 1
 161 93 l 1
 161 93 167 156 175 203 c 2
 222 465 l 1
 306 465 l 1
 354 203 l 2
 362 156 368 93 368 93 c 1
 371 93 l 1
 371 93 378 150 390 203 c 2
 448 465 l 1
 522 465 l 1
 406 0 l 1
 325 0 l 1
EndSplineSet
EndChar

StartChar: x
Encoding: 120 120 251
Width: 362
Flags: MW
HStem: 445 20G<11 99 99 99 270 351 351 351>
VStem: 5 352<0 0>
LayerCount: 2
Fore
SplineSet
270 0 m 1
 179 171 l 1
 85 0 l 1
 5 0 l 1
 141 235 l 1
 11 465 l 1
 99 465 l 1
 183 306 l 1
 270 465 l 1
 351 465 l 1
 221 241 l 1
 357 0 l 1
 270 0 l 1
EndSplineSet
EndChar

StartChar: y
Encoding: 121 121 252
Width: 362
Flags: MW
HStem: -161 58<75.5 78.5 34 126.5> 445 20G<9 88 88 88 281 354 354 354>
VStem: 9 345<465 465>
LayerCount: 2
Fore
SplineSet
236 24 m 2
 209 -78 167 -161 86 -161 c 0
 65 -161 49 -159 34 -154 c 1
 34 -103 l 1
 59 -103 l 2
 98 -103 134 -80 151 0 c 1
 9 465 l 1
 88 465 l 1
 156 226 l 2
 168 186 179 145 191 104 c 1
 194 104 l 1
 224 225 l 1
 281 465 l 1
 354 465 l 1
 236 24 l 2
EndSplineSet
EndChar

StartChar: yacute
Encoding: 253 253 253
Width: 362
Flags: MW
HStem: -161 58<75.5 78.5 34 126.5> 445 20G<9 88 88 88 281 354 354 354> 522 117<129 284 129 284>
VStem: 9 345<465 465>
LayerCount: 2
Fore
SplineSet
190 522 m 1
 129 522 l 1
 204 639 l 1
 284 639 l 1
 285 636 l 1
 190 522 l 1
236 24 m 2
 209 -78 167 -161 86 -161 c 0
 65 -161 49 -159 34 -154 c 1
 34 -103 l 1
 59 -103 l 2
 98 -103 134 -80 151 0 c 1
 9 465 l 1
 88 465 l 1
 156 226 l 2
 168 186 179 145 191 104 c 1
 194 104 l 1
 224 225 l 1
 281 465 l 1
 354 465 l 1
 236 24 l 2
EndSplineSet
EndChar

StartChar: ycircumflex
Encoding: 375 375 254
Width: 362
Flags: MW
HStem: -161 58<75.5 78.5 34 126.5> 445 20G<9 88 88 88 281 354 354 354> 519 119<72 217 72 217 148 221 148 292>
VStem: 9 345<465 465>
LayerCount: 2
Fore
SplineSet
182 589 m 1
 142 519 l 1
 72 519 l 1
 148 638 l 1
 217 638 l 1
 292 519 l 1
 221 519 l 1
 182 589 l 1
236 24 m 2
 209 -78 167 -161 86 -161 c 0
 65 -161 49 -159 34 -154 c 1
 34 -103 l 1
 59 -103 l 2
 98 -103 134 -80 151 0 c 1
 9 465 l 1
 88 465 l 1
 156 226 l 2
 168 186 179 145 191 104 c 1
 194 104 l 1
 224 225 l 1
 281 465 l 1
 354 465 l 1
 236 24 l 2
EndSplineSet
EndChar

StartChar: ydieresis
Encoding: 255 255 255
Width: 362
Flags: MW
HStem: -161 58<75.5 78.5 34 126.5> 445 20G<9 88 88 88 281 354 354 354> 555 84<76 153 76 153 209 286 76 209>
VStem: 76 77<555 639 555 639> 209 77<555 639 555 639>
LayerCount: 2
Fore
SplineSet
76 555 m 1
 76 639 l 1
 153 639 l 1
 153 555 l 1
 76 555 l 1
209 555 m 1
 209 639 l 1
 286 639 l 1
 286 555 l 1
 209 555 l 1
236 24 m 2
 209 -78 167 -161 86 -161 c 0
 65 -161 49 -159 34 -154 c 1
 34 -103 l 1
 59 -103 l 2
 98 -103 134 -80 151 0 c 1
 9 465 l 1
 88 465 l 1
 156 226 l 2
 168 186 179 145 191 104 c 1
 194 104 l 1
 224 225 l 1
 281 465 l 1
 354 465 l 1
 236 24 l 2
EndSplineSet
EndChar

StartChar: ygrave
Encoding: 7923 7923 256
Width: 362
Flags: MW
HStem: -161 58<75.5 78.5 34 126.5> 445 20G<9 88 88 88 281 354 354 354> 522 117<78 173 78 234>
VStem: 9 345<465 465>
LayerCount: 2
Fore
SplineSet
173 522 m 1
 77 636 l 1
 78 639 l 1
 158 639 l 1
 234 522 l 1
 173 522 l 1
236 24 m 2
 209 -78 167 -161 86 -161 c 0
 65 -161 49 -159 34 -154 c 1
 34 -103 l 1
 59 -103 l 2
 98 -103 134 -80 151 0 c 1
 9 465 l 1
 88 465 l 1
 156 226 l 2
 168 186 179 145 191 104 c 1
 194 104 l 1
 224 225 l 1
 281 465 l 1
 354 465 l 1
 236 24 l 2
EndSplineSet
EndChar

StartChar: z
Encoding: 122 122 257
Width: 362
Flags: MW
HStem: 0 65<122 339 122 339> 400 65<37 227 37 327>
VStem: 23 316<0 34 34 34>
LayerCount: 2
Fore
SplineSet
339 65 m 1
 339 0 l 1
 23 0 l 1
 23 34 l 1
 227 400 l 1
 37 400 l 1
 37 465 l 1
 327 465 l 1
 327 431 l 1
 122 65 l 1
 339 65 l 1
EndSplineSet
EndChar

StartChar: zacute
Encoding: 378 378 258
Width: 362
Flags: MW
HStem: 0 65<122 339 122 339> 400 65<37 227 37 327> 522 117<129 284 129 284>
VStem: 23 316<0 34 34 34>
LayerCount: 2
Fore
SplineSet
190 522 m 1
 129 522 l 1
 204 639 l 1
 284 639 l 1
 285 636 l 1
 190 522 l 1
122 65 m 1
 339 65 l 1
 339 0 l 1
 23 0 l 1
 23 34 l 1
 227 400 l 1
 37 400 l 1
 37 465 l 1
 327 465 l 1
 327 431 l 1
 122 65 l 1
EndSplineSet
EndChar

StartChar: zcaron
Encoding: 382 382 259
Width: 362
Flags: MW
HStem: 0 65<122 339 122 339> 400 65<37 227 37 327> 520 119<72 216 72 147>
VStem: 23 316<0 34 34 34>
LayerCount: 2
Fore
SplineSet
72 639 m 1
 142 639 l 1
 181 569 l 1
 221 639 l 1
 292 639 l 1
 216 520 l 1
 147 520 l 1
 72 639 l 1
339 65 m 1
 339 0 l 1
 23 0 l 1
 23 34 l 1
 227 400 l 1
 37 400 l 1
 37 465 l 1
 327 465 l 1
 327 431 l 1
 122 65 l 1
 339 65 l 1
EndSplineSet
EndChar

StartChar: zdotaccent
Encoding: 380 380 260
Width: 362
Flags: MW
HStem: 0 65<122 339 122 339> 400 65<37 227 37 327> 555 84<143 220 143 220>
VStem: 143 77<555 639 555 639>
LayerCount: 2
Fore
SplineSet
143 639 m 1
 220 639 l 1
 220 555 l 1
 143 555 l 1
 143 639 l 1
339 65 m 1
 339 0 l 1
 23 0 l 1
 23 34 l 1
 227 400 l 1
 37 400 l 1
 37 465 l 1
 327 465 l 1
 327 431 l 1
 122 65 l 1
 339 65 l 1
EndSplineSet
EndChar

StartChar: fi
Encoding: 64257 64257 261
Width: 362
Flags: MW
HStem: 400 65<8 49 8 49 121 202> 552 87<246 318 246 318> 585 61<149 151.5 105.5 163 105.5 202>
VStem: 49 72<0 400 0 400 465 539 539 543> 246 72<0 465 0 465 552 639>
LayerCount: 2
Fore
SplineSet
49 539 m 2xb8
 49 592 70 646 141 646 c 0
 162 646 187 641 202 636 c 1
 202 585 l 1
 163 585 l 2
 135 585 121 570 121 543 c 2
 121 465 l 1
 202 465 l 1
 202 400 l 1
 121 400 l 1
 121 0 l 1
 49 0 l 1
 49 400 l 1
 8 400 l 1
 8 465 l 1
 49 465 l 1
 49 539 l 2xb8
246 639 m 1xd8
 318 639 l 1
 318 552 l 1
 246 552 l 1
 246 639 l 1xd8
246 465 m 1
 318 465 l 1
 318 0 l 1
 246 0 l 1
 246 465 l 1
EndSplineSet
Ligature2: "'liga' Standard Ligatures lookup 7 subtable" f i
EndChar

StartChar: fl
Encoding: 64258 64258 262
Width: 362
Flags: MW
HStem: 400 65<8 49 8 49 121 202> 585 54<163 318> 585 61<149 151.5 105.5 163 105.5 202>
VStem: 49 72<0 400 0 400 465 539 539 543> 246 72<0 639 0 639>
LayerCount: 2
Fore
SplineSet
49 539 m 2xb8
 49 592 70 646 141 646 c 0
 162 646 187 641 202 636 c 1
 202 585 l 1
 163 585 l 2
 135 585 121 570 121 543 c 2
 121 465 l 1
 202 465 l 1
 202 400 l 1
 121 400 l 1
 121 0 l 1
 49 0 l 1
 49 400 l 1
 8 400 l 1
 8 465 l 1
 49 465 l 1
 49 539 l 2xb8
246 639 m 1xd8
 318 639 l 1
 318 0 l 1
 246 0 l 1
 246 639 l 1xd8
EndSplineSet
Ligature2: "'liga' Standard Ligatures lookup 7 subtable" f l
EndChar

StartChar: nsuperior
Encoding: 8319 8319 263
Width: 264
Flags: MW
HStem: 588 20G<79 79> 603 40 603 47<140 152.5>
VStem: 31 53<326 519 326 643> 182 52<326 549 549 552 326 570>
LayerCount: 2
Fore
SplineSet
79 608 m 1x98
 95 637 124 650 156 650 c 0
 203 650 234 624 234 552 c 2x38
 234 326 l 1
 182 326 l 1
 182 549 l 2
 182 591 165 603 140 603 c 0
 110 603 84 572 84 519 c 2
 84 326 l 1
 31 326 l 1
 31 643 l 1
 72 643 l 1x58
 79 608 l 1x98
EndSplineSet
EndChar

StartChar: Delta
Encoding: 916 916 264
Width: 494
Flags: MW
HStem: 0 74<103 385 103 484> 521 85<245 248 245 245> 586 20G<199 299 299 299>
VStem: 14 470<0 34 0 34>
LayerCount: 2
Fore
SplineSet
484 0 m 1xb0
 14 0 l 1
 14 34 l 1
 199 606 l 1
 299 606 l 1
 484 34 l 1
 484 0 l 1xb0
103 74 m 1
 385 74 l 1
 248 521 l 1
 245 521 l 1xd0
 103 74 l 1
EndSplineSet
Position2: "'cpsp' Capital Spacing lookup 0 subtable" dx=5 dy=0 dh=10 dv=0
EndChar

StartChar: Omega
Encoding: 937 937 265
Width: 679
Flags: MW
HStem: 0 74<101 123 123 130 101 310 101 123 556 578> 545 72<290.5 388>
VStem: 101 81<251.5 270 270 325 206.5 408.5> 497 81<266 325 325 399>
LayerCount: 2
Fore
SplineSet
123 74 m 2
 137 74 157 72 182 71 c 1
 130 123 101 200 101 303 c 0
 101 514 191 617 339 617 c 0
 488 617 578 514 578 303 c 0
 578 200 548 123 496 71 c 1
 515 72 534 74 556 74 c 2
 578 74 l 1
 578 0 l 1
 368 0 l 1
 368 54 l 1
 448 71 497 141 497 266 c 2
 497 325 l 2
 497 473 437 545 339 545 c 0
 242 545 182 473 182 325 c 2
 182 270 l 2
 182 143 231 72 310 54 c 1
 310 0 l 1
 101 0 l 1
 101 74 l 1
 123 74 l 2
EndSplineSet
Position2: "'cpsp' Capital Spacing lookup 0 subtable" dx=5 dy=0 dh=10 dv=0
EndChar

StartChar: mu
Encoding: 956 956 266
Width: 403
Flags: MW
HStem: -11 65<172.5 191> 445 20G<53 126 126 126 278 350 350 350>
VStem: 53 73<-153 -4 97.5 126 126 465> 278 72<181 465 0 465>
LayerCount: 2
Fore
SplineSet
286 54 m 1
 280 54 l 1
 255 8 214 -11 168 -11 c 0
 152 -11 138 -9 126 -4 c 1
 126 -153 l 1
 53 -153 l 1
 53 465 l 1
 126 465 l 1
 126 126 l 2
 126 69 154 54 191 54 c 0
 237 54 278 101 278 181 c 2
 278 465 l 1
 350 465 l 1
 350 0 l 1
 295 0 l 1
 286 54 l 1
EndSplineSet
EndChar

StartChar: pi
Encoding: 960 960 267
Width: 492
Flags: MW
HStem: 400 65<91 476 188 327 188 188 400 400 400 469>
VStem: 116 72<400 400> 327 73<130 138 138 400>
LayerCount: 2
Fore
SplineSet
400 138 m 2
 400 65 404 27 411 0 c 1
 340 0 l 1
 332 14 327 59 327 130 c 2
 327 400 l 1
 188 400 l 1
 183 286 159 79 131 0 c 1
 59 0 l 1
 88 94 113 286 116 400 c 1
 66 400 40 397 21 389 c 1
 11 438 l 1
 31 455 70 465 139 465 c 2
 476 465 l 1
 469 400 l 1
 400 400 l 1
 400 138 l 2
EndSplineSet
EndChar

StartChar: uni093E
Encoding: 2366 2366 268
Width: 207
GlyphClass: 2
Flags: MW
HStem: 541 65<-22 67 -22 229 140 229 140 140>
VStem: 67 73<0 541 0 541>
AnchorPoint: "Anchor-1" 106 0 basechar 0
AnchorPoint: "Anchor-0" 106 606 basechar 0
LayerCount: 2
Fore
SplineSet
229 541 m 1
 140 541 l 1
 140 0 l 1
 67 0 l 1
 67 541 l 1
 -22 541 l 1
 -22 606 l 1
 229 606 l 1
 229 541 l 1
EndSplineSet
EndChar

StartChar: uni094C
Encoding: 2380 2380 269
Width: 207
GlyphClass: 2
Flags: MW
HStem: 541 65<-22 -8 56 67 -22 -8 140 229 140 140>
VStem: 65 72<743 821 606 821> 67 73<0 541 0 541>
LayerCount: 2
Fore
SplineSet
229 606 m 1xc0
 229 541 l 1xc0
 140 541 l 1
 140 0 l 1
 67 0 l 1
 67 541 l 1
 -22 541 l 1
 -22 606 l 1
 -8 606 l 1xa0
 -76 821 l 1
 -3 821 l 1
 56 606 l 1
 73 606 l 1
 68 652 65 697 65 743 c 2
 65 821 l 1
 137 821 l 1
 137 606 l 1
 229 606 l 1xc0
EndSplineSet
EndChar

StartChar: uni093F
Encoding: 2367 2367 270
Width: 207
GlyphClass: 2
Flags: MW
HStem: 541 65<-22 67 -22 67 140 229> 764 65<202 274.5>
VStem: 67 73<0 541 0 541 606 628>
AnchorPoint: "Anchor-1" 101 0 basechar 0
AnchorPoint: "Anchor-0" 101 606 basechar 0
LayerCount: 2
Fore
SplineSet
67 636 m 2
 67 692 88 829 251 829 c 0
 309 829 397 804 518 743 c 1
 518 673 l 1
 386 742 299 764 250 764 c 0
 154 764 140 686 140 628 c 2
 140 606 l 1
 229 606 l 1
 229 541 l 1
 140 541 l 1
 140 0 l 1
 67 0 l 1
 67 541 l 1
 -22 541 l 1
 -22 606 l 1
 67 606 l 1
 67 636 l 2
EndSplineSet
EndChar

StartChar: uni0940
Encoding: 2368 2368 271
Width: 203
GlyphClass: 2
Flags: MW
HStem: 541 65<-22 67 -22 67 140 229> 763 64<-19.5 30>
VStem: -131 72<673 737> 67 73<0 541 0 541 606 685 685 695>
AnchorPoint: "Anchor-1" 101 0 basechar 0
AnchorPoint: "Anchor-0" 101 606 basechar 0
LayerCount: 2
Fore
SplineSet
229 606 m 1
 229 541 l 1
 140 541 l 1
 140 0 l 1
 67 0 l 1
 67 541 l 1
 -22 541 l 1
 -22 606 l 1
 67 606 l 1
 67 685 l 2
 67 731 55 763 5 763 c 0
 -44 763 -59 722 -59 684 c 2
 -59 673 l 1
 -130 673 l 1
 -131 678 -131 685 -131 693 c 0
 -131 781 -73 827 8 827 c 0
 96 827 140 779 140 695 c 2
 140 606 l 1
 229 606 l 1
EndSplineSet
EndChar

StartChar: ovowelsigndeva
Encoding: 2379 2379 272
Width: 207
GlyphClass: 2
Flags: MW
HStem: 541 65<-22 67 -22 69 140 229 140 140>
VStem: 67 73<0 541 0 541>
LayerCount: 2
Fore
SplineSet
229 606 m 1
 229 541 l 1
 140 541 l 1
 140 0 l 1
 67 0 l 1
 67 541 l 1
 -22 541 l 1
 -22 606 l 1
 69 606 l 1
 1 821 l 1
 74 821 l 1
 133 606 l 1
 229 606 l 1
EndSplineSet
EndChar

StartChar: uni094A
Encoding: 2378 2378 273
Width: 207
GlyphClass: 2
Flags: MW
HStem: 541 65<-22 67 -22 67 140 229 140 140> 707 61<-203 -170.5> 726 62<-5 35.5>
VStem: -301 65<795.5 810.5> 67 73<0 541 0 541 0 656>
LayerCount: 2
Fore
SplineSet
229 606 m 1xb8
 229 541 l 1
 140 541 l 1
 140 0 l 1
 67 0 l 1
 67 541 l 1
 -22 541 l 1
 -22 606 l 1
 67 606 l 1
 67 656 l 2
 67 697 55 726 16 726 c 0xb8
 -26 726 -145 707 -196 707 c 0
 -274 707 -301 748 -301 805 c 0
 -301 816 -301 827 -300 837 c 1
 -236 837 l 1
 -236 813 l 2
 -236 778 -220 768 -186 768 c 0xd8
 -144 768 -34 788 15 788 c 0
 121 788 139 731 139 656 c 2
 139 606 l 1
 229 606 l 1xb8
EndSplineSet
EndChar

StartChar: adeva
Encoding: 2309 2309 274
Width: 604
GlyphClass: 2
Flags: MW
HStem: 52 64<158 207 158 231> 236 65<337 465 337 337> 308 62<139 180 139 182> 541 65<421 465 421 616 537 616 537 537> 554 63<165.5 206>
VStem: 32 74<208 216 176 216> 42 74<459 468 459 475 459 519> 139 119<342 345 342 370 342 370> 255 74<436 494.5> 264 75<182 213.5 160.5 247.5> 465 72<0 236 236 236 301 541 0 541>
AnchorPoint: "Anchor-1" 503 0 basechar 0
AnchorPoint: "Anchor-0" 503 606 basechar 0
LayerCount: 2
Fore
SplineSet
616 541 m 1xd2a0
 537 541 l 1
 537 0 l 1
 465 0 l 1
 465 236 l 1
 337 236 l 1xd260
 338 227 339 218 339 209 c 0
 339 112 278 52 184 52 c 0
 88 52 32 110 32 208 c 2
 32 216 l 1
 106 216 l 1
 106 205 l 2
 106 147 134 116 182 116 c 0
 232 116 264 150 264 214 c 0
 264 281 228 308 180 308 c 2xb460
 139 308 l 1
 139 370 l 1xb320
 182 370 l 2
 224 370 255 402 255 464 c 0
 255 525 226 554 186 554 c 0
 145 554 116 527 116 468 c 2
 116 459 l 1
 42 459 l 1
 42 475 l 2
 42 563 101 617 186 617 c 0
 274 617 329 564 329 470 c 0xaaa0
 329 402 299 366 258 345 c 1
 258 342 l 1
 280 335 299 321 313 301 c 1xd320
 465 301 l 1
 465 541 l 1
 421 541 l 1
 421 606 l 1
 616 606 l 1
 616 541 l 1xd2a0
EndSplineSet
EndChar

StartChar: uni0904
Encoding: 2308 2308 275
Width: 604
GlyphClass: 2
Flags: MW
HStem: 52 64<158 207 158 231> 236 65<337 465 337 337> 308 62<139 180 139 182> 541 65<421 464 421 465 421 464 537 616 537 537> 554 63<165.5 206> 707 61<194 226.5> 726 62<392 432.5>
VStem: 32 74<208 216 176 216> 42 74<459 468 459 475 459 519> 96 65<795.5 810.5> 139 119<342 345 342 370 342 370> 255 74<436 494.5> 264 75<182 213.5 160.5 247.5> 465 72<0 236 236 236 301 541 0 541>
AnchorPoint: "Anchor-1" 302 0 basechar 0
AnchorPoint: "Anchor-0" 302 465 basechar 0
LayerCount: 2
Fore
SplineSet
616 606 m 1xd254
 616 541 l 1
 537 541 l 1
 537 0 l 1
 465 0 l 1
 465 236 l 1
 337 236 l 1xd24c
 338 227 339 218 339 209 c 0
 339 112 278 52 184 52 c 0
 88 52 32 110 32 208 c 2
 32 216 l 1
 106 216 l 1
 106 205 l 2
 106 147 134 116 182 116 c 0
 232 116 264 150 264 214 c 0
 264 281 228 308 180 308 c 2xb30c
 139 308 l 1
 139 370 l 1xb224
 182 370 l 2
 224 370 255 402 255 464 c 0
 255 525 226 554 186 554 c 0
 145 554 116 527 116 468 c 2
 116 459 l 1
 42 459 l 1
 42 475 l 2
 42 563 101 617 186 617 c 0
 274 617 329 564 329 470 c 0xaa94
 329 402 299 366 258 345 c 1
 258 342 l 1
 280 335 299 321 313 301 c 1
 465 301 l 1
 465 541 l 1
 421 541 l 1
 421 606 l 1
 464 606 l 1
 464 656 l 2
 464 697 452 726 413 726 c 0xd224
 371 726 252 707 201 707 c 0
 123 707 96 748 96 805 c 0
 96 816 96 827 97 837 c 1
 161 837 l 1
 161 813 l 2
 161 778 177 768 211 768 c 0xd454
 253 768 363 788 412 788 c 0
 518 788 536 731 536 656 c 2
 536 606 l 1
 616 606 l 1xd254
EndSplineSet
EndChar

StartChar: aadeva
Encoding: 2310 2310 276
Width: 811
GlyphClass: 2
Flags: MW
HStem: 52 64<158 207 158 231> 236 65<337 465 337 337> 308 62<139 180 139 182> 541 65<421 465 421 833 537 671 537 537 744 833 744 744> 554 63<165.5 206>
VStem: 32 74<208 216 176 216> 42 74<459 468 459 475 459 519> 139 119<342 345 342 370 342 370> 255 74<436 494.5> 264 75<182 213.5 160.5 247.5> 465 72<0 236 236 236 301 541 0 541> 671 73<0 541 0 541>
AnchorPoint: "Anchor-1" 712 0 basechar 0
AnchorPoint: "Anchor-0" 712 606 basechar 0
LayerCount: 2
Fore
SplineSet
833 606 m 1xd2b0
 833 541 l 1
 744 541 l 1
 744 0 l 1
 671 0 l 1
 671 541 l 1
 537 541 l 1
 537 0 l 1
 465 0 l 1
 465 236 l 1
 337 236 l 1xd270
 338 227 339 218 339 209 c 0
 339 112 278 52 184 52 c 0
 88 52 32 110 32 208 c 2
 32 216 l 1
 106 216 l 1
 106 205 l 2
 106 147 134 116 182 116 c 0
 232 116 264 150 264 214 c 0
 264 281 228 308 180 308 c 2xb470
 139 308 l 1
 139 370 l 1xb330
 182 370 l 2
 224 370 255 402 255 464 c 0
 255 525 226 554 186 554 c 0
 145 554 116 527 116 468 c 2
 116 459 l 1
 42 459 l 1
 42 475 l 2
 42 563 101 617 186 617 c 0
 274 617 329 564 329 470 c 0xaab0
 329 402 299 366 258 345 c 1
 258 342 l 1
 280 335 299 321 313 301 c 1xd330
 465 301 l 1
 465 541 l 1
 421 541 l 1
 421 606 l 1
 833 606 l 1xd2b0
EndSplineSet
EndChar

StartChar: aideva
Encoding: 2320 2320 277
Width: 413
GlyphClass: 2
Flags: MW
HStem: 242 61<221 294> 541 65<-22 67 -22 276 139 274 139 139 347 436 347 347>
VStem: 67 72<274 279 279 541> 274 73<341 344 344 541> 277 70<-8 -4>
AnchorPoint: "Anchor-1" 207 0 basechar 0
AnchorPoint: "Anchor-0" 207 465 basechar 0
LayerCount: 2
Fore
SplineSet
436 606 m 1x70
 436 541 l 1
 347 541 l 1
 347 344 l 2
 347 294 327 242 261 242 c 0
 247 242 235 244 221 247 c 1
 221 303 l 1
 238 303 l 2
 259 303 274 317 274 341 c 2
 274 541 l 1xf0
 139 541 l 1
 139 279 l 2
 139 260 143 246 153 235 c 2
 306 80 l 2
 332 53 347 27 347 2 c 0
 347 -18 342 -36 331 -57 c 1
 271 -57 l 1
 276 -34 277 -17 277 -12 c 0
 277 4 272 17 258 32 c 2x68
 95 199 l 2
 73 223 67 244 67 274 c 2
 67 541 l 1
 -22 541 l 1
 -22 606 l 1
 276 606 l 1
 208 821 l 1
 281 821 l 1
 340 606 l 1
 436 606 l 1x70
EndSplineSet
EndChar

StartChar: audeva
Encoding: 2324 2324 278
Width: 811
GlyphClass: 2
Flags: MW
HStem: 52 64<158 207 158 231> 236 65<337 465 337 337> 308 62<139 180 139 182> 541 65<421 465 421 596 537 596 660 671 537 537 744 833 744 744> 554 63<165.5 206>
VStem: 32 74<208 216 176 216> 42 74<459 468 459 475 459 519> 139 119<342 345 342 370 342 370> 255 74<436 494.5> 264 75<182 213.5 160.5 247.5> 465 72<0 236 236 236 301 541 0 541> 669 72<743 821 606 821> 671 73<0 541 0 541>
AnchorPoint: "Anchor-1" 406 0 basechar 0
AnchorPoint: "Anchor-0" 406 465 basechar 0
LayerCount: 2
Fore
SplineSet
833 606 m 1xd330
 833 541 l 1xd2b0
 744 541 l 1
 744 0 l 1
 671 0 l 1
 671 541 l 1
 537 541 l 1
 537 0 l 1
 465 0 l 1
 465 236 l 1
 337 236 l 1xd268
 338 227 339 218 339 209 c 0
 339 112 278 52 184 52 c 0
 88 52 32 110 32 208 c 2
 32 216 l 1
 106 216 l 1
 106 205 l 2
 106 147 134 116 182 116 c 0
 232 116 264 150 264 214 c 0
 264 281 228 308 180 308 c 2xb468
 139 308 l 1
 139 370 l 1xb328
 182 370 l 2
 224 370 255 402 255 464 c 0
 255 525 226 554 186 554 c 0
 145 554 116 527 116 468 c 2
 116 459 l 1
 42 459 l 1
 42 475 l 2
 42 563 101 617 186 617 c 0
 274 617 329 564 329 470 c 0xaaa8
 329 402 299 366 258 345 c 1
 258 342 l 1
 280 335 299 321 313 301 c 1
 465 301 l 1
 465 541 l 1
 421 541 l 1
 421 606 l 1
 596 606 l 1
 528 821 l 1
 601 821 l 1
 660 606 l 1
 677 606 l 1
 672 652 669 697 669 743 c 2
 669 821 l 1
 741 821 l 1
 741 606 l 1
 833 606 l 1xd330
EndSplineSet
EndChar

StartChar: uni092C
Encoding: 2348 2348 279
Width: 385
GlyphClass: 2
Flags: MW
HStem: 111 65<150.5 179> 405 32 405 64<168.5 179 121 200> 541 65<-12 248 -12 410 321 410 321 321>
VStem: 28 75<242 279 279 301 242 355.5> 248 73<0 145 145 145 279 301 301 335.5 437 541 0 541>
AnchorPoint: "Anchor-1" 285 0 basechar 0
AnchorPoint: "Anchor-0" 285 606 basechar 0
LayerCount: 2
Fore
SplineSet
410 606 m 1xbc
 410 541 l 1
 321 541 l 1
 321 0 l 1
 248 0 l 1
 248 145 l 1
 244 145 l 1
 227 126 199 111 159 111 c 0
 80 111 28 165 28 291 c 0
 28 420 83 469 159 469 c 0xbc
 199 469 227 456 244 437 c 1
 248 437 l 1xdc
 248 541 l 1
 -12 541 l 1
 -12 606 l 1
 410 606 l 1xbc
248 301 m 2
 248 370 225 405 175 405 c 0
 162 405 150 403 140 398 c 1
 239 218 l 1
 245 234 248 254 248 279 c 2
 248 301 l 2
103 279 m 2
 103 205 126 176 175 176 c 0
 188 176 200 178 209 183 c 1
 111 363 l 1
 106 348 103 327 103 301 c 2
 103 279 l 2
EndSplineSet
EndChar

StartChar: bhadeva
Encoding: 2349 2349 280
Width: 530
GlyphClass: 2
Flags: MW
HStem: 94 65<147 171.5 147 193> 250 66<146 200 158 200 272 391> 541 65<347 391 347 541 463 541 463 463> 552 65<140 172.5>
VStem: 39 73<491.5 493 459 539> 44 72<192.5 219 192.5 238.5> 200 72<206 250 172.5 250 316 495 495 504> 391 72<0 250 250 250 316 541 0 541>
AnchorPoint: "Anchor-1" 427 0 basechar 0
AnchorPoint: "Anchor-0" 427 606 basechar 0
LayerCount: 2
Fore
SplineSet
541 541 m 1xeb
 463 541 l 1
 463 0 l 1
 391 0 l 1
 391 250 l 1
 272 250 l 1
 272 206 l 2
 272 139 227 94 159 94 c 0
 93 94 44 141 44 206 c 0xe7
 44 271 90 316 158 316 c 2
 200 316 l 1
 200 495 l 2
 200 527 190 552 155 552 c 0
 125 552 112 527 112 493 c 2
 112 459 l 1
 45 459 l 1
 43 468 39 481 39 502 c 0
 39 576 93 617 160 617 c 0xdb
 233 617 272 575 272 504 c 2
 272 316 l 1
 391 316 l 1
 391 541 l 1
 347 541 l 1
 347 606 l 1
 541 606 l 1
 541 541 l 1xeb
200 250 m 1
 158 250 l 2
 134 250 116 232 116 206 c 0
 116 179 135 159 159 159 c 0
 184 159 200 178 200 206 c 2
 200 250 l 1
EndSplineSet
EndChar

StartChar: cadeva
Encoding: 2330 2330 281
Width: 429
GlyphClass: 2
Flags: MW
HStem: 103 64<192.5 221> 357 66<12 98 12 232 192.5 217 217 232> 541 65<-35 290 -35 452 363 452 363 363>
VStem: 70 75<222 253 253 271 222 281> 290 73<0 136 136 136 271 541 0 541>
AnchorPoint: "Anchor-1" 327 0 basechar 0
AnchorPoint: "Anchor-0" 327 606 basechar 0
LayerCount: 2
Fore
SplineSet
452 606 m 1
 452 541 l 1
 363 541 l 1
 363 0 l 1
 290 0 l 1
 290 136 l 1
 286 136 l 1
 269 117 241 103 201 103 c 0
 121 103 70 150 70 259 c 0
 70 303 80 335 98 357 c 1
 12 357 l 1
 12 423 l 1
 232 423 l 1
 232 357 l 1
 217 357 l 2
 168 357 145 333 145 271 c 2
 145 253 l 2
 145 191 168 167 217 167 c 0
 267 167 290 202 290 271 c 2
 290 541 l 1
 -35 541 l 1
 -35 606 l 1
 452 606 l 1
EndSplineSet
EndChar

StartChar: chadeva
Encoding: 2331 2331 282
Width: 461
GlyphClass: 2
Flags: MW
HStem: 52 62<183 256 183 272> 312 61<170 171 171 182> 541 65<-22 60 -22 483 138 150 150 295 368 483 368 368>
VStem: 39 75<178 245> 227 68<331 380> 295 73<442 541 442 541> 364 74<258.5 339.5>
AnchorPoint: "Anchor-1" 231 0 basechar 0
AnchorPoint: "Anchor-0" 335 606 basechar 0
LayerCount: 2
Fore
SplineSet
368 541 m 1xf4
 368 442 l 1xf4
 414 427 438 383 438 318 c 0xf2
 438 162 343 52 201 52 c 0
 108 52 39 109 39 210 c 0
 39 280 72 326 115 347 c 1
 73 356 40 398 40 462 c 0
 40 497 47 523 60 541 c 1
 -22 541 l 1
 -22 606 l 1
 483 606 l 1
 483 541 l 1
 368 541 l 1xf4
295 541 m 1
 150 541 l 2
 126 541 114 512 114 470 c 0
 114 403 139 373 170 373 c 2
 182 373 l 1
 182 312 l 1
 171 312 l 2
 142 312 114 288 114 214 c 0
 114 142 156 114 210 114 c 0
 302 114 364 199 364 318 c 0
 364 361 352 387 328 387 c 0
 305 387 295 367 295 348 c 2
 295 331 l 1
 231 331 l 1
 229 335 227 346 227 358 c 0xfa
 227 402 257 431 295 442 c 1
 295 541 l 1
EndSplineSet
EndChar

StartChar: dadeva
Encoding: 2342 2342 283
Width: 363
GlyphClass: 2
Flags: MW
HStem: 0 209<236 308 236 308> 75 66<153.5 173.5> 370 64<166 227 191 227 191 299> 541 65<-15 227 -15 379 299 299 299 379>
VStem: 28 75<214 290 214 308.5> 227 72<434 541 370 541> 236 72<0 107 107 107 182 209 0 209>
AnchorPoint: "Anchor-1" 272 0 basechar 0
AnchorPoint: "Anchor-0" 262 606 basechar 0
LayerCount: 2
Fore
SplineSet
191 370 m 2x3a
 141 370 103 331 103 249 c 0
 103 179 133 141 174 141 c 0
 200 141 220 157 236 182 c 1x7a
 236 209 l 1
 308 209 l 1
 308 0 l 1
 236 0 l 1xba
 236 107 l 1x7a
 218 91 191 75 156 75 c 0
 84 75 28 131 28 249 c 0
 28 368 90 434 191 434 c 2
 227 434 l 1
 227 541 l 1
 -15 541 l 1
 -15 606 l 1
 379 606 l 1
 379 541 l 1
 299 541 l 1
 299 370 l 1x7c
 191 370 l 2x3a
EndSplineSet
EndChar

StartChar: ddadeva
Encoding: 2337 2337 284
Width: 352
GlyphClass: 2
Flags: MW
HStem: -11 64<157 191.5 157 212.5> 370 64<164 214 187 214 187 286> 541 65<-16 214 -16 369 286 286 286 369>
VStem: 31 77<107 131.5> 38 76<280 325.5 280 347.5> 214 72<434 541 370 541> 236 76<98 147.5>
AnchorPoint: "Anchor-1" 175 0 basechar 0
AnchorPoint: "Anchor-0" 251 606 basechar 0
LayerCount: 2
Fore
SplineSet
183 370 m 2xec
 145 370 114 346 114 305 c 0xec
 114 255 155 250 189 246 c 0
 265 239 312 210 312 126 c 0
 312 33 253 -11 172 -11 c 0
 71 -11 31 56 31 126 c 0
 31 137 32 143 32 145 c 2
 108 145 l 1
 108 136 l 2
 108 78 139 53 175 53 c 0
 208 53 236 75 236 121 c 0xf2
 236 174 199 178 164 182 c 0
 86 188 38 222 38 303 c 0
 38 392 100 434 187 434 c 2
 214 434 l 1
 214 541 l 1
 -16 541 l 1
 -16 606 l 1
 369 606 l 1
 369 541 l 1
 286 541 l 1
 286 370 l 1
 183 370 l 2xec
EndSplineSet
EndChar

StartChar: ddhadeva
Encoding: 2338 2338 285
Width: 381
GlyphClass: 2
Flags: MW
HStem: 51 65<165 221 165 237> 225 64<217.5 233.5> 370 64<169.5 227 201 227 201 299> 541 65<-15 227 -15 397 299 299 299 397>
VStem: 28 76<194 278 194 300.5> 227 72<434 541 370 541> 269 73<161.5 192>
AnchorPoint: "Anchor-1" 198 0 basechar 0
AnchorPoint: "Anchor-0" 262 606 basechar 0
LayerCount: 2
Fore
SplineSet
201 370 m 2xfc
 138 370 104 320 104 236 c 0
 104 152 132 116 198 116 c 0
 244 116 269 146 269 177 c 0
 269 207 248 225 219 225 c 0
 204 225 190 219 177 210 c 1
 177 279 l 1
 192 284 207 289 228 289 c 0
 296 289 342 245 342 176 c 0xfa
 342 99 279 51 195 51 c 0
 87 51 28 117 28 239 c 0
 28 362 89 434 201 434 c 2
 227 434 l 1
 227 541 l 1
 -15 541 l 1
 -15 606 l 1
 397 606 l 1
 397 541 l 1
 299 541 l 1
 299 370 l 1
 201 370 l 2xfc
EndSplineSet
EndChar

StartChar: dhadeva
Encoding: 2343 2343 286
Width: 451
GlyphClass: 2
Flags: MW
HStem: 124 62<180.5 223> 351 61<195 196 196 227> 499 107<173 473> 541 65<281 311 281 473 384 473 384 384> 552 65<133.5 155>
VStem: 39 75<240 296> 173 73<499 557 522 526.5> 311 73<0 167 167 167 313 541 0 541>
AnchorPoint: "Anchor-1" 350 0 basechar 0
AnchorPoint: "Anchor-0" 350 606 basechar 0
LayerCount: 2
Fore
SplineSet
473 541 m 1xd7
 384 541 l 1xd7
 384 0 l 1
 311 0 l 1
 311 167 l 1
 286 139 248 124 198 124 c 0
 106 124 39 176 39 265 c 0
 39 327 72 368 115 386 c 1
 72 401 40 437 40 504 c 0
 40 576 74 617 141 617 c 0
 198 617 246 586 246 528 c 0xcf
 246 516 244 505 242 499 c 1
 173 499 l 1xe7
 173 518 l 2
 173 535 165 552 145 552 c 0xcf
 122 552 114 528 114 499 c 0
 114 439 151 412 195 412 c 2
 227 412 l 1
 227 351 l 1
 196 351 l 2
 154 351 114 331 114 270 c 0
 114 210 154 186 207 186 c 0
 275 186 311 225 311 313 c 2
 311 541 l 1
 281 541 l 1
 281 606 l 1
 473 606 l 1
 473 541 l 1xd7
EndSplineSet
EndChar

StartChar: edeva
Encoding: 2319 2319 287
Width: 413
GlyphClass: 2
Flags: MW
HStem: 242 61<221 294> 541 65<-22 67 -22 436 139 274 139 139 347 436 347 347>
VStem: 67 72<274 279 279 541> 274 73<341 344 344 541> 277 70<-8 -4>
AnchorPoint: "Anchor-1" 207 0 basechar 0
AnchorPoint: "Anchor-0" 313 606 basechar 0
LayerCount: 2
Fore
SplineSet
436 541 m 1x70
 347 541 l 1
 347 344 l 2
 347 294 327 242 261 242 c 0
 247 242 235 244 221 247 c 1
 221 303 l 1
 238 303 l 2
 259 303 274 317 274 341 c 2
 274 541 l 1xf0
 139 541 l 1
 139 279 l 2
 139 260 143 246 153 235 c 2
 306 80 l 2
 332 53 347 27 347 2 c 0
 347 -18 342 -36 331 -57 c 1
 271 -57 l 1
 276 -34 277 -17 277 -12 c 0
 277 4 272 17 258 32 c 2x68
 95 199 l 2
 73 223 67 244 67 274 c 2
 67 541 l 1
 -22 541 l 1
 -22 606 l 1
 436 606 l 1
 436 541 l 1x70
EndSplineSet
EndChar

StartChar: eshortdeva
Encoding: 2318 2318 288
Width: 413
GlyphClass: 2
Flags: MW
HStem: 242 61<221 294> 541 65<-22 67 -22 274 139 274 139 139 347 436 347 347> 707 61<4 36.5> 726 62<202 242.5>
VStem: -94 65<795.5 810.5> 67 72<274 279 279 541> 274 73<341 344 344 541> 277 70<-8 -4>
AnchorPoint: "Anchor-1" 207 0 basechar 0
AnchorPoint: "Anchor-0" 207 465 basechar 0
LayerCount: 2
Fore
SplineSet
436 606 m 1xde
 436 541 l 1
 347 541 l 1
 347 344 l 2
 347 294 327 242 261 242 c 0
 247 242 235 244 221 247 c 1
 221 303 l 1
 238 303 l 2
 259 303 274 317 274 341 c 2
 274 541 l 1xde
 139 541 l 1
 139 279 l 2
 139 260 143 246 153 235 c 2
 306 80 l 2
 332 53 347 27 347 2 c 0
 347 -18 342 -36 331 -57 c 1
 271 -57 l 1
 276 -34 277 -17 277 -12 c 0
 277 4 272 17 258 32 c 2xdd
 95 199 l 2
 73 223 67 244 67 274 c 2
 67 541 l 1
 -22 541 l 1
 -22 606 l 1
 274 606 l 1
 274 656 l 2
 274 697 262 726 223 726 c 0xde
 181 726 62 707 11 707 c 0
 -67 707 -94 748 -94 805 c 0
 -94 816 -94 827 -93 837 c 1
 -29 837 l 1
 -29 813 l 2
 -29 778 -13 768 21 768 c 0xee
 63 768 173 788 222 788 c 0
 328 788 346 731 346 656 c 2
 346 606 l 1
 436 606 l 1xde
EndSplineSet
EndChar

StartChar: gadeva
Encoding: 2327 2327 289
Width: 500
GlyphClass: 2
Flags: MW
HStem: 109 65<116 143 116 163.5> 274 66<115.5 172 128 172> 541 65<-20 172 -20 522 245 360 245 245 433 522 433 433>
VStem: 12 73<210.5 239.5 210.5 259.5> 172 73<225 274 274 274 340 541> 360 73<0 541 0 541>
AnchorPoint: "Anchor-1" 397 0 basechar 0
AnchorPoint: "Anchor-0" 397 606 basechar 0
LayerCount: 2
Fore
SplineSet
522 606 m 1
 522 541 l 1
 433 541 l 1
 433 0 l 1
 360 0 l 1
 360 541 l 1
 245 541 l 1
 245 225 l 2
 245 156 198 109 129 109 c 0
 61 109 12 158 12 225 c 0
 12 294 58 340 128 340 c 2
 172 340 l 1
 172 541 l 1
 -20 541 l 1
 -20 606 l 1
 522 606 l 1
128 274 m 2
 103 274 85 254 85 225 c 0
 85 196 103 174 129 174 c 0
 157 174 172 195 172 225 c 2
 172 274 l 1
 128 274 l 2
EndSplineSet
EndChar

StartChar: ghadeva
Encoding: 2328 2328 290
Width: 426
GlyphClass: 2
Flags: MW
HStem: 124 62<172 207> 345 61<190 191 191 220> 541 65<-21 57 -21 448 133.5 145 145 286 359 448 359 359>
VStem: 39 75<238 292> 286 73<0 164 164 164 313 541 0 541>
AnchorPoint: "Anchor-1" 324 0 basechar 0
AnchorPoint: "Anchor-0" 324 606 basechar 0
LayerCount: 2
Fore
SplineSet
448 606 m 1
 448 541 l 1
 359 541 l 1
 359 0 l 1
 286 0 l 1
 286 164 l 1
 263 138 229 124 185 124 c 0
 100 124 39 175 39 262 c 0
 39 322 72 362 115 380 c 1
 72 393 40 423 40 480 c 0
 40 505 46 525 57 541 c 1
 -21 541 l 1
 -21 606 l 1
 448 606 l 1
191 345 m 2
 152 345 114 326 114 267 c 0
 114 209 149 186 195 186 c 0
 255 186 286 225 286 313 c 2
 286 541 l 1
 145 541 l 2
 122 541 114 518 114 490 c 0
 114 432 149 406 190 406 c 2
 220 406 l 1
 220 345 l 1
 191 345 l 2
EndSplineSet
EndChar

StartChar: ideva
Encoding: 2311 2311 291
Width: 352
GlyphClass: 2
Flags: MW
HStem: -11 64<168.5 191.5 157 222> 370 64<164 214 187 214 187 286> 541 65<-16 214 -16 369 286 286 286 369>
VStem: 36 70<-83 8 -83 145> 38 76<286.5 328.5 286.5 350.5> 214 72<434 541 370 541> 236 76<101 154.5>
AnchorPoint: "Anchor-1" 176 0 basechar 0
AnchorPoint: "Anchor-0" 252 606 basechar 0
LayerCount: 2
Fore
SplineSet
183 370 m 2xec
 145 370 114 347 114 310 c 0xec
 114 263 155 258 189 255 c 0
 265 248 312 217 312 131 c 0
 312 34 259 -11 185 -11 c 0
 152 -11 126 -4 106 8 c 1
 106 -83 l 1
 36 -83 l 1
 36 145 l 1
 108 145 l 1
 108 136 l 2
 108 78 139 53 175 53 c 0
 208 53 236 76 236 126 c 0xf2
 236 183 199 187 164 191 c 0
 86 197 38 230 38 308 c 0
 38 393 100 434 187 434 c 2
 214 434 l 1
 214 541 l 1
 -16 541 l 1
 -16 606 l 1
 369 606 l 1
 369 541 l 1
 286 541 l 1
 286 370 l 1
 183 370 l 2xec
EndSplineSet
EndChar

StartChar: iideva
Encoding: 2312 2312 292
Width: 352
GlyphClass: 2
Flags: MW
HStem: -11 64<168.5 191.5 157 222> 370 64<164 214 187 214 187 286> 541 65<-16 205 -16 214 -16 205 286 286 286 369> 762 65<276 337 276 333>
VStem: 36 70<-83 8 -83 145> 38 76<286.5 328.5 286.5 350.5> 174 73<689.5 711.5 676.5 741> 214 72<434 541 370 541> 236 76<101 154.5>
AnchorPoint: "Anchor-1" 251 0 basechar 0
AnchorPoint: "Anchor-0" 251 606 basechar 0
LayerCount: 2
Fore
SplineSet
183 370 m 2xf5
 145 370 114 347 114 310 c 0xf5
 114 263 155 258 189 255 c 0
 265 248 312 217 312 131 c 0
 312 34 259 -11 185 -11 c 0
 152 -11 126 -4 106 8 c 1
 106 -83 l 1
 36 -83 l 1
 36 145 l 1
 108 145 l 1
 108 136 l 2
 108 78 139 53 175 53 c 0
 208 53 236 76 236 126 c 0xf880
 236 183 199 187 164 191 c 0
 86 197 38 230 38 308 c 0
 38 393 100 434 187 434 c 2
 214 434 l 1
 214 541 l 1xf5
 -16 541 l 1
 -16 606 l 1
 205 606 l 1
 184 641 174 674 174 705 c 0
 174 777 235 827 317 827 c 0
 323 827 333 827 337 826 c 1
 337 762 l 1
 333 762 l 2
 278 761 247 734 247 689 c 0
 247 664 255 637 273 606 c 1xfa
 369 606 l 1
 369 541 l 1
 286 541 l 1
 286 370 l 1
 183 370 l 2xf5
EndSplineSet
EndChar

StartChar: kadeva
Encoding: 2325 2325 293
Width: 558
GlyphClass: 2
Flags: MW
HStem: 111 65<150.5 179 397.5 417> 405 32 405 64<150.5 179 121 200 390 417> 541 65<-12 248 -12 579 321 579 321 321>
VStem: 28 75<242 279 279 301 242 355.5> 248 73<0 145 145 145 279 301 301 324 0 335.5 437 541> 465 75<279 301 301 338.5>
AnchorPoint: "Anchor-1" 281 0 basechar 0
AnchorPoint: "Anchor-0" 281 606 basechar 0
LayerCount: 2
Fore
SplineSet
321 541 m 1xbe
 321 437 l 1
 324 437 l 1
 341 456 370 469 410 469 c 0
 488 469 540 415 540 290 c 0
 540 165 477 111 400 111 c 0
 395 111 389 112 382 113 c 1
 382 176 l 1
 392 176 l 2
 442 176 465 205 465 279 c 2
 465 301 l 2
 465 376 442 405 392 405 c 0
 349 405 326 378 321 324 c 1
 321 0 l 1
 248 0 l 1
 248 145 l 1
 244 145 l 1
 227 126 199 111 159 111 c 0
 80 111 28 165 28 291 c 0
 28 420 83 469 159 469 c 0xbe
 199 469 227 456 244 437 c 1
 248 437 l 1xde
 248 541 l 1
 -12 541 l 1
 -12 606 l 1
 579 606 l 1
 579 541 l 1
 321 541 l 1xbe
103 279 m 2
 103 205 126 176 175 176 c 0
 225 176 248 211 248 279 c 2
 248 301 l 2
 248 370 225 405 175 405 c 0
 126 405 103 376 103 301 c 2
 103 279 l 2
EndSplineSet
EndChar

